/* XPM */
static char *f9f7c9ac0de448cebf9cd6b0994093d4FYgwEcGA6pxlnIpM[] = {
/* columns rows colors chars-per-pixel */
"64 64 6 1 ",
"  c None",
". c black",
"X c #D9CA71",
"o c #EBDD85",
"O c #FAEEA6",
"+ c #F8F2CD",
/* pixels */
"                                                                ",
"                                                                ",
"                                                                ",
"                                                                ",
"                                                                ",
"                                                                ",
"                                                                ",
"                                                                ",
"                                                                ",
"                                                                ",
"                                                                ",
"                                                                ",
"                                                                ",
"                                                                ",
"                                                                ",
"                                                                ",
"                                                                ",
"                                                                ",
"                                                                ",
"                                                                ",
"                                                                ",
"                                                                ",
"                                                                ",
"                                                                ",
"                                                                ",
"                                                                ",
"                                                                ",
"                                                                ",
"                                                                ",
"                                                                ",
"                                                                ",
"                                                                ",
"                                                                ",
"                                         ....                   ",
"                                       ..XXXX..                 ",
"                                      .XXXXXXX..                ",
"                                     .XXXooooXX.                ",
"                                     .XXooOOo+XX.               ",
"                                     .XooOOOO++X.               ",
"                                     .XooOOOOO+X.               ",
"                                     .XXooOOO++X.               ",
"                                     ..XooOO++XX.               ",
"                                      .XooOO+oo.....            ",
"                                      ..oOOO+oXXXXX..           ",
"                                       .oOOOOOooooXX..          ",
"                                    ...XoOOOOOOOO+oXX..         ",
"                                ....XXXooOOOOOOOOO+oXX..        ",
"          ......             ....XXOoOOOooOOOOOOOO+OoXX.        ",
"         ..XooXX.         ....XXoOOOOOooXXXOOOOOOOO+oXX.        ",
"        ..XooooX..    .....XXoOOOOOOXXXXX.XXOOOOOOO+oXX.        ",
"       .XXooOOooXX. ...XXoOOOOOOOXXXXX.....XXO+OOO++oXX.        ",
"       .XooOOOOooo..XXoOOOOOOOOXXX.....   ..XX+++++ooX..        ",
"       .XooOOOOOOooooO+OOOOXXXXX..         ..XXX++ooXX.         ",
"       .XXoooOOOOOOOOOOXXXXX....            ..XXXooXX..         ",
"        .XooooOOOOOOOXXX.....                ..XXXX..           ",
"         .XXXooOOOOOXX...                     ......            ",
"          ...XooOOO+X.                                          ",
"             .ooOO++.                                           ",
"             .Xo+O+XX.                                          ",
"             .XXo++XX.                                          ",
"             ..XXXXX..                                          ",
"              ...XX..                                           ",
"                ....                                            ",
"                                                                "
};
