/* XPM */
static char *_049cc9a31d64436ba88adafd3984e84ptRys2ZZXpsQJSy8[] = {
/* columns rows colors chars-per-pixel */
"64 64 14 1 ",
"  c #623F0B",
". c #734808",
"X c gray44",
"o c #88570F",
"O c #A2650B",
"+ c #C08125",
"@ c #FFB242",
"# c #71F6FF",
"$ c #C5FBFF",
"% c #DDFFF7",
"& c #DAFDFF",
"* c #E9E9E9",
"= c #E5FDFF",
"- c white",
/* pixels */
"##$&&#########$$&&&$############################&=$$#######$$###",
"#=&$&&#######&&$=&&$#############$$$$#########&&&$$#######&$=###",
"##==&&#######&&&$&=#############$$&&$$########&==$&######&&=&&&#",
"###############=&&###############&&==&#########=&&&######$$$&###",
"#################=###############$=&&&=$########################",
"###@@######@@######@@######@@#####$@@=$####@@######@@######@@###",
"##@Oo@####@Oo@####@Oo@####@Oo@####@Oo@####@Oo@####@Oo@####@Oo@##",
"##@Oo@####@Oo@####@Oo@####@Oo@####@Oo@####@Oo@####@Oo@####@Oo@##",
"#@OOoo@##@OOoo@##@OOoo@##@OOoo@##@OOoo@##@OOoo@##@OOoo@##@OOoo@#",
"@+OOoo.@@+OOoo.@@+OOoo.@@+OOoo.@@+OOoo.@@+OOoo.@@+OOoo.@@+OOoo.@",
"++OOoo..++OOoo..++OOoo..++OOoo..++OOoo..++OOoo..++OOoo..++OOoo..",
"++OOoo..++OOoo..++OOoo..++OOoo..++OOoo..++OOoo..++OOoo..++OOoo..",
"++OOoo..++OOoo..++OOoo..++OOoo..++OOoo..++OOoo..++OOoo..++OOoo..",
"++OOoo..++OOoo..++OOoo..++OOoo..++OOoo..++OOoo..++OOoo..++OOoo..",
"++OOoo..++OOoo..++OOoo..++OOoo..++OOoo..++OOoo..++OOoo..++OOoo..",
"++OOoo..++OOoo..++OOoo..++OOoo..++OOoo..++OOoo..++OOoo..++OOoo..",
"++OOoo..++OOoo..++OOoo..++OOoo..++OOoo..++OOoo..++OOoo..++OOoo..",
"++OOoo..++OOoo..++OOoo..++OOoo..++OOoo..++OOoo..++OOoo..++OOoo..",
"++OOoo..++OOoo..++OOoo..++OOoo..++OOoo..++OOoo..++OOoo..++OOoo..",
"++OOoo..++OOoo..++OOoo..++OOoo..++OOoo..++OOoo..++OOoo..++OOoo..",
"++OOoo..++OOoo..++OOoo..++OOoo..++OOoo..++OOoo..++OOoo..++OOoo..",
"++O. o..++O. o..++O. o..++O. o..++O. o..++O. o..++O. o..++O. o..",
"++O .o..++O .o..++O .o..++O .o..++O .o..++O .o..++O .o..++O .o..",
"++OOoo..++OOoo..++OOoo..++OOoo..++OOoo..++OOoo..++OOoo..++OOoo..",
"++OOoo..++OOoo..++OOoo..++OOoo..++OOoo..++OOoo..++OOoo..++OOoo..",
"++OOoo..++OOoo..++OOoo..++OOoo..++OOoo..++OOoo..++OOoo..++OOoo..",
"++OOoo..++OOoo..++OOoo..++OOoo..++OOoo..++OOoo..++OOoo..++OOoo..",
"++OOoo..++OOoo..++OOoo..++OOoo..++OOoo..++OOoo..++OOoo..++OOoo..",
"++OOoo..++OOoo..++OOoo..++OOoo..++OOoo..++OOoo..++OOoo..++OOoo..",
"++OOoo..++OOoo..++OOoo..++OOoo..++OOoo..++OOoo..++OOoo..++OOoo..",
"++OOoo..++OOoo..++OOoo..++OOoo..++OOoo..++OOoo..++OOoo..++OOoo..",
"++OOoo..++OOoo..++OOoo..++OOoo..++OOoo..++OOoo..++OOoo..++OOoo..",
"++OOoo..++OOoo..++OOoo..++OOoo..++OOoo..++OOoo..++OOoo..++OOoo..",
"++OOoo..++OOoo..++OOoo..++OOoo..++OOoo..++OOoo..++OOoo..++OOoo..",
"++OOoo..++OOoo..++OOoo..++OOoo..++OOoo..++OOoo..++OOoo..++OOoo..",
"++OOoo..++OOoo..++OOoo..++OOoo..++OOoo..++OOoo..++OOoo..++OOoo..",
"++OOoo..++OOoo..++OOoo..++OOoo..++OOoo..++OOoo..++OOoo..++OOoo..",
"++O. o..++O. o..++O. o..++O. o..++O. o..++O. o..++O. o..++O. o..",
"++O .o..++O .o..++O .o..++O .o..++O .o..++O .o..++O .o..++O .o..",
"++OOoo..++OOoo..++OOoo..++OOoo..++OOoo..++OOoo..++OOoo..++OOoo..",
"++OOoo..++OOoo..++OOoo..++OOoo..++OOoo..++OOoo..++OOoo..++OOoo..",
"++OOoo..++OOoo..++OOoo..++OOoo..++OOoo..++OOoo..++OOoo..++OOoo..",
"++OOoo..++OOoo..++OOoo..++OOoo..++OOoo..++OOoo..++OOoo..++OOoo..",
"++OOoo..++OOoo..++OOoo..++OOoo****OOoo..++OOoo..++OOoo..++OOoo..",
"++OOoo..++OOoo..++OOoo..++OO********oo..++OOoo..++OOoo..++OOoo..",
"++OOoo..++OOoo..++OOoo..++************..++OOoo..++OOoo..++OOoo..",
"++OOoo..++OOoo..++OOoo..+**************.++OOoo..++OOoo..++OOoo..",
"++OOoo..++OOoo..++OOoo..****************++OOoo..++OOoo..++OOoo..",
"++OOoo..++OOoo..++OOoo..**XXXXXXXXXXXX**++OOoo..++OOoo..++OOoo..",
"++OOoo..++OOoo..++OOoo..**X%%%%%%%%%%X**++OOoo..++OOoo..++OOoo..",
"++OOoo..++OOoo..++OOoo..**X%%%-%%%-%%X**++OOoo..++OOoo..++OOoo..",
"++OOoo..++OOoo..++OOoo..**X%%-%%%-%%%X**++OOoo..++OOoo..++OOoo..",
"++OOoo..++OOoo..++OOoo..**X%-%%%-%%%%X**++OOoo..++OOoo..++OOoo..",
"++OOoo..++OOoo..++OOoo..**X%%%%-%%%-%X**++OOoo..++OOoo..++OOoo..",
"++OOoo..++OOoo..++OOoo..**X%%%-%%%-%%X**++OOoo..++OOoo..++OOoo..",
"++O. o..++O. o..++O. o..**X%%-%%%-%%%X**++O. o..++O. o..++O. o..",
"++O .o..++O .o..++O .o..**X%%%%%-%%%%X**++O .o..++O .o..++O .o..",
"++OOoo..++OOoo..++OOoo..**X%%%%-%%%-%X**++OOoo..++OOoo..++OOoo..",
"++OOoo..++OOoo..++OOoo..**X%%%%%%%-%%X**++OOoo..++OOoo..++OOoo..",
"++OOoo..++OOoo..++OOoo..**XXX%%%%%%XXX**++OOoo..++OOoo..++OOoo..",
"++OOoo..++OOoo..++OOoo..+***XXXXXXXX***.++OOoo..++OOoo..++OOoo..",
"++OOoo..++OOoo..++OOoo..++************..++OOoo..++OOoo..++OOoo..",
"++OOoo..++OOoo..++OOoo..++OO********oo..++OOoo..++OOoo..++OOoo..",
"++OOoo..++OOoo..++OOoo..++OOoo..++OOoo..++OOoo..++OOoo..++OOoo.."
};
