/* XPM */
static char *_3519b66c7824e29da9f345096aaf290b9RBytXgm2PgzmA1[] = {
/* columns rows colors chars-per-pixel */
"64 64 12 1 ",
"  c None",
". c black",
"X c gray9",
"o c #1D1D1D",
"O c gray13",
"+ c #232323",
"@ c #282828",
"# c #610000",
"$ c #5B5B5B",
"% c #737272",
"& c #D30000",
"* c #888888",
/* pixels */
"  .                                                          .  ",
" .X.                                                        .X. ",
" .X@..                                                    ..@X. ",
".X@@@@..                                                ..@@@@X.",
".X++@@@@.                                              .@@@@++X.",
".XX+XX@@@.                                            .@@@XX+XX.",
".XX@@XX@@@....                                    ....@@@XX@@XX.",
" .X@@@XX@@@@@....                              ....@@@@@XX@@@X. ",
" .XX+++XXX@@@@@@..                            ..@@@@@@XXX+++XX. ",
"  .X@@@++XX+++@@@@...                      ...@@@@+++XX++@@@X.  ",
"  .XXX@@@@XXX++++@@@..                    ..@@@++++XXX@@@@XXX.  ",
"   ..XX++@@@XXX@+XX@@..                  ..@@XX+@XXX@@@++XX..   ",
"    ..XX++++@@XX@+XXX@...              ...@XXX+@XX@@++++XX..    ",
"     ..XXX@+++@@XX@@XX@@..            ..@@XX@@XX@@+++@XXX..     ",
"       ..XX@@++@X......@@@.  ......  .@@@......X@++@@XX..       ",
"        ..XX@++@.%%$%%X.@@. ..++++.. .@@.X%%$%%.@++@XX..        ",
"         ..XX@++.X$%**$X.@@..+@++@+..@@.X$**%$X.++@XX..         ",
"          ..XXX+@.X$%%*$X.@.+&#@@#&+.@.X$*%%$X.@+XXX..          ",
"            ..XX+@..X$%*$X.++#&++&#++.X$*%$X..@+XX..            ",
"             ..XX++@.X$%%*%.@@@oo@@@.%*%%$X.@++XX..             ",
"               .XXX+@.X$%*$.+@o..o@+.$*%$X.@+XXX.               ",
"                ..XX+@@.$%%.++o..o++.%%$.@@+XX..                ",
"                 ..XX+@.X**%.+....+.%**X.@+XX..                 ",
"                  ..XX+@.X$%+......+%$X.@+XX..                  ",
"                   ..X++@.*%@@....@@%*.@++X..                   ",
"                    .XX+@.%*%+@..@+%*%.@+XX.                    ",
"                     .XX+.*$*@+..+@*$*.+XX.                     ",
"                      .XX.%*%%@++@%%*%.XX.                      ",
"                  .    .X.$%*$+@@+$*%$.X.    .                  ",
"                  .    ...$*%$%@@%$%*$...    .                  ",
"              .   .   .  .%*%%$%%$%%*%.  .   .   .              ",
"               .  .  .   ..%$%$%%$%$%..   .  .  .               ",
"                + + +     ..*%$$$$%*..     + + +                ",
"                 .+.       .$%%**%%$.       .+.                 ",
"                 .+.+.     .$*$%%$*$.     .+.+.                 ",
"                  .  +..  ....$**$....  ..+  .                  ",
"                  +   +.. .@@..$$..@@. ..+   +                  ",
"                       +...@.@....@.@...+                       ",
"                        +....@@@@@@....+                        ",
"                           +.@@XX@@.+                           ",
"                           .@X+@@+X@.                           ",
"                           .@X+@@+X@.                           ",
"                          .@@X+XX+X@@.                          ",
"                          .@XX@@@@XX@.                          ",
"                         ..@X+@XX@+X@..                         ",
"                         .@XX@XXXX@XX@.                         ",
"                        ..@X+@X++X@+X@..                        ",
"                       ..@@@@XX++XX@@@@..                       ",
"                        ....@X@++@X@....                        ",
"                           ..........                           ",
"                                                                ",
"                                                                ",
"                                                                ",
"                                                                ",
"                                                                ",
"                                                                ",
"                                                                ",
"                                                                ",
"                                                                ",
"                                                                ",
"                                                                ",
"                                                                ",
"                                                                ",
"                                                                "
};
