/* XPM */
static char *_da82b7ff9ff4d319c3097f96f41c7ecmtI34l5vVM5VmRA9[] = {
/* columns rows colors chars-per-pixel */
"64 64 14 1 ",
"  c None",
". c black",
"X c gray9",
"o c #1D1D1D",
"O c gray13",
"+ c #232323",
"@ c #282828",
"# c #610000",
"$ c #6E0000",
"% c #686868",
"& c #8A0000",
"* c #D30000",
"= c #888888",
"- c white",
/* pixels */
"                                                                ",
"                                                                ",
"                                                                ",
"                                                                ",
"                                                                ",
"                                                                ",
"                                                                ",
"                                                                ",
"                                                                ",
"                                                                ",
"                                                                ",
"                                                                ",
"                                                                ",
"                                                                ",
"                                                                ",
"                                                                ",
"                                                                ",
"                                                                ",
"                                                                ",
"                                                                ",
"                 &&                                             ",
"                  &&                                            ",
"                  ##                                            ",
"                  $*                     #                      ",
"                   $                   *$*#                     ",
"                 .......               *##.....                 ",
"             .....XXXXX...            ***#XXXX.....             ",
"             .XXX@@++@@XX..   .....   .XX@@++@@XXX.             ",
"            .XX+++X+@.........XXXXX........##X+++XX.            ",
"            .X@@+XX.....%%..X+X@+X+XX..%%.###.XX@@+.            ",
"            .XX+XX+...%=%%...@+X@#@X...%=#*&*.++XXX.            ",
"        &   .XX+++X..==%...*..X*##X..*..%=*$*+XXXXX.  &         ",
"        *&  ..X.++#..%=..##*-.X*#XX.-*#..%%$*$XX++XX *&         ",
"            ..XX..*##%=...#.*..+@X..*.##..%**XX.XXX. &*&        ",
"             ..XX.*&#==...#*.#..+..#.*#...=..+.XXX..            ",
"              ..XXo*.X==..##*#..X..#*##..=.o+oXXX..             ",
"            .. ..XX.oo%=...##..X++..##...%oo.o.X.. ..           ",
"            ..  ..XX..+%%.....X++XXX.X..%+..XX..  ...           ",
"            ..   ..XX+++%..X.........X..%++XX..   ..            ",
"            ..   ....X.X...*.#######.*.%.+XX...  ...            ",
"             ..  .. ...XX%.**#*...*##*.%+XX. ..  ...            ",
"             ... ..  ...+X..#......**..XX..  .. ...             ",
"              ..... X.....X.*......##..XX..X ......             ",
"              .....X..  ..X..#*...#*..... ..X......             ",
"               ......X   ....#####*#..... ........              ",
"               .......XX  ...###**##.X..XX.#......              ",
"                ....###.X X..#.###.#.X.X..***....               ",
"                 ...#*#X.XX@#*.....*#...X *&&#...               ",
"                 ...#&*#.X..#*....@*#.X. &&&  ...               ",
"                 ... **    &**@XX@&&#    &&*  ..                ",
"                 ..  &     &&*X@@XX&#&    &&   .                ",
"                     &     .&&+@@+X&&&    *                     ",
"                          .@&&&@@+X*@.    *                     ",
"                          .@X&&@@@X*@.                          ",
"                         ..@X&&XX@+*@..                         ",
"                         .@XX@@XX@@**@.                         ",
"                        ..XX+@XXXX@+XX..                        ",
"                       ..@X@@@X++X@@@X@..                       ",
"                        ....@X@++@X@....                        ",
"                           ..........                           ",
"                                                                ",
"                                                                ",
"                                                                ",
"                                                                "
};
