/* XPM */
static char *result[] = {
/* columns rows colors chars-per-pixel */
"64 64 10 1 ",
"  c black",
". c #1C211D",
"X c #262E27",
"o c #411111",
"O c #7F0808",
"+ c #6C1919",
"@ c #424642",
"# c #937B0E",
"$ c #DEB914",
"% c None",
/* pixels */
"%%%%%%%%%%%%%%%      %%%%%%%%%%%%%%%%%%%%%%%%%%%%%%%%%%%%%%%%%%%",
"%%%%%%%%%%%%%%% $$$$  %%%%%%%%%%%%%%%%%%%%%%%%%%%%%%%%%%%%%%%%%%",
"%%%%%%%%%%%%%%% $$$$$$  %%%%%%%%%%%%%%%%%%%%%%%%%%%%%%%%%%%%%%%%",
"%%%%  %%%%%%%%%  $$$$$##  %%%%%%%%%%%%%%%%%%%%%%%%%%%%%%%%%%%%%%",
"%%        %%%%%% $$#$$$#$ %%%%%%%%%%%%%%%%%%%%%%%%%%%%%%%%%%%%%%",
"   $$$$$$$   %%%  $#$$$#$$  %%%%%%%%%%%%%%%%%%%%%%%%%%%%%%%%%%%%",
" $$$$$$$$$$$  %%% $$#$$##$$ %%%%%%%%%%%%%%%%%%%%%%%%%%%%%%%%%%%%",
" $$$$$$#$$$$$  %%  $##$$#$$  %%%%%%%%%%%%%%%%%%%%%%%%%%%%%%%%%%%",
" $$$$$$$###$$$$ %% $$#$$$#$$ %%%%%%%%%%%%%%%%%%%%%%%%%%%%%%%%%%%",
" $$#$$$$$$##$$$$   $$$#$$##$$ %%%%%%%%%%%%%%%%%%%%%%%%%%%%%%%%%%",
" $$$#$$$$$$$##$$$$$ $$##$$#$$  %%%%%%%%%%%%%%%%%%%%%%%%%%%%%%%%%",
" $$$##$$$$$$$##$$$$$ $$#$$##$$ %%%%%%%%%%%%%%%%%%%%%%%%%%%%%%%%%",
"  $$$##$$$$$$$###$$$$ $$$$$#$$  %%%%%%%%%%%%%%%%%%%%%%%%%%%%%%%%",
"% $$$$##$$$$$$$$##$$$$  $$$##$$  %%%%%%%%%%%%%%%%%%%%%%%%%%%%%%%",
"%  $$$$#$$$$$$$$$##$$$$  $$$##$$ %%%%%%%%%%%%%%%%%%%%%%%%%%%%%%%",
"%%  $$$$#$$$$$$$$$##$$$$  $$$##$$ %%%%%%%%%%%%%%%%%%%%%%%%%%%%%%",
"%%%  $$$####$$$$$$$##$$$$$  $$##$  %%%%%%%%%%%%%%%%%%%%%%%%%%%%%",
"%%%%  $$$$$##$$$$$$$##$$$$$  $$#$$$ %%%%%%%%%%%%%%%%%%%%%%%%%%%%",
"%%%%% $$$$$$$##$$$$$$##$$$$$$  $$$ . ..@...%%%%%%%%%%%%%%%%%%%%%",
"%%%%%  $$$$$$$###$$$$$$##$$$$$  $ .@@@@...@.%%%%%oo%..%oo%%%%%%%",
"%%%%%%% $$$$$$$$###$$$$$$##$$$$  .@@@@@@@@@@.%%%oooo@Xoo+o%%%%%%",
"%%%%%%%%  $$$$$$$$##$$$$$$$$$$$$$.@@@......@@..ooO+o@X@+O+o%%%%%",
"%%%%%%%%%   $$$$$$$$$$$$$$$$$$$$..@@@@@@@@...@Xo+OO+o@Xo+O+o%%%%",
"%%%%%%%%%%%  $$$$$$$$$          .@@@...@@@@@@X.ooOOoo@X@o++o%%%%",
"%%%%%%%%%%%%%          %%%%%%%...@@@.@....@@@@.@oo+o@@@X@oo%%%%%",
"%%%%%%%%%%%%%%%%%%%%%%%%%%%%...X.X@@@@@@@...@@.@oooo@@@@@X.%%%%%",
"%%%%%%%%%%%%%%%%%%%%%%%%%%..XX@@.XX@@@@@@@@@@X..@oo@@@@XXXX.%%%%",
"%%%%%%%%%%%%%%%%%%%%%%%%...@X.....XXX@@@@@@@XXX..@@XX@@@XX.%%%%%",
"%%%%%%%%%%...........%%..@@@..XXX..XXXXXX@@XXXXX...XXXXXX@.%%%%%",
"%%%%%%%%...XXXXXXXXX...X@@@X.XXXXX.XXXXXXXXXXXXX %...XX..@.%%%%%",
"%%%%%%%%.XX@@@@@...X...X@@X..X........@@XXXX.@@.%%%%%...%X@.%%%%",
"%%%%%%%.X@..@@..XXX..XXX@XX.@@.%%...%X@@X....@@.%%%%%%%%%XX.%%%%",
"%%%%%...X@.@...@...X...XXXX.@.%%%%.%%%X@X.%%....%%%%%%%%%%X@.%%%",
"%%%%..XXX@...@@..XX........@@X%%%%.%%%X@@.%%%@.%%%%%%%%%%%X@.%%%",
"%%%...X@...@@...XX...%%%%%%@X.%%%X..%%X@..%%%@..%%%%%%%%%%X@.%%%",
"%%%%..X..@@...XXX..%%%%%%%.@.%%%%X@.%%X@.%%%%X@..%%%%%%%%%%X@.%%",
"%%%%%.XXX@@.@XXX..%%%%%%%%@@.%%%XX..%X@..%%%%%X@.%%%%%%%%%%X@.%%",
"%%%%%%..XXXXXXX...%%%%%%%%@X.%%XX@.%%%@.%%%%%%X@.%%%%%%%%%%%X@.%",
"%%%%%%%....X.....%%%%%%%%%@X%%%X@@.%%X@.%%%%%%%@..%%%%%%%%%%%X@.",
"%%%%%%%%%%...%%%%%%%%%%%%%@.%%%X@..%%X@.%%%%%%%X@.%%%%%%%%%%%%..",
"%%%%%%%%%%%%%%%%%%%%%%%%%.@.%%%X@.%%%%@.%%%%%%%%...%%%%%%%%%%%%%",
"%%%%%%%%%%%%%%%%%%%%%%%%%.@.%%%X..%%%%@..%%%%%%%%@.%%%%%%%%%%%%%",
"%%%%%%%%%%%%%%%%%%%%%%%%%.@.%%%X.%%%%%X@.%%%%%%%%@..%%%%%%%%%%%%",
"%%%%%%%%%%%%%%%%%%%%%%%%%...%%%@.%%%%%%..%%%%%%%%%@.%%%%%%%%%%%%",
"%%%%%%%%%%%%%%%%%%%%%%%%%.@%%%%%..%%%%%.@.%%%%%%%%@@.%%%%%%%%%%%",
"%%%%%%%%%%%%%%%%%%%%%%%%%.@%%%%%@.%%%%%%...%%%%%%%%@.%%%%%%%%%%%",
"%%%%%%%%%%%%%%%%%%%%%%%%%.%%%%%%%.%%%%%%%@.%%%%%%%%%@.%%%%%%%%%%",
"%%%%%%%%%%%%%%%%%%%%%%%%%.%%%%%%%%%%%%%%%@..%%%%%%%%@.%%%%%%%%%%",
"%%%%%%%%%%%%%%%%%%%%%%%%%.%%%%%%%%%%%%%%%%@@.%%%%%%%%.%%%%%%%%%%",
"%%%%%%%%%%%%%%%%%%%%%%%%%%%%%%%%%%%%%%%%%%%@.%%%%%%%%.%%%%%%%%%%",
"%%%%%%%%%%%%%%%%%%%%%%%%%%%%%%%%%%%%%%%%%%%%.%%%%%%%%%%%%%%%%%%%",
"%%%%%%%%%%%%%%%%%%%%%%%%%%%%%%%%%%%%%%%%%%%%.%%%%%%%%%%%%%%%%%%%",
"%%%%%%%%%%%%%%%%%%%%%%%%%%%%%%%%%%%%%%%%%%%%%%%%%%%%%%%%%%%%%%%%",
"%%%%%%%%%%%%%%%%%%%%%%%%%%%%%%%%%%%%%%%%%%%%%%%%%%%%%%%%%%%%%%%%",
"%%%%%%%%%%%%%%%%%%%%%%%%%%%%%%%%%%%%%%%%%%%%%%%%%%%%%%%%%%%%%%%%",
"%%%%%%%%%%%%%%%%%%%%%%%%%%%%%%%%%%%%%%%%%%%%%%%%%%%%%%%%%%%%%%%%",
"%%%%%%%%%%%%%%%%%%%%%%%%%%%%%%%%%%%%%%%%%%%%%%%%%%%%%%%%%%%%%%%%",
"%%%%%%%%%%%%%%%%%%%%%%%%%%%%%%%%%%%%%%%%%%%%%%%%%%%%%%%%%%%%%%%%",
"%%%%%%%%%%%%%%%%%%%%%%%%%%%%%%%%%%%%%%%%%%%%%%%%%%%%%%%%%%%%%%%%",
"%%%%%%%%%%%%%%%%%%%%%%%%%%%%%%%%%%%%%%%%%%%%%%%%%%%%%%%%%%%%%%%%",
"%%%%%%%%%%%%%%%%%%%%%%%%%%%%%%%%%%%%%%%%%%%%%%%%%%%%%%%%%%%%%%%%",
"%%%%%%%%%%%%%%%%%%%%%%%%%%%%%%%%%%%%%%%%%%%%%%%%%%%%%%%%%%%%%%%%",
"%%%%%%%%%%%%%%%%%%%%%%%%%%%%%%%%%%%%%%%%%%%%%%%%%%%%%%%%%%%%%%%%",
"%%%%%%%%%%%%%%%%%%%%%%%%%%%%%%%%%%%%%%%%%%%%%%%%%%%%%%%%%%%%%%%%"
};
