/* XPM */
static char *result[] = {
/* columns rows colors chars-per-pixel */
"64 64 10 1 ",
"  c black",
". c #1C211D",
"X c #262E27",
"o c #411111",
"O c #7F0808",
"+ c #6C1919",
"@ c #424642",
"# c #937B0E",
"$ c #DEB914",
"% c None",
/* pixels */
"%%%%%%%%%%%%%%%%%%%%%%%%%%%%%%%%%%%%%%%%%%%%%%%%%%%%%%%%%%%%%%%%",
"%%%%%%%%%%%%%%%%%%%%%%%%%%%%%%%%%%%%%%%%%%%%%%%%%%%%%%%%%%%%%%%%",
"%%%%%%%%%%%%%%%%%%%%%%%%%%%%%%%%%%%%%%%%%%%%%%%%%%%%%%%%%%%%%%%%",
"%%%%%%%%%%%%%%%%%%%%%%%%%%%%%%%%%%%%%%%%%%%%%%%%%%%%%%%%%%%%%%%%",
"%%%%%%%%%%%%%%%%%%%%%%%%%%%%%%%%%%%%%%%%%%%%%%%%%%%%%%%%%%%%%%%%",
"%%%%%%%%%%%%%%%%%%%%%%%%%%%%%%%%%%%%%%%%%%%%%%%%%%%%%%%%%%%%%%%%",
"%%%%%%%%%%%%%%%%%%%%%%%%%%%%%%%%%%%%%%%%%%%%%%%%%%%%%%%%%%%%%%%%",
"%%%%%%%%%%%%%%%%%%%%%%%%%%%%%%%%%%%%%%%%%%%%%%%%%%%%%%%%%%%%%%%%",
"%%%%%%%%%%%%%%%%%%%%%%%%%%%%%%%%%%%%%%%%%%%%%%%%%%%%%%%%%%%%%%%%",
"%%%%%%%%%%%%%%%%%%%%%%%%%%%%%%%%%%%%%%%%%%%%%%%%%%%%%%%%%%%%%%%%",
"%%%%%%%%%%%%%%%%%%%%%%%%%%%%%%%%%%%%%%%%%%%%%%%%%%%%%%%%%%%%%%%%",
"%%%%%%%%%%%%%%%%%%%%%%%%%%%%%%%%%%%%%%%%%%%%%%%%%%%%%%%%%%%%%%%%",
"%%%%%%%%%%%%%%%%%%%%%%%%%%%%%%%%%%%%%%%%%%%%%%%%%%%%%%%%%%%%%%%%",
"%%%%%%%%%%%%             %%%%%%%%%%%%%%%%%%%%%%%%%%%%%%%%%%%%%%%",
"%%%%%%%%%   $$$$$$$$$$$$$ %%%%%%%%%%%%%%%%%%%%%%%%%%%%%%%%%%%%%%",
"%%%%%%%  $$$$$$$#########$  %%%%%%%%%%%%%%%%%%%%%%%%%%%%%%%%%%%%",
"%%%%%  $$$$######$$$$$$$####  %%%%%%%%%%%%%%%%%%%%%%%%%%%%%%%%%%",
"%%%% $$$####$$$$$$$$$$$$$$$###  %%%%%%%%%%%%%%%%%%%%%%%%%%%%%%%%",
"%   $####$$$$$###########$$$$$## %%%%%%%%%%%%%%%%%%%%%%%%%%%%%%%",
" $$$##$$$$$$$##$$$$$$$$$###$$$$##  %%%%%%%%%%%%%%%%%%%%%%%%%%%%%",
" $$$$$$$$$$               $##$$$$#$ %%%%%%%%%%%%%%%%%%%%%%%%%%%%",
"% $$$$     $$$$$$$$$$$$$$$    $$$$   ..@...%%%%%%%%%%%%%%%%%%%%%",
"%     $$$$$$$$$$$$$$$$$$$$$$$$    .@@@@...@.%%%%%oo%..%oo%%%%%%%",
"%%% $$$$$$$$$$$$$$$$$$$###$$$#$$ .@@@@@@@@@@.%%%oooo@Xoo+o%%%%%%",
"%% $$$###$$$$$$$$$#####$$$$$#$$$$.@@@......@@..ooO+o@X@+O+o%%%%%",
"% $$$$$$$##########$$$$$$$##$$$$..@@@@@@@@...@Xo+OO+o@Xo+O+o%%%%",
".$$$$$$$$$$$$$$$$$$$$$$$##$$$$ ..@@@...@@@@@@X.ooOOoo@X@o++o%%%%",
" $$$##$$$$$$$$$$$$$$$$###$$$  @..@@@.@....@@@@.@oo+o@@@X@oo%%%%%",
"% $$$###$$$$$$$$$$$####$$$$ X@@X.X@@@@@@@...@@.@oooo@@@@@X.%%%%%",
"%% $$$$$############$$$$$$ XXX@@.XX@@@@@@@@@@X..@oo@@@@XXXX.%%%%",
"%%%  $$$$$$$$$$$$$$$$$$$  X@X.....XXX@@@@@@@XXX..@@XX@@@XX.%%%%%",
"%%%%%   $$$$$$$$$$$$$$  X@@@..XXX..XXXXXX@@XXXXX...XXXXXX@.%%%%%",
"%%%%%%%%.....$$$$$$$  .X@@@X.XXXXX.XXXXXXXXXXXXX %...XX..@.%%%%%",
"%%%%%%%%.XXX.       ...X@@X..X........@@XXXX.@@.%%%%%...%X@.%%%%",
"%%%%%%%.XXXXXXXXXXX..XXX@XX.@@.%%...%X@@X....@@.%%%%%%%%%XX.%%%%",
"%%%%%...XX.@..@@...X...XXXX.@.%%%%.%%%X@X.%%....%%%%%%%%%%X@.%%%",
"%%%%..XXX@...@@..XX........@@X%%%%.%%%X@@.%%%@.%%%%%%%%%%%X@.%%%",
"%%%...X@...@@...XX...%%%%%%@X.%%%X..%%X@..%%%@..%%%%%%%%%%X@.%%%",
"%%%%..X..@@...XXX..%%%%%%%.@.%%%%X@.%%X@.%%%%X@..%%%%%%%%%%X@.%%",
"%%%%%.XXX@@.@XXX..%%%%%%%%@@.%%%XX..%X@..%%%%%X@.%%%%%%%%%%X@.%%",
"%%%%%%..XXXXXXX...%%%%%%%%@X.%%XX@.%%%@.%%%%%%X@.%%%%%%%%%%%X@.%",
"%%%%%%%....X.....%%%%%%%%%@X%%%X@@.%%X@.%%%%%%%@..%%%%%%%%%%%X@.",
"%%%%%%%%%%...%%%%%%%%%%%%%@.%%%X@..%%X@.%%%%%%%X@.%%%%%%%%%%%%..",
"%%%%%%%%%%%%%%%%%%%%%%%%%.@.%%%X@.%%%%@.%%%%%%%%...%%%%%%%%%%%%%",
"%%%%%%%%%%%%%%%%%%%%%%%%%.@.%%%X..%%%%@..%%%%%%%%@.%%%%%%%%%%%%%",
"%%%%%%%%%%%%%%%%%%%%%%%%%.@.%%%X.%%%%%X@.%%%%%%%%@..%%%%%%%%%%%%",
"%%%%%%%%%%%%%%%%%%%%%%%%%...%%%@.%%%%%%..%%%%%%%%%@.%%%%%%%%%%%%",
"%%%%%%%%%%%%%%%%%%%%%%%%%.@%%%%%..%%%%%.@.%%%%%%%%@@.%%%%%%%%%%%",
"%%%%%%%%%%%%%%%%%%%%%%%%%.@%%%%%@.%%%%%%...%%%%%%%%@.%%%%%%%%%%%",
"%%%%%%%%%%%%%%%%%%%%%%%%%.%%%%%%%.%%%%%%%@.%%%%%%%%%@.%%%%%%%%%%",
"%%%%%%%%%%%%%%%%%%%%%%%%%.%%%%%%%%%%%%%%%@..%%%%%%%%@.%%%%%%%%%%",
"%%%%%%%%%%%%%%%%%%%%%%%%%.%%%%%%%%%%%%%%%%@@.%%%%%%%%.%%%%%%%%%%",
"%%%%%%%%%%%%%%%%%%%%%%%%%%%%%%%%%%%%%%%%%%%@.%%%%%%%%.%%%%%%%%%%",
"%%%%%%%%%%%%%%%%%%%%%%%%%%%%%%%%%%%%%%%%%%%%.%%%%%%%%%%%%%%%%%%%",
"%%%%%%%%%%%%%%%%%%%%%%%%%%%%%%%%%%%%%%%%%%%%.%%%%%%%%%%%%%%%%%%%",
"%%%%%%%%%%%%%%%%%%%%%%%%%%%%%%%%%%%%%%%%%%%%%%%%%%%%%%%%%%%%%%%%",
"%%%%%%%%%%%%%%%%%%%%%%%%%%%%%%%%%%%%%%%%%%%%%%%%%%%%%%%%%%%%%%%%",
"%%%%%%%%%%%%%%%%%%%%%%%%%%%%%%%%%%%%%%%%%%%%%%%%%%%%%%%%%%%%%%%%",
"%%%%%%%%%%%%%%%%%%%%%%%%%%%%%%%%%%%%%%%%%%%%%%%%%%%%%%%%%%%%%%%%",
"%%%%%%%%%%%%%%%%%%%%%%%%%%%%%%%%%%%%%%%%%%%%%%%%%%%%%%%%%%%%%%%%",
"%%%%%%%%%%%%%%%%%%%%%%%%%%%%%%%%%%%%%%%%%%%%%%%%%%%%%%%%%%%%%%%%",
"%%%%%%%%%%%%%%%%%%%%%%%%%%%%%%%%%%%%%%%%%%%%%%%%%%%%%%%%%%%%%%%%",
"%%%%%%%%%%%%%%%%%%%%%%%%%%%%%%%%%%%%%%%%%%%%%%%%%%%%%%%%%%%%%%%%",
"%%%%%%%%%%%%%%%%%%%%%%%%%%%%%%%%%%%%%%%%%%%%%%%%%%%%%%%%%%%%%%%%"
};
