/* XPM */
static char *cbea326341e14b1fb97a8fde159e4a4678tclW903OntbmIe[] = {
/* columns rows colors chars-per-pixel */
"64 64 7 1 ",
"  c None",
". c black",
"X c #794D00",
"o c #717171",
"O c #A46900",
"+ c LightGray",
"@ c white",
/* pixels */
"                                                                ",
"                                                                ",
"                                                                ",
"                                                                ",
"                                                                ",
"                                                                ",
"                                                                ",
"                                                                ",
"                                                                ",
"                                                                ",
"                                                                ",
"                                                                ",
"                                                                ",
"                                                                ",
"                                                                ",
"                                                                ",
"                                                                ",
"                                                                ",
"                                                                ",
"                                                                ",
"                                                                ",
"                                                                ",
"                                                                ",
"                                                                ",
"                                                                ",
"                                                                ",
"                                                                ",
"                                                                ",
"                                                                ",
"                                                                ",
"                                                                ",
"                                                                ",
"                                                                ",
"                                                                ",
"                                                                ",
"                                                                ",
"                                                                ",
"                                                                ",
"                                                                ",
"                                                                ",
"                                                                ",
"                                                                ",
"                                                                ",
"                                                                ",
"                                                                ",
"                                                                ",
"                                                                ",
"                                                                ",
"                                                                ",
"                                                                ",
"                                                                ",
"                                                                ",
"                                                                ",
"                           ..........                           ",
"                         ...oooooooo...                         ",
"                        ..++OXXOXOXOoo..                        ",
"                       ..+XOXXOXOXXXOXo..                       ",
"                       .o...OOXOXXOX...o.                       ",
"                      .oooo..........oo@o.                      ",
"                      .ooooooooooooooo+@o.                      ",
"                      .ooooooooooo++++@oo.                      ",
"                      ...oooooooo++@@oo...                      ",
"                        ...oooooooooo...                        ",
"                          ............                          "
};
