/* XPM */
static char *result[] = {
/* columns rows colors chars-per-pixel */
"64 64 13 1 ",
"  c #1D1C1A",
". c #37342F",
"X c #5D3E0F",
"o c #623F0B",
"O c #734808",
"+ c #734F19",
"@ c #8E5D15",
"# c #8F662A",
"$ c #C89852",
"% c #71F6FF",
"& c #C5FBFF",
"* c #DAFDFF",
"= c #E5FDFF",
/* pixels */
"%%&**%%%%%%%%%&&***&%%%%%%%%%%%%%%%%%%%%%%%%%%%%*=&&%%%%%%%&&%%%",
"%=*&**%%%%%%%**&=**&%%%%%%%%%%%%%&&&&%%%%%%%%%***&&%%%%%%%*&=%%%",
"%%==**%%%%%%%***&*=%%%%%%%%%%%%%&&**&&%%%%%%%%*==&*%%%%%%**=***%",
"%%%%%%%%%%%%%%%=**%%%%%%%%%%%%%%%**==*%%%%%%%%%=***%%%%%%&&&*%%%",
"%%%%%%%%%%%%%%%%%=%%%%%%%%%%%%%%%&=***=&%%%%%%%%%%%%%%%%%%%%%%%%",
"%%%$$%%%%%%%%%%%%%%%%%%%%%%%%%%%%%&%%=&%%%%%%%%%%%%%%%%%%%%$$%%%",
"%%$@+$%%%%%%%%%%%%%%%%%%%%%%%%%%%%%%%%%%%%%%%%%%%%%%%%%%%%$@+$%%",
"%%$@+$%%%%%%%%%%%%%%%%%%%%%%=%%%%%%%%%%%%%%%%%%%%%%%%%%%%%$@+$%%",
"%$@@++$%%%%%%%%%%%%%%%%%%%&&=&&&&%%%%%%%%%%%%%%%%%%%%%%%%$@@++$%",
"$#@@++X$%%%%%%%%%%%%%%%%&&&=&===&%%%%%%%%%%%%%%%&&***&%%$#@@++X$",
"##@@++XX%%%%%%%%%%%%%%%%&==          %%%%%%%%%%**&=**&%%##@@++XX",
"##@@++XX%%%%%%%%%%%%%%%%    ++ .. ++    %%%%%%%***&*=%%%##@@++XX",
"##@@++XX%%%%*=&&%%%%%%   +XX++ .. ++XX+   %%%%%%%=**%%%%##@@++XX",
"##@@++XX%%***&&%%%%%   @++XX++ .. ++XX++@   %%%%%%%=%%%%##@@++XX",
"##@@++XX%%*==&*%%%%  #@@++XX++ .. ++XX++@@#  %%%%%%%%%%%##@@++XX",
"##@@++XX%%%=***%%   ##@@++XX++ .. ++XX++@@##   %%%%%%%%%##@@++XX",
"##@@++XX%%%%%%%%  @@##@@++XX++ .. ++XX++@@##@@  %%%%%%%%##@@++XX",
"##@@++XX%%%%%%%  +@@##@@++XX++ .. ++XX++@@##@@+  %%%%%%%##@@++XX",
"##@@++XX%%%%%%  ++@@##@@++XX++ .. ++XX++@@##@@++  %%%%%%##@@++XX",
"##@@++XX%%%%%% X++@@##@@++XX++ .. ++XX++@@##@@++X %%%%%%##@@++XX",
"##@@++XX%%%%%  X++@@##@@++XX++ .. ++XX++@@##@@++X  %%%%&##@@++XX",
"##@Oo+XX**%%  XX++@@##@@++XX++ .. ++XX++@@##@@++XX  %&&&##@Oo+XX",
"##@oO+XX**%% +XX++@@##@@++XX++ .. ++XX++@@##@@++XX+ %***##@oO+XX",
"##@@++XX*%%  +XX++@@##@@++XX++ .. ++XX++@@##@@++XX+  ***##@@++XX",
"##@@++XX%%% ++XX++@@##@@++XX++ .. ++XX++@@##@@++XX++ %%%##@@++XX",
"##@@++XX%%  ++XX++@@##@@++XX++ .. ++XX++@@##@@++XX++  %%##@@++XX",
"##@@++XX%% @++XX++@@##@@++XX++ .. ++XX++@@##@@++XX++@ %%##@@++XX",
"##@@++XX%  @++XX++@@##@@++XX++ .. ++XX++@@##@@++XX++@  %##@@++XX",
"##@@++XX% @@++XX++@@##@@++XX++ .. ++XX++@@##@@++XX++@@ %##@@++XX",
"##@@++XX% @@++XX++@@##@@++XX++ .. ++XX++@@##@@++XX++@@ %##@@++XX",
"##@@++XX% @@++XX++@@##@@++XX++ .. ++XX++@@##@@++XX++@@ %##@@++XX",
"##@@++XX  @@++XX++@@##@@++XX++ .. ++XX++@@##@@++XX++@@  ##@@++XX",
"##@@++XX  @@++XX++@@##@@++XX++ .. ++XX++@@##@@++XX++@@  ##@@++XX",
"##@@++XX  @@++XX++@@##@@++XX++ .. ++XX++@@##@@++XX++@@  ##@@++XX",
"##@@++XX. @@++XX++@@##@@++XX++ .. ++XX++@@##@@++XX++@@ .##@@++XX",
"##@@++XX. @@++XX++@@##@@++XX++ .. ++XX++@@##@@++XX++@@ .##@@++XX",
"##@@++XX. @@++XX++@@##@@++XX++ .. ++XX++@@##@@++XX++@@ .##@@++XX",
"##@Oo+XX. @@++XX++@@##@@++XX++ .. ++XX++@@##@@++XX++@@ .##@Oo+XX",
"##@oO+XX. @@++XX++@@##@@++XX++ .. ++XX++@@##@@++XX++@@ .##@oO+XX",
"##@@++XX. @@++XX++@@##@@++XX++ .. ++XX++@@##@@++XX++@@ .##@@++XX",
"##@@++XX  @@++XX++@@##@@++XX++ .. ++XX++@@##@@++XX++@@  ##@@++XX",
"##@@++XX  @@++XX++@@##@@++XX++ .. ++XX++@@##@@++XX++@@  ##@@++XX",
"##@@++XX  @@++XX++@@##@@++XX++ .. ++XX++@@##@@++XX++@@  ##@@++XX",
"##@@++XX  @@++XX++@@##@@++XX++ .. ++XX++@@##@@++XX++@@  ##@@++XX",
"##@@++XX  @@++XX++@@##@@++XX++ .. ++XX++@@##@@++XX++@@  ##@@++XX",
"##@@++XX  @@++XX++@@##@@++XX++ .. ++XX++@@##@@++XX++@@  ##@@++XX",
"##@@++XX  @@++XX++@@##@@++XX++ .. ++XX++@@##@@++XX++@@  ##@@++XX",
"##@@++XX  @@++XX++@@##@@++XX++ .. ++XX++@@##@@++XX++@@  ##@@++XX",
"##@@++XX  @@++XX++@@##@@++XX++ .. ++XX++@@##@@++XX++@@  ##@@++XX",
"##@@++XX  @@++XX++@@##@@++XX++ .. ++XX++@@##@@++XX++@@  ##@@++XX",
"##@@++XX  @@++XX++@@##@@++XX++ .. ++XX++@@##@@++XX++@@  ##@@++XX",
"##@@++XX  @@++XX++@@##@@++XX++ .. ++XX++@@##@@++XX++@@  ##@@++XX",
"##@@++XX  @@++XX++@@##@@++XX++ .. ++XX++@@##@@++XX++@@  ##@@++XX",
"##@@++XX  @@++XX++@@##@@++XX++ .. ++XX++@@##@@++XX++@@  ##@@++XX",
"##@@++XX  @@++XX++@@##@@++XX++ .. ++XX++@@##@@++XX++@@  ##@@++XX",
"##@Oo+XX. @@++XX++@@##@@++XX++ .. ++XX++@@##@@++XX++@@ .##@Oo+XX",
"##@oO+XX. @@++XX++@@##@@++XX++ .. ++XX++@@##@@++XX++@@ .##@oO+XX",
"##@@++XX. @@++XX++@@##@@++XX++ .. ++XX++@@##@@++XX++@@ .##@@++XX",
"##@@++XX. @@++XX++@@##@@++XX++ .. ++XX++@@##@@++XX++@@ .##@@++XX",
"##@@++XX. @@++XX++@@##@@++XX++ .. ++XX++@@##@@++XX++@@ .##@@++XX",
"##@@++XX. @@++XX++@@##@@++XX++ .. ++XX++@@##@@++XX++@@ .##@@++XX",
"##@@++XX  @@++XX++@@##@@++XX++ .. ++XX++@@##@@++XX++@@  ##@@++XX",
"##@@++XX  @@++XX++@@##@@++XX++ .. ++XX++@@##@@++XX++@@  ##@@++XX",
"##@@++XX                       ..                       ##@@++XX"
};
