/* XPM */
static char *result[] = {
/* columns rows colors chars-per-pixel */
"64 64 9 1 ",
"  c #1D1C1A",
". c #37342F",
"X c #623F0B",
"o c #734808",
"O c #88570F",
"+ c #A2650B",
"@ c #C08125",
"# c #FFB242",
"$ c None",
/* pixels */
"$$$$$$$$$$$$$$$$$$$$$$$$$$$$$$$$$$$$$$$$$$$$$$$$$$$$$$$$$$$$$$$$",
"$$$$$$$$$$$$$$$$$$$$$$$$$$$$$$$$$$$$$$$$$$$$$$$$$$$$$$$$$$$$$$$$",
"$$$$$$$$$$$$$$$$$$$$$$$$$$$$$$$$$$$$$$$$$$$$$$$$$$$$$$$$$$$$$$$$",
"$$$$$$$$$$$$$$$$$$$$$$$$$$$$$$$$$$$$$$$$$$$$$$$$$$$$$$$$$$$$$$$$",
"$$$$$$$$$$$$$$$$$$$$$$$$$$$$$$$$$$$$$$$$$$$$$$$$$$$$$$$$$$$$$$$$",
"$$$##$$$$$$$$$$$$$$$$$$$$$$$$$$$$$$$$$$$$$$$$$$$$$$$$$$$$$$##$$$",
"$$#+O#$$$$$$$$$$$$$$$$$$$$$$$$$$$$$$$$$$$$$$$$$$$$$$$$$$$$#+O#$$",
"$$#+O#$$$$$$$$$$$$$$$$$$$$$$$$$$$$$$$$$$$$$$$$$$$$$$$$$$$$#+O#$$",
"$#++OO#$$$$$$$$$$$$$$$$$$$$$$$$$$$$$$$$$$$$$$$$$$$$$$$$$$#++OO#$",
"#@++OOo#$$$$$$$$$$$$$$$$$$$$$$$$$$$$$$$$$$$$$$$$$$$$$$$$#@++OOo#",
"@@++OOoo$$$$$$$$$$$  $$$$$$$$$$$$$$$$$$$$$$  $$$$$$$$$$$@@++OOoo",
"@@++OOoo$$$$$$$$$$ + $$$$$$$$$$$$$$$$$$$$$$ + $$$$$$$$$$@@++OOoo",
"@@++OOoo$$$$$$$$$ ++ $$$$$$$$$$$$$$$$$$$$$$ ++ $$$$$$$$$@@++OOoo",
"@@++OOoo$$$$$$$$ O++ $$$$$$$$$$$$$$$$$$$$$$ ++O $$$$$$$$@@++OOoo",
"@@++OOoo$$$$$$$ OO++ $$$$$$$$$$$$$$$$$$$$$$ ++OO $$$$$$$@@++OOoo",
"@@++OOoo$$$$$$ oOO++ $$$$$$$$$$$$$$$$$$$$$$ ++OOo $$$$$$@@++OOoo",
"@@++OOoo$$$$$ ooOO++ $$$$$$$$$$$$$$$$$$$$$$ ++OOoo $$$$$@@++OOoo",
"@@++OOoo$$$$$ ooOO++ $$$$$$$$$$$$$$$$$$$$$$ ++OOoo $$$$$@@++OOoo",
"@@++OOoo$$$$ OooOO++ $$$$$$$$$$$$$$$$$$$$$$ ++OOooO $$$$@@++OOoo",
"@@++OOoo$$$$ OooOO++ $$$$$$$$$$$$$$$$$$$$$$ ++OOooO $$$$@@++OOoo",
"@@++OOoo$$$ OOooOO++ $$$$$$$$$$$$$$$$$$$$$$ ++OOooOO $$$@@++OOoo",
"@@+oXOoo$$$ OOooOO++ $$$$$$$$$$$$$$$$$$$$$$ ++OOooOO $$$@@+oXOoo",
"@@+XoOoo$$$ OOooOO++ $$$$$$$$$$$$$$$$$$$$$$ ++OOooOO $$$@@+XoOoo",
"@@++OOoo$$$ OOooOO++ $$$$$$$$$$$$$$$$$$$$$$ ++OOooOO $$$@@++OOoo",
"@@++OOoo$$$ OOooOO++ $$$$$$$$$$$$$$$$$$$$$$ ++OOooOO $$$@@++OOoo",
"@@++OOoo$$  OOooOO++ $$$$$$$$$$$$$$$$$$$$$$ ++OOooOO  $$@@++OOoo",
"@@++OOoo$$ +OOooOO++ $$$$$$$$$$$$$$$$$$$$$$ ++OOooOO+ $$@@++OOoo",
"@@++OOoo$  +OOooOO++ $$$$$$$$$$$$$$$$$$$$$$ ++OOooOO+  $@@++OOoo",
"@@++OOoo$ ++OOooOO++ $$$$$$$$$$$$$$$$$$$$$$ ++OOooOO++ $@@++OOoo",
"@@++OOoo$ ++OOooOO++ $$$$$$$$$$$$$$$$$$$$$$ ++OOooOO++ $@@++OOoo",
"@@++OOoo$ ++OOooOO++ $$$$$$$$$$$$$$$$$$$$$$ ++OOooOO++ $@@++OOoo",
"@@++OOoo  ++OOooOO++ $$$$$$$$$$$$$$$$$$$$$$ ++OOooOO++  @@++OOoo",
"@@++OOoo  ++OOooOO++ $$$$$$$$$$$$$$$$$$$$$$ ++OOooOO++  @@++OOoo",
"@@++OOoo  ++OOooOO++ $$$$$$$$$$$$$$$$$$$$$$ ++OOooOO++  @@++OOoo",
"@@++OOoo. ++OOooOO++ $$$$$$$$$$$$$$$$$$$$$$ ++OOooOO++ .@@++OOoo",
"@@++OOoo. ++OOooOO++ $$$$$$$$$$$$$$$$$$$$$$ ++OOooOO++ .@@++OOoo",
"@@++OOoo. ++OOooOO++ $$$$$$$$$$$$$$$$$$$$$$ ++OOooOO++ .@@++OOoo",
"@@+oXOoo. ++OOooOO++ $$$$$$$$$$$$$$$$$$$$$$ ++OOooOO++ .@@+oXOoo",
"@@+XoOoo. ++OOooOO++ $$$$$$$$$$$$$$$$$$$$$$ ++OOooOO++ .@@+XoOoo",
"@@++OOoo. ++OOooOO++ $$$$$$$$$$$$$$$$$$$$$$ ++OOooOO++ .@@++OOoo",
"@@++OOoo  ++OOooOO++ $$$$$$$$$$$$$$$$$$$$$$ ++OOooOO++  @@++OOoo",
"@@++OOoo  ++OOooOO++ $$$$$$$$$$$$$$$$$$$$$$ ++OOooOO++  @@++OOoo",
"@@++OOoo  ++OOooOO++ $$$$$$$$$$$$$$$$$$$$$$ ++OOooOO++  @@++OOoo",
"@@++OOoo  ++OOooOO++ $$$$$$$$$$$$$$$$$$$$$$ ++OOooOO++  @@++OOoo",
"@@++OOoo  ++OOooOO++ $$$$$$$$$$$$$$$$$$$$$$ ++OOooOO++  @@++OOoo",
"@@++OOoo  ++OOooOO++ $$$$$$$$$$$$$$$$$$$$$$ ++OOooOO++  @@++OOoo",
"@@++OOoo  ++OOooOO++ $$$$$$$$$$$$$$$$$$$$$$ ++OOooOO++  @@++OOoo",
"@@++OOoo  ++OOooOO++ $$$$$$$$$$$$$$$$$$$$$$ ++OOooOO++  @@++OOoo",
"@@++OOoo  ++OOooOO++ $$$$$$$$$$$$$$$$$$$$$$ ++OOooOO++  @@++OOoo",
"@@++OOoo  ++OOooOO++ $$$$$$$$$$$$$$$$$$$$$$ ++OOooOO++  @@++OOoo",
"@@++OOoo  ++OOooOO++ $$$$$$$$$$$$$$$$$$$$$$ ++OOooOO++  @@++OOoo",
"@@++OOoo  ++OOooOO++ $$$$$$$$$$$$$$$$$$$$$$ ++OOooOO++  @@++OOoo",
"@@++OOoo  ++OOooOO++ $$$$$$$$$$$$$$$$$$$$$$ ++OOooOO++  @@++OOoo",
"@@++OOoo  ++OOooOO++ $$$$$$$$$$$$$$$$$$$$$$ ++OOooOO++  @@++OOoo",
"@@++OOoo  ++OOooOO++ $$$$$$$$$$$$$$$$$$$$$$ ++OOooOO++  @@++OOoo",
"@@+oXOoo. ++OOooOO++ $$$$$$$$$$$$$$$$$$$$$$ ++OOooOO++ .@@+oXOoo",
"@@+XoOoo. ++OOooOO++ $$$$$$$$$$$$$$$$$$$$$$ ++OOooOO++ .@@+XoOoo",
"@@++OOoo. ++OOooOO++ $$$$$$$$$$$$$$$$$$$$$$ ++OOooOO++ .@@++OOoo",
"@@++OOoo. ++OOooOO++ $$$$$$$$$$$$$$$$$$$$$$ ++OOooOO++ .@@++OOoo",
"@@++OOoo. ++OOooOO++ $$$$$$$$$$$$$$$$$$$$$$ ++OOooOO++ .@@++OOoo",
"@@++OOoo. ++OOooOO++ $$$$$$$$$$$$$$$$$$$$$$ ++OOooOO++ .@@++OOoo",
"@@++OOoo  ++OOooOO++ $$$$$$$$$$$$$$$$$$$$$$ ++OOooOO++  @@++OOoo",
"@@++OOoo  ++OOooOO++ $$$$$$$$$$$$$$$$$$$$$$ ++OOooOO++  @@++OOoo",
"@@++OOoo             $$$$$$$$$$$$$$$$$$$$$$             @@++OOoo"
};
