/* XPM */
static char *result[] = {
/* columns rows colors chars-per-pixel */
"64 64 10 1 ",
"  c #1D1C1A",
". c #37342F",
"X c #5D3E0F",
"o c #623F0B",
"O c #734808",
"+ c #734F19",
"@ c #8E5D15",
"# c #8F662A",
"$ c #C89852",
"% c None",
/* pixels */
"%%%%%%%%%%%%%%%%%%%%%%%%%%%%%%%%%%%%%%%%%%%%%%%%%%%%%%%%%%%%%%%%",
"%%%%%%%%%%%%%%%%%%%%%%%%%%%%%%%%%%%%%%%%%%%%%%%%%%%%%%%%%%%%%%%%",
"%%%%%%%%%%%%%%%%%%%%%%%%%%%%%%%%%%%%%%%%%%%%%%%%%%%%%%%%%%%%%%%%",
"%%%%%%%%%%%%%%%%%%%%%%%%%%%%%%%%%%%%%%%%%%%%%%%%%%%%%%%%%%%%%%%%",
"%%%%%%%%%%%%%%%%%%%%%%%%%%%%%%%%%%%%%%%%%%%%%%%%%%%%%%%%%%%%%%%%",
"%%%$$%%%%%%%%%%%%%%%%%%%%%%%%%%%%%%%%%%%%%%%%%%%%%%%%%%%%%%$$%%%",
"%%$@+$%%%%%%%%%%%%%%%%%%%%%%%%%%%%%%%%%%%%%%%%%%%%%%%%%%%%$@X$%%",
"%%$@+$%%%%%%%%%%%%%%%%%%%%%%%%%%%%%%%%%%%%%%%%%%%%%%%%%%%%$@X$%%",
"%$@@++$%%%%%%%%%%%%%%%%%%%%%%%%%%%%%%%%%%%%%%%%%%%%%%%%%%$@@XX$%",
"$#@@++X$%%%%%%%%%%%%%%%%%%%%%%%%%%%%%%%%%%%%%%%%%%%%%%%%$#@@XXO$",
"##@@++XX%%%%%%%%%%%  %%%%%%%%%%%%%%%%%%%%%%  %%%%%%%%%%%##@@XXOO",
"##@@++XX%%%%%%%%%% @ %%%%%%%%%%%%%%%%%%%%%% @ %%%%%%%%%%##@@XXOO",
"##@@++XX%%%%%%%%% @@ %%%%%%%%%%%%%%%%%%%%%% @@ %%%%%%%%%##@@XXOO",
"##@@++XX%%%%%%%% +@@ %%%%%%%%%%%%%%%%%%%%%% @@+ %%%%%%%%##@@XXOO",
"##@@++XX%%%%%%% ++@@ %%%%%%%%%%%%%%%%%%%%%% @@++ %%%%%%%##@@XXOO",
"##@@++XX%%%%%% X++@@ %%%%%%%%%%%%%%%%%%%%%% @@++X %%%%%%##@@XXOO",
"##@@++XX%%%%% XX++@@ %%%%%%%%%%%%%%%%%%%%%% @@++XX %%%%%##@@XXOO",
"##@@++XX%%%%% XX++@@ %%%%%%%%%%%%%%%%%%%%%% @@++XX %%%%%##@@XXOO",
"##@@++XX%%%% +XX++@@ %%%%%%%%%%%%%%%%%%%%%% @@++XX+ %%%%##@@XXOO",
"##@@++XX%%%% +XX++@@ %%%%%%%%%%%%%%%%%%%%%% @@++XX+ %%%%##@@XXOO",
"##@@++XX%%% ++XX++@@ %%%%%%%%%%%%%%%%%%%%%% @@++XX++ %%%##@@XXOO",
"##@Oo+XX%%% ++XX++@@ %%%%%%%%%%%%%%%%%%%%%% @@++XX++ %%%##@OoXOO",
"##@oO+XX%%% ++XX++@@ %%%%%%%%%%%%%%%%%%%%%% @@++XX++ %%%##@oOXOO",
"##@@++XX%%% ++XX++@@ %%%%%%%%%%%%%%%%%%%%%% @@++XX++ %%%##@@XXOO",
"##@@++XX%%% ++XX++@@ %%%%%%%%%%%%%%%%%%%%%% @@++XX++ %%%##@@XXOO",
"##@@++XX%%  ++XX++@@ %%%%%%%%%%%%%%%%%%%%%% @@++XX++  %%##@@XXOO",
"##@@++XX%% @++XX++@@ %%%%%%%%%%%%%%%%%%%%%% @@++XX++@ %%##@@XXOO",
"##@@++XX%  @++XX++@@ %%%%%%%%%%%%%%%%%%%%%% @@++XX++@  %##@@XXOO",
"##@@++XX% @@++XX++@@ %%%%%%%%%%%%%%%%%%%%%% @@++XX++@@ %##@@XXOO",
"##@@++XX% @@++XX++@@ %%%%%%%%%%%%%%%%%%%%%% @@++XX++@@ %##@@XXOO",
"##@@++XX% @@++XX++@@ %%%%%%%%%%%%%%%%%%%%%% @@++XX++@@ %##@@XXOO",
"##@@++XX  @@++XX++@@ %%%%%%%%%%%%%%%%%%%%%% @@++XX++@@  ##@@XXOO",
"##@@++XX  @@++XX++@@ %%%%%%%%%%%%%%%%%%%%%% @@++XX++@@  ##@@XXOO",
"##@@++XX  @@++XX++@@ %%%%%%%%%%%%%%%%%%%%%% @@++XX++@@  ##@@XXOO",
"##@@++XX. @@++XX++@@ %%%%%%%%%%%%%%%%%%%%%% @@++XX++@@ .##@@XXOO",
"##@@++XX. @@++XX++@@ %%%%%%%%%%%%%%%%%%%%%% @@++XX++@@ .##@@XXOO",
"##@@++XX. @@++XX++@@ %%%%%%%%%%%%%%%%%%%%%% @@++XX++@@ .##@@XXOO",
"##@Oo+XX. @@++XX++@@ %%%%%%%%%%%%%%%%%%%%%% @@++XX++@@ .##@OoXOO",
"##@oO+XX. @@++XX++@@ %%%%%%%%%%%%%%%%%%%%%% @@++XX++@@ .##@oOXOO",
"##@@++XX. @@++XX++@@ %%%%%%%%%%%%%%%%%%%%%% @@++XX++@@ .##@@XXOO",
"##@@++XX  @@++XX++@@ %%%%%%%%%%%%%%%%%%%%%% @@++XX++@@  ##@@XXOO",
"##@@++XX  @@++XX++@@ %%%%%%%%%%%%%%%%%%%%%% @@++XX++@@  ##@@XXOO",
"##@@++XX  @@++XX++@@ %%%%%%%%%%%%%%%%%%%%%% @@++XX++@@  ##@@XXOO",
"##@@++XX  @@++XX++@@ %%%%%%%%%%%%%%%%%%%%%% @@++XX++@@  ##@@XXOO",
"##@@++XX  @@++XX++@@ %%%%%%%%%%%%%%%%%%%%%% @@++XX++@@  ##@@XXOO",
"##@@++XX  @@++XX++@@ %%%%%%%%%%%%%%%%%%%%%% @@++XX++@@  ##@@XXOO",
"##@@++XX  @@++XX++@@ %%%%%%%%%%%%%%%%%%%%%% @@++XX++@@  ##@@XXOO",
"##@@++XX  @@++XX++@@ %%%%%%%%%%%%%%%%%%%%%% @@++XX++@@  ##@@XXOO",
"##@@++XX  @@++XX++@@ %%%%%%%%%%%%%%%%%%%%%% @@++XX++@@  ##@@XXOO",
"##@@++XX  @@++XX++@@ %%%%%%%%%%%%%%%%%%%%%% @@++XX++@@  ##@@XXOO",
"##@@++XX  @@++XX++@@ %%%%%%%%%%%%%%%%%%%%%% @@++XX++@@  ##@@XXOO",
"##@@++XX  @@++XX++@@ %%%%%%%%%%%%%%%%%%%%%% @@++XX++@@  ##@@XXOO",
"##@@++XX  @@++XX++@@ %%%%%%%%%%%%%%%%%%%%%% @@++XX++@@  ##@@XXOO",
"##@@++XX  @@++XX++@@ %%%%%%%%%%%%%%%%%%%%%% @@++XX++@@  ##@@XXOO",
"##@@++XX  @@++XX++@@ %%%%%%%%%%%%%%%%%%%%%% @@++XX++@@  ##@@XXOO",
"##@Oo+XX. @@++XX++@@ %%%%%%%%%%%%%%%%%%%%%% @@++XX++@@ .##@OoXOO",
"##@oO+XX. @@++XX++@@ %%%%%%%%%%%%%%%%%%%%%% @@++XX++@@ .##@oOXOO",
"##@@++XX. @@++XX++@@ %%%%%%%%%%%%%%%%%%%%%% @@++XX++@@ .##@@XXOO",
"##@@++XX. @@++XX++@@ %%%%%%%%%%%%%%%%%%%%%% @@++XX++@@ .##@@XXOO",
"##@@++XX. @@++XX++@@ %%%%%%%%%%%%%%%%%%%%%% @@++XX++@@ .##@@XXOO",
"##@@++XX. @@++XX++@@ %%%%%%%%%%%%%%%%%%%%%% @@++XX++@@ .##@@XXOO",
"##@@++XX  @@++XX++@@ %%%%%%%%%%%%%%%%%%%%%% @@++XX++@@  ##@@XXOO",
"##@@++XX  @@++XX++@@ %%%%%%%%%%%%%%%%%%%%%% @@++XX++@@  ##@@XXOO",
"##@@++XX             %%%%%%%%%%%%%%%%%%%%%%             ##@@XXOO"
};
