/* XPM */
static char *result[] = {
/* columns rows colors chars-per-pixel */
"64 64 9 1 ",
"  c #1D1C1A",
". c #37342F",
"X c #623F0B",
"o c #734808",
"O c #88570F",
"+ c #A2650B",
"@ c #C08125",
"# c #FFB242",
"$ c #71F6FF",
/* pixels */
"$$$$$$$$$$$$$$$$$$$$$$$$$$$$$$$$$$$$$$$$$$$$$$$$$$$$$$$$$$$$$$$$",
"$$$$$$$$$$$$$$$$$$$$$$$$$$$$$$$$$$$$$$$$$$$$$$$$$$$$$$$$$$$$$$$$",
"$$$$$$$$$$$$$$$$$$$$$$$$$$$$$$$$$$$$$$$$$$$$$$$$$$$$$$$$$$$$$$$$",
"$$$$$$$$$$$$$$$$$$$$$$$$$$$$$$$$$$$$$$$$$$$$$$$$$$$$$$$$$$$$$$$$",
"$$$$$$$$$$$$$$$$$$$$$$$$$$$$$$$$$$$$$$$$$$$$$$$$$$$$$$$$$$$$$$$$",
"$$$##$$$$$$$$$$$$$$$$$$$$$$$$$$$$$$$$$$$$$$$$$$$$$$$$$$$$$$##$$$",
"$$#+O#$$$$$$$$$$$$$$$$$$$$$$$$$$$$$$$$$$$$$$$$$$$$$$$$$$$$#+O#$$",
"$$#+O#$$$$$$$$$$$$$$$$$$$$$$$$$$$$$$$$$$$$$$$$$$$$$$$$$$$$#+O#$$",
"$#++OO#$$$$$$$$$$$$$$$$$$$$$$$$$$$$$$$$$$$$$$$$$$$$$$$$$$#++OO#$",
"#@++OOo#$$$$$$$$$$$$$$$$$$$$$$$$$$$$$$$$$$$$$$$$$$$$$$$$#@++OOo#",
"@@++OOoo$$$$$$$$$$$$$$$$$$$          $$$$$$$$$$$$$$$$$$$@@++OOoo",
"@@++OOoo$$$$$$$$$$$$$$$$    OO .. OO    $$$$$$$$$$$$$$$$@@++OOoo",
"@@++OOoo$$$$$$$$$$$$$$   OooOO .. OOooO   $$$$$$$$$$$$$$@@++OOoo",
"@@++OOoo$$$$$$$$$$$$   +OOooOO .. OOooOO+   $$$$$$$$$$$$@@++OOoo",
"@@++OOoo$$$$$$$$$$$  @++OOooOO .. OOooOO++@  $$$$$$$$$$$@@++OOoo",
"@@++OOoo$$$$$$$$$   @@++OOooOO .. OOooOO++@@   $$$$$$$$$@@++OOoo",
"@@++OOoo$$$$$$$$  ++@@++OOooOO .. OOooOO++@@++  $$$$$$$$@@++OOoo",
"@@++OOoo$$$$$$$  O++@@++OOooOO .. OOooOO++@@++O  $$$$$$$@@++OOoo",
"@@++OOoo$$$$$$  OO++@@++OOooOO .. OOooOO++@@++OO  $$$$$$@@++OOoo",
"@@++OOoo$$$$$$ oOO++@@++OOooOO .. OOooOO++@@++OOo $$$$$$@@++OOoo",
"@@++OOoo$$$$$  oOO++@@++OOooOO .. OOooOO++@@++OOo  $$$$$@@++OOoo",
"@@+oXOoo$$$$  ooOO++@@++OOooOO .. OOooOO++@@++OOoo  $$$$@@+oXOoo",
"@@+XoOoo$$$$ OooOO++@@++OOooOO .. OOooOO++@@++OOooO $$$$@@+XoOoo",
"@@++OOoo$$$  OooOO++@@++OOooOO .. OOooOO++@@++OOooO  $$$@@++OOoo",
"@@++OOoo$$$ OOooOO++@@++OOooOO .. OOooOO++@@++OOooOO $$$@@++OOoo",
"@@++OOoo$$  OOooOO++@@++OOooOO .. OOooOO++@@++OOooOO  $$@@++OOoo",
"@@++OOoo$$ +OOooOO++@@++OOooOO .. OOooOO++@@++OOooOO+ $$@@++OOoo",
"@@++OOoo$  +OOooOO++@@++OOooOO .. OOooOO++@@++OOooOO+  $@@++OOoo",
"@@++OOoo$ ++OOooOO++@@++OOooOO .. OOooOO++@@++OOooOO++ $@@++OOoo",
"@@++OOoo$ ++OOooOO++@@++OOooOO .. OOooOO++@@++OOooOO++ $@@++OOoo",
"@@++OOoo$ ++OOooOO++@@++OOooOO .. OOooOO++@@++OOooOO++ $@@++OOoo",
"@@++OOoo  ++OOooOO++@@++OOooOO .. OOooOO++@@++OOooOO++  @@++OOoo",
"@@++OOoo  ++OOooOO++@@++OOooOO .. OOooOO++@@++OOooOO++  @@++OOoo",
"@@++OOoo  ++OOooOO++@@++OOooOO .. OOooOO++@@++OOooOO++  @@++OOoo",
"@@++OOoo. ++OOooOO++@@++OOooOO .. OOooOO++@@++OOooOO++ .@@++OOoo",
"@@++OOoo. ++OOooOO++@@++OOooOO .. OOooOO++@@++OOooOO++ .@@++OOoo",
"@@++OOoo. ++OOooOO++@@++OOooOO .. OOooOO++@@++OOooOO++ .@@++OOoo",
"@@+oXOoo. ++OOooOO++@@++OOooOO .. OOooOO++@@++OOooOO++ .@@+oXOoo",
"@@+XoOoo. ++OOooOO++@@++OOooOO .. OOooOO++@@++OOooOO++ .@@+XoOoo",
"@@++OOoo. ++OOooOO++@@++OOooOO .. OOooOO++@@++OOooOO++ .@@++OOoo",
"@@++OOoo  ++OOooOO++@@++OOooOO .. OOooOO++@@++OOooOO++  @@++OOoo",
"@@++OOoo  ++OOooOO++@@++OOooOO .. OOooOO++@@++OOooOO++  @@++OOoo",
"@@++OOoo  ++OOooOO++@@++OOooOO .. OOooOO++@@++OOooOO++  @@++OOoo",
"@@++OOoo  ++OOooOO++@@++OOooOO .. OOooOO++@@++OOooOO++  @@++OOoo",
"@@++OOoo  ++OOooOO++@@++OOooOO .. OOooOO++@@++OOooOO++  @@++OOoo",
"@@++OOoo  ++OOooOO++@@++OOooOO .. OOooOO++@@++OOooOO++  @@++OOoo",
"@@++OOoo  ++OOooOO++@@++OOooOO .. OOooOO++@@++OOooOO++  @@++OOoo",
"@@++OOoo  ++OOooOO++@@++OOooOO .. OOooOO++@@++OOooOO++  @@++OOoo",
"@@++OOoo  ++OOooOO++@@++OOooOO .. OOooOO++@@++OOooOO++  @@++OOoo",
"@@++OOoo  ++OOooOO++@@++OOooOO .. OOooOO++@@++OOooOO++  @@++OOoo",
"@@++OOoo  ++OOooOO++@@++OOooOO .. OOooOO++@@++OOooOO++  @@++OOoo",
"@@++OOoo  ++OOooOO++@@++OOooOO .. OOooOO++@@++OOooOO++  @@++OOoo",
"@@++OOoo  ++OOooOO++@@++OOooOO .. OOooOO++@@++OOooOO++  @@++OOoo",
"@@++OOoo  ++OOooOO++@@++OOooOO .. OOooOO++@@++OOooOO++  @@++OOoo",
"@@++OOoo  ++OOooOO++@@++OOooOO .. OOooOO++@@++OOooOO++  @@++OOoo",
"@@+oXOoo. ++OOooOO++@@++OOooOO .. OOooOO++@@++OOooOO++ .@@+oXOoo",
"@@+XoOoo. ++OOooOO++@@++OOooOO .. OOooOO++@@++OOooOO++ .@@+XoOoo",
"@@++OOoo. ++OOooOO++@@++OOooOO .. OOooOO++@@++OOooOO++ .@@++OOoo",
"@@++OOoo. ++OOooOO++@@++OOooOO .. OOooOO++@@++OOooOO++ .@@++OOoo",
"@@++OOoo. ++OOooOO++@@++OOooOO .. OOooOO++@@++OOooOO++ .@@++OOoo",
"@@++OOoo. ++OOooOO++@@++OOooOO .. OOooOO++@@++OOooOO++ .@@++OOoo",
"@@++OOoo  ++OOooOO++@@++OOooOO .. OOooOO++@@++OOooOO++  @@++OOoo",
"@@++OOoo  ++OOooOO++@@++OOooOO .. OOooOO++@@++OOooOO++  @@++OOoo",
"@@++OOoo                       ..                       @@++OOoo"
};
