/* XPM */
static char *result[] = {
/* columns rows colors chars-per-pixel */
"64 64 7 1 ",
"  c #173F06",
". c #1B430A",
"X c #185000",
"o c #287506",
"O c #36B300",
"+ c #3CC401",
"@ c #44D505",
/* pixels */
" X+oooX+o@oo+.OX X+oooX+o@oo+.OX X+oooX+o@oo+.OX X+oooX+o@oo+.OX",
"o.+oO.o+X.@ +oXoo.+oO.o+X.@ +oXoo.+oO.o+X.@ +oXoo.+oO.o+X.@ +oXo",
"o+oo.X@o+o.+o..Xo+oo.X@o+o.+o..Xo+oo.X@o+o.+o..Xo+oo.X@o+o.+o..X",
".+oo.oXo oo @ .@.+oo.oXo oo @ .@.+oo.oXo oo @ .@.+oo.oXo oo @ .@",
"X.o@X+o.X+o.oo.oX.o@X+o.X+o.oo.oX.o@X+o.X+o.oo.oX.o@X+o.X+o.oo.o",
"o..oo+oX.@+ .o++o..oo+oX.@+ .o++o..oo+oX.@+ .o++o..oo+oX.@+ .o++",
"@oX.+.@o.o+o.+oX@oX.+.@o.o+o.+oX@oX.+.@o.o+o.+oX@oX.+.@o.o+o.+oX",
"oOo +oXoXo@oo+o.oOo +oXoXo@oo+o.oOo +oXoXo@oo+o.oOo +oXoXo@oo+o.",
"Xo@oXXo+oXo.o+.@Xo@oXXo+oXo.o+.@Xo@oXXo+oXo.o+.@Xo@oXXo+oXo.o+.@",
"o.oXo.+o. +o.Xooo.oXo.+o. +o.Xooo.oXo.+o. +o.Xooo.oXo.+o. +o.Xoo",
"o+.o.o+Xo+o+oXoOo+.o.o+Xo+o+oXoOo+.o.o+Xo+o+oXoOo+.o.o+Xo+o+oXoO",
"Xo+o.X+o.o +.o.XXo+o.X+o.o +.o.XXo+o.X+o.o +.o.XXo+o.X+o.o +.o.X",
"oX+o.oo@X.o+oX .oX+o.oo@X.o+oX .oX+o.oo@X.o+oX .oX+o.oo@X.o+oX .",
".oo@X@.oo.Xo.oo..oo@X@.oo.Xo.oo..oo@X@.oo.Xo.oo..oo@X@.oo.Xo.oo.",
"o.oX@.o++.oX.++.o.oX@.o++.oX.++.o.oX@.o++.oX.++.o.oX@.o++.oX.++.",
"o.++oo+.XXo@.o+oo.++oo+.XXo@.o+oo.++oo+.XXo@.o+oo.++oo+.XXo@.o+o",
" X+oooX+o@oo+.OX X+oooX+o@oo+.OX X+oooX+o@oo+.OX X+oooX+o@oo+.OX",
"o.+oO.o+X.@ +oXoo.+oO.o+X.@ +oXoo.+oO.o+X.@ +oXoo.+oO.o+X.@ +oXo",
"o+oo.X@o+o.+o..Xo+oo.X@o+o.+o..Xo+oo.X@o+o.+o..Xo+oo.X@o+o.+o..X",
".+oo.oXo oo @ .@.+oo.oXo oo @ .@.+oo.oXo oo @ .@.+oo.oXo oo @ .@",
"X.o@X+o.X+o.oo.oX.o@X+o.X+o.oo.oX.o@X+o.X+o.oo.oX.o@X+o.X+o.oo.o",
"o..oo+oX.@+ .o++o..oo+oX.@+ .o++o..oo+oX.@+ .o++o..oo+oX.@+ .o++",
"@oX.+.@o.o+o.+oX@oX.+.@o.o+o.+oX@oX.+.@o.o+o.+oX@oX.+.@o.o+o.+oX",
"oOo +oXoXo@oo+o.oOo +oXoXo@oo+o.oOo +oXoXo@oo+o.oOo +oXoXo@oo+o.",
"Xo@oXXo+oXo.o+.@Xo@oXXo+oXo.o+.@Xo@oXXo+oXo.o+.@Xo@oXXo+oXo.o+.@",
"o.oXo.+o. +o.Xooo.oXo.+o. +o.Xooo.oXo.+o. +o.Xooo.oXo.+o. +o.Xoo",
"o+.o.o+Xo+o+oXoOo+.o.o+Xo+o+oXoOo+.o.o+Xo+o+oXoOo+.o.o+Xo+o+oXoO",
"Xo+o.X+o.o +.o.XXo+o.X+o.o +.o.XXo+o.X+o.o +.o.XXo+o.X+o.o +.o.X",
"oX+o.oo@X.o+oX .oX+o.oo@X.o+oX .oX+o.oo@X.o+oX .oX+o.oo@X.o+oX .",
".oo@X@.oo.Xo.oo..oo@X@.oo.Xo.oo..oo@X@.oo.Xo.oo..oo@X@.oo.Xo.oo.",
"o.oX@.o++.oX.++.o.oX@.o++.oX.++.o.oX@.o++.oX.++.o.oX@.o++.oX.++.",
"o.++oo+.XXo@.o+oo.++oo+.XXo@.o+oo.++oo+.XXo@.o+oo.++oo+.XXo@.o+o",
" X+oooX+o@oo+.OX X+oooX+o@oo+.OX X+oooX+o@oo+.OX X+oooX+o@oo+.OX",
"o.+oO.o+X.@ +oXoo.+oO.o+X.@ +oXoo.+oO.o+X.@ +oXoo.+oO.o+X.@ +oXo",
"o+oo.X@o+o.+o..Xo+oo.X@o+o.+o..Xo+oo.X@o+o.+o..Xo+oo.X@o+o.+o..X",
".+oo.oXo oo @ .@.+oo.oXo oo @ .@.+oo.oXo oo @ .@.+oo.oXo oo @ .@",
"X.o@X+o.X+o.oo.oX.o@X+o.X+o.oo.oX.o@X+o.X+o.oo.oX.o@X+o.X+o.oo.o",
"o..oo+oX.@+ .o++o..oo+oX.@+ .o++o..oo+oX.@+ .o++o..oo+oX.@+ .o++",
"@oX.+.@o.o+o.+oX@oX.+.@o.o+o.+oX@oX.+.@o.o+o.+oX@oX.+.@o.o+o.+oX",
"oOo +oXoXo@oo+o.oOo +oXoXo@oo+o.oOo +oXoXo@oo+o.oOo +oXoXo@oo+o.",
"Xo@oXXo+oXo.o+.@Xo@oXXo+oXo.o+.@Xo@oXXo+oXo.o+.@Xo@oXXo+oXo.o+.@",
"o.oXo.+o. +o.Xooo.oXo.+o. +o.Xooo.oXo.+o. +o.Xooo.oXo.+o. +o.Xoo",
"o+.o.o+Xo+o+oXoOo+.o.o+Xo+o+oXoOo+.o.o+Xo+o+oXoOo+.o.o+Xo+o+oXoO",
"Xo+o.X+o.o +.o.XXo+o.X+o.o +.o.XXo+o.X+o.o +.o.XXo+o.X+o.o +.o.X",
"oX+o.oo@X.o+oX .oX+o.oo@X.o+oX .oX+o.oo@X.o+oX .oX+o.oo@X.o+oX .",
".oo@X@.oo.Xo.oo..oo@X@.oo.Xo.oo..oo@X@.oo.Xo.oo..oo@X@.oo.Xo.oo.",
"o.oX@.o++.oX.++.o.oX@.o++.oX.++.o.oX@.o++.oX.++.o.oX@.o++.oX.++.",
"o.++oo+.XXo@.o+oo.++oo+.XXo@.o+oo.++oo+.XXo@.o+oo.++oo+.XXo@.o+o",
" X+oooX+o@oo+.OX X+oooX+o@oo+.OX X+oooX+o@oo+.OX X+oooX+o@oo+.OX",
"o.+oO.o+X.@ +oXoo.+oO.o+X.@ +oXoo.+oO.o+X.@ +oXoo.+oO.o+X.@ +oXo",
"o+oo.X@o+o.+o..Xo+oo.X@o+o.+o..Xo+oo.X@o+o.+o..Xo+oo.X@o+o.+o..X",
".+oo.oXo oo @ .@.+oo.oXo oo @ .@.+oo.oXo oo @ .@.+oo.oXo oo @ .@",
"X.o@X+o.X+o.oo.oX.o@X+o.X+o.oo.oX.o@X+o.X+o.oo.oX.o@X+o.X+o.oo.o",
"o..oo+oX.@+ .o++o..oo+oX.@+ .o++o..oo+oX.@+ .o++o..oo+oX.@+ .o++",
"@oX.+.@o.o+o.+oX@oX.+.@o.o+o.+oX@oX.+.@o.o+o.+oX@oX.+.@o.o+o.+oX",
"oOo +oXoXo@oo+o.oOo +oXoXo@oo+o.oOo +oXoXo@oo+o.oOo +oXoXo@oo+o.",
"Xo@oXXo+oXo.o+.@Xo@oXXo+oXo.o+.@Xo@oXXo+oXo.o+.@Xo@oXXo+oXo.o+.@",
"o.oXo.+o. +o.Xooo.oXo.+o. +o.Xooo.oXo.+o. +o.Xooo.oXo.+o. +o.Xoo",
"o+.o.o+Xo+o+oXoOo+.o.o+Xo+o+oXoOo+.o.o+Xo+o+oXoOo+.o.o+Xo+o+oXoO",
"Xo+o.X+o.o +.o.XXo+o.X+o.o +.o.XXo+o.X+o.o +.o.XXo+o.X+o.o +.o.X",
"oX+o.oo@X.o+oX .oX+o.oo@X.o+oX .oX+o.oo@X.o+oX .oX+o.oo@X.o+oX .",
".oo@X@.oo.Xo.oo..oo@X@.oo.Xo.oo..oo@X@.oo.Xo.oo..oo@X@.oo.Xo.oo.",
"o.oX@.o++.oX.++.o.oX@.o++.oX.++.o.oX@.o++.oX.++.o.oX@.o++.oX.++.",
"o.++oo+.XXo@.o+oo.++oo+.XXo@.o+oo.++oo+.XXo@.o+oo.++oo+.XXo@.o+o"
};
