/* XPM */
static char *result[] = {
/* columns rows colors chars-per-pixel */
"64 64 12 1 ",
"  c black",
". c #0E0E0E",
"X c #191818",
"o c #1D1B1B",
"O c #3B1B03",
"+ c #211F1F",
"@ c #282626",
"# c #343030",
"$ c #3D3A3A",
"% c #461F03",
"& c #572806",
"* c None",
/* pixels */
"****************************************************************",
"****************************************************************",
"****************************************************************",
"****************************************************************",
"****************************************************************",
"****************************************************************",
"****************************************************************",
"****************************************************************",
"****************************************************************",
"****************************************************************",
"****************************************************************",
"****************************************************************",
"****************************************************************",
"****************************************************************",
"****************************************************************",
"****************************************************************",
"****************************************************************",
"****************************************************************",
"****************************************************************",
"****************************************************************",
"****************************************************************",
"****************************************************************",
"****************************************************************",
"****************************************************************",
"****************************************************************",
"****************************************************************",
"****************************************************************",
"****************************************************************",
"****************************************************************",
"****************************************************************",
"****************************************************************",
"****************************************************************",
"****************************************************************",
"****************************************************************",
"****************************************************************",
"****************************************************************",
"****************************************************************",
"****************************************************************",
"****************************************************************",
"****************************************************************",
"****************************************************************",
"****************************************************************",
"****************************************************************",
"****************************************************************",
"****************************************************************",
"****************************************************************",
"****************************************************************",
"****************************************************************",
"****************************************************************",
"****************************************************************",
"****************************************************************",
"****************************************%***********************",
"******************************...******&&***********************",
"***************%*************.....****&&************************",
"****************O************.  ..****%*************************",
"**********O%%***&&&%&***&&*X.o..ooXX*&&O***&&***%*%%************",
"**********O%%%%&&%&&%%&&%%XXo@++@o.X%%%&&&&OOO&%%%%%%***********",
"************%&&OOO%O%%OO%XX+o@@+@@+XX&&&O%%&O&&O&&O*************",
"**************&&***&&%%&*X+oo+@@$@@#X%O&*&&&*****%%*************",
"*********************&O*XX+#$##$#$o#XX**************************",
"********************&&**X+#@$$@@$$$o#X**************************",
"***********************+X#@@#$#@$#$o@X+*************************",
"***********************XXX#$$$#$#$$@# X*************************",
"***********************XX#@$#$@@$$#@@ X*************************"
};
