/* XPM */
static char *result[] = {
/* columns rows colors chars-per-pixel */
"64 64 27 1 ",
"  c black",
". c #0A0909",
"X c #141212",
"o c #1B1919",
"O c #1D1919",
"+ c #1D1B1B",
"@ c #211D1D",
"# c #252222",
"$ c #262222",
"% c #2A2A2A",
"& c #2E2929",
"* c #393535",
"= c #393737",
"- c #501F1F",
"; c #642929",
": c #484040",
"> c #504949",
", c #797878",
"< c gray50",
"1 c #820000",
"2 c #A60000",
"3 c #823838",
"4 c #ED0909",
"5 c #E9DADA",
"6 c #FFF7C5",
"7 c white",
"8 c None",
/* pixels */
"8888888888888888888888888888888888888888888888888888888888888888",
"8888888888888888888888888888888888888888888888888888888888888888",
"8888888888888888888888888888888888888888888888888888888888888888",
"8888888888888888888888888888888888888888888888888888888888888888",
"8888888888888888888888888888888888888888888888888888888888888888",
"8888888888888888888888888888888888888888888888888888888888888888",
"8888888888888888888888888888888888888888888888888888888888888888",
"8888888888888888888888888888888888888888888888888888888888888888",
"8888888888888888888888888888888888888888888888888888888888888888",
"8888888888888888888888888888888888888888888888888888888888888888",
"8888888888888888888888888888888888888888888888888888888888888888",
"8888888888888888888888888888888888888888888888888888888888888888",
"8888888888888888888888888>     > &888888888888888888888888888888",
"8888888888888888888888*& $ @ @@@@  *8888888888888888888888888888",
"888888888888888888888&    @@@@@@@    &88888888888888888888888888",
"8888888888888888888 &   @@@ &  @@       888888888888888888888888",
"8888888888888888888     @ $@@ & @&  .. &888888888888888888888888",
"888888888888888888        &$$       *@  &88888888888888888888888",
"88888888888888888 &>       $$  $     @@. 88888888888888888888888",
"88888888888888888    @@  $   $$  $$   @.. 8888888888888888888888",
"8888888888888888 #   @    &&   $&    #@@@  888888888888888888888",
"888888888888888    @@*22+  &$ $&  +22   @@  88888888888888888888",
"888888888888888    @  %272  &$&# 472% # @@  88888888888888888888",
"888888888888888    @ >$%4   &$&# .4 .## @.   8888888888888888888",
"88888888888888    @@ #$.OO...$& &...$$#  @.  8888888888888888888",
"88888888888888   @*  *:$$&O.@&@@.&OO$$*@ @.  8888888888888888888",
"88888888888888   @@ #**$$..@@&&@@O$:****@@@. 8888888888888888888",
"88888888888888   @@ *#**.**&& &&>*O.##*#@@@  8888888888888888888",
"888888888888888   @ *.#****&   &>***#.**@  .88888888888888888888",
"888888888888888.  @ * *# #>     > *#*.*#   .88888888888888888888",
"8888888888888888.   * ##  &&   ,  *#*.#   .888888888888888888888",
"8888888888888888.   #  *         >#*#.    .888888888888888888888",
"88888888888888888.  #   * =77777=##..     .888888888888888888888",
"88888888888888888.#    . =7-6-6-7=#.  #  .8888888888888888888888",
"888888888888888888    O ==73---37==.O 8  .8888888888888888888888",
"8888888888888888888  8  =27333337==  88# .8888888888888888888888",
"8888888888888888888  8  O2%;333;12OO 88. 88888888888888888888888",
"8888888888888888888 888 X125;;;521% 8888 88888888888888888888888",
"8888888888888888888 8888 11755571%% 8888 88888888888888888888888",
"888888888888888888888888 X111oX11%<88888888888888888888888888888",
"88888888888888888888888888%11==218888888888888888888888888888888",
"88888888888888888888888888841XX488888888888888888888888888888888",
"8888888888888888888888888881288488888888888888888888888888888888",
"8888888888888888888888888888888888888888888888888888888888888888",
"8888888888888888888888888888888888888888888888888888888888888888",
"8888888888888888888888888888888888888888888888888888888888888888",
"8888888888888888888888888888888888888888888888888888888888888888",
"8888888888888888888888888888888888888888888888888888888888888888",
"8888888888888888888888888888888888888888888888888888888888888888",
"8888888888888888888888888888888888888888888888888888888888888888",
"8888888888888888888888888888888888888888888888888888888888888888",
"8888888888888888888888888888888888888888888888888888888888888888",
"8888888888888888888888888888888888888888888888888888888888888888",
"8888888888888888888888888888888888888888888888888888888888888888",
"8888888888888888888888888888888888888888888888888888888888888888",
"8888888888888888888888888888888888888888888888888888888888888888",
"8888888888888888888888888888888888888888888888888888888888888888",
"8888888888888888888888888888888888888888888888888888888888888888",
"8888888888888888888888888888888888888888888888888888888888888888",
"8888888888888888888888888888888888888888888888888888888888888888",
"8888888888888888888888888888888888888888888888888888888888888888",
"8888888888888888888888888888888888888888888888888888888888888888",
"8888888888888888888888888888888888888888888888888888888888888888",
"8888888888888888888888888888888888888888888888888888888888888888"
};
