/* XPM */
static char *result[] = {
/* columns rows colors chars-per-pixel */
"64 64 14 1 ",
"  c black",
". c #0E0E0E",
"X c #191818",
"o c #1D1B1B",
"O c #3B1B03",
"+ c #211F1F",
"@ c #282626",
"# c #343030",
"$ c #3D3A3A",
"% c #461F03",
"& c #6A0303",
"* c #572806",
"= c #AD0101",
"- c None",
/* pixels */
"----------------------------------------------------------------",
"----------------------------------------------------------------",
"----------------------------------------------------------------",
"----------------------------------------------------------------",
"----------------------------------------------------------------",
"----------------------------------------------------------------",
"----------------------------------------------------------------",
"----------------------------------------------------------------",
"----------------------------------------------------------------",
"----------------------------------------------------------------",
"----------------------------------------------------------------",
"----------------------------------------------------------------",
"----------------------------------------------------------------",
"----------------------------------------------------------------",
"----------------------------------------------------------------",
"----------------------------------------------------------------",
"----------------------------------------------------------------",
"----------------------------------------------------------------",
"----------------------------------------------------------------",
"----------------------------------------------------------------",
"----------------------------------------------------------------",
"----------------------------------------------------------------",
"----------------------------------------------------------------",
"----------------------------------------------------------------",
"----------------------------------------------------------------",
"----------------------------------------------------------------",
"----------------------------------------------------------------",
"----------------------------------------------------------------",
"----------------------------------------------------------------",
"----------------------------------------------------------------",
"----------------------------------------------------------------",
"----------------------------------------------------------------",
"----------------------------------------------------------------",
"----------------------------------------------------------------",
"----------------------------------------------------------------",
"----------------------------------------------------------------",
"----------------------------------------------------------------",
"----------------------------------------------------------------",
"----------------------------------------------------------------",
"----------------------------------------------------------------",
"----------------------------------------------------------------",
"----------------------------------------------------------------",
"------------------------------------------------O&O-------------",
"-----------------------------------------------O=&--------------",
"---------------------------------------------O%=&&--------------",
"---------------------------------------=----O%%=-&--------------",
"--------------------------------------==----%%*O----------------",
"-------------------------------------O=&--&&&O------------------",
"-------------------------------------O*--=&%O-------------------",
"-------------------------------------O**%=%O--------------------",
"-------------------------------------OO%%*O---------------------",
"------------------------------------OO%%&-----------------------",
"------------------------------...-%O%*&=------------------------",
"-----------------------------.....%**O&-------------------------",
"-----------------------------.  ..OO=---------------------------",
"---------------------------X.o..ooX=----------------------------",
"-------------------------=XXo@++@o.X%---------------------------",
"------------------------*XX+o@@+@@+XX---------------------------",
"----------------------O%=X+oo+@@$@@#X---------------------------",
"---------------&=---&***XX+#$##$#$o#XX--------------------------",
"---------------O==-&&%O*X+#@$$@@$$$o#X--------------------------",
"----------------&OO==O-+X#@@#$#@$#$o@X+-------------------------",
"---------------*&*%**--XXX#$$$#$#$$@# X-------------------------",
"-------------O**=*-----XX#@$#$@@$$#@@ X-------------------------"
};
