/* XPM */
static char *result[] = {
/* columns rows colors chars-per-pixel */
"64 64 25 1 ",
"  c black",
". c #0A0909",
"X c #1D1919",
"o c #211D1D",
"O c #252222",
"+ c #252323",
"@ c #262222",
"# c #282424",
"$ c #2A2A2A",
"% c #2E2929",
"& c #393535",
"* c #533509",
"= c #714708",
"- c #464040",
"; c #484040",
": c #554646",
"> c #504949",
", c #797878",
"< c gray50",
"1 c #FF5384",
"2 c #F8799D",
"3 c #AFADAD",
"4 c #B7B3B3",
"5 c #FEF5F5",
"6 c None",
/* pixels */
"6666666666666666666666666666666666666666666666666666666666666666",
"6666666666666666666666666666666666666666666666666666666666666666",
"6666666666666666666666666666666666666666666666666666666666666666",
"6666666666666666666666666666666666666666666666666666666666666666",
"6666666666666666666666666666666666666666666666666666666666666666",
"6666666666666666666666666666666666666666666666666666666666666666",
"6666666666666666666666666666666666666666666666666666666666666666",
"6666666666666666666666666666666666666666666666666666666666666666",
"6666666666666666666666666666666666666666666666666666666666666666",
"6666666666666666666666666666666666666666666666666666666666666666",
"6666666666666666666666666666666666666666666666666666666666666666",
"6666666666666666666666666666666666666666666666666666666666666666",
"6666666666666666666666666>     > %666666666666666666666666666666",
"6666666666666666666666&% @ o oooo  &6666666666666666666666666666",
"666666666666666666666%    ooooooo    %66666666666666666666666666",
"6666666666666666666 %   ooo %  oo       666666666666666666666666",
"6666666666666666666     o @oo % o%  .. %666666666666666666666666",
"666666666666666666        %@@       &o  %66666666666666666666666",
"66666666666666666 %>       @@  @     oo. 66666666666666666666666",
"66666666666666666    oo @@   @@  @@   o.. 6666666666666666666666",
"6666666666666666 O   o    %%   @%    Oooo  666666666666666666666",
"666666666666666    oo& +== %@ @% ==+    oo  66666666666666666666",
"666666666666666    o   $5*= %@%O 5*=  O oo  66666666666666666666",
"666666666666666    o >@ .   %@%O... .OO o.   6666666666666666666",
"66666666666666    oo O@.XX...@% %...@@O  o.  6666666666666666666",
"66666666666666   o&  &;@@%X.o%oo.%XX@@&o o.  6666666666666666666",
"66666666666666   oo O&&@@..oo%%ooX@;&&&&ooo. 6666666666666666666",
"66666666666666   oo &O&&.&&%%%%%>&X.OO&Oooo  6666666666666666666",
"666666666666666   o &.O&&&&%%%%%>&&&O.&&o  .66666666666666666666",
"666666666666666.  o & &OOO>%% O%>>&O&.&O   .66666666666666666666",
"6666666666666666.   & OOO&%%   O%%&O&.O   .666666666666666666666",
"6666666666666666.   O  &OO%     %>O&O.    .666666666666666666666",
"66666666666666666.  O   &OO%   >%OO..     .666666666666666666666",
"66666666666666666.O    . O O>OO> OO.  O  .6666666666666666666666",
"666666666666666666    X XO>     oO..X 6  .6666666666666666666666",
"6666666666666666666  6  X.O    o O   66O .6666666666666666666666",
"6666666666666666666  6  X.  1111o XX 66. 66666666666666666666666",
"6666666666666666666 666 XX. 2112#.X 6666 66666666666666666666666",
"6666666666666666666 6666 X##2222#-< 6666 66666666666666666666666",
"666666666666666666666666  :  22  :< 6666666666666666666666666666",
"6666666666666666666666666 ,4 :: :: 66666666666666666666666666666",
"6666666666666666666666666++,444:4++66666666666666666666666666666",
"66666666666666666666666666643334,6666666666666666666666666666666",
"6666666666666666666666666666666666666666666666666666666666666666",
"6666666666666666666666666666666666666666666666666666666666666666",
"6666666666666666666666666666666666666666666666666666666666666666",
"6666666666666666666666666666666666666666666666666666666666666666",
"6666666666666666666666666666666666666666666666666666666666666666",
"6666666666666666666666666666666666666666666666666666666666666666",
"6666666666666666666666666666666666666666666666666666666666666666",
"6666666666666666666666666666666666666666666666666666666666666666",
"6666666666666666666666666666666666666666666666666666666666666666",
"6666666666666666666666666666666666666666666666666666666666666666",
"6666666666666666666666666666666666666666666666666666666666666666",
"6666666666666666666666666666666666666666666666666666666666666666",
"6666666666666666666666666666666666666666666666666666666666666666",
"6666666666666666666666666666666666666666666666666666666666666666",
"6666666666666666666666666666666666666666666666666666666666666666",
"6666666666666666666666666666666666666666666666666666666666666666",
"6666666666666666666666666666666666666666666666666666666666666666",
"6666666666666666666666666666666666666666666666666666666666666666",
"6666666666666666666666666666666666666666666666666666666666666666",
"6666666666666666666666666666666666666666666666666666666666666666",
"6666666666666666666666666666666666666666666666666666666666666666"
};
