/* XPM */
static char *result[] = {
/* columns rows colors chars-per-pixel */
"64 64 11 1 ",
"  c black",
". c #211F1F",
"X c #2A2828",
"o c #2C2A2A",
"O c #3D3A3A",
"+ c #444040",
"@ c #524F4F",
"# c #FF6262",
"$ c #FFF6F6",
"% c white",
"& c None",
/* pixels */
"&&&&&&&&&&&&&&&&&&&&&&&&&&&&&&&&&&&&&&&&&&&&&&&&&&&&&&&&&&&&&&&&",
"&&&&&&&&&&&&&&&&&&&&&&&&&&&&&&&&&&&&&&&&&&&&&&&&&&&&&&&&&&&&&&&&",
"&&&&&&&&&&&&&&&&&&&&&&&&&&&&&&&&&&&&&&&&&&&&&&&&&&&&&&&&&&&&&&&&",
"&&&&&&&&&&&&&&&&&&&&&&&&&&&&&&&&&&&&&&&&&&&&&&&&&&&&&&&&&&&&&&&&",
"&&&&&&&&&&&&&&&&&&&&&&&&&&&&&&&&&&&&&&&&&&&&&&&&&&&&&&&&&&&&&&&&",
"&&&&&&&&&&&&&&&&&&&&&&&&&&&&&&&&&&&&&&&&&&&&&&&&&&&&&&&&&&&&&&&&",
"&&&&&&&&&&&&&&&&&&&&&&&&&&&&&&&&&&&&&&&&&&&&&&&&&&&&&&&&&&&&&&&&",
"&&&&&&&&&&&&&&&&&&&&&&&&&&&&&&&&&&&&&&&&&&&&&&&&&&&&&&&&&&&&&&&&",
"&&&&&&&&&&&&&&&&&&&&&&&&&&&&&&&&&&&&&&&&&&&&&&&&&&&&&&&&&&&&&&&&",
"&&&&&&&&&&&&&&&&&&&&&&&&&&&&&&&&&&&&&&&&&&&&&&&&&&&&&&&&&&&&&&&&",
"&&&&&&&&&&&&&&&&&&&&&&&&&&&&&&&&&&&&&&&&&&&&&&&&&&&&&&&&&&&&&&&&",
"&&&&&&&&&&&&&&&&&&&&&&&&&&&&&&&&&&&&&&&&&&&&&&&&&&&&&&&&&&&&&&&&",
"&&&&&&&&&&&&&&&&&&&&&&&&&&&&&&&&&&&&&&&&&&&&&&&&&&&&&&&&&&&&&&&&",
"&&&&&&&&&&&&&&&&&&&&&&&&&&&&&&&&&&&&&&&&&&&&&&&&&&&&&&&&&&&&&&&&",
"&&&&&&&&&&&&&&&&&&&&&&&&&&&&&&&&&&&&&&&&&&&&&&&&&&&&&&&&&&&&&&&&",
"&&&&&&&&&&&&&&&&&&&&&&&&&&&&&&&&&&&&&&&&&&&&&&&&&&&&&&&&&&&&&&&&",
"&&&&&&&&&&&&&&&&&&&&&&&&&&&&&&&&&&&&&&&&&&&&&&&&&&&&&&&&&&&&&&&&",
"&&&&&&&&&&&&&&&&&&&&&&&&&&&&&&&&&&&&&&&&&&&&&&&&&&&&&&&&&&&&&&&&",
"&&&&&&&&&&&&&&&&&&&&&&&&&&&&&&&&&&&&&&&&&&&&&&&&&&&&&&&&&&&&&&&&",
"&&&&&&&&&&&&&&&&&&&&&&&&&&&&&&&&&&&&&&&&&&&&&&&&&&&&&&&&&&&&&&&&",
"&&&&&&&&&&&&&&&&&&&&&&&&&&&&&&&&&&&&&&&&&&&&&&&&&&&&&&&&&&&&&&&&",
"&&&&&&&&&&&&&&&&&&&&&&&&&&&&&&&&&&&&&&&&&&&&&&&&&&&&&&&&&&&&&&&&",
"&&&&&&&&&&&&&&&&&&&&&&&&&&&&&&&&&&&&&&&&&&&&&&&&&&&&&&&&&&&&&&&&",
"&&&&&&&&&&&&&&&&&&&&&&&&&&&&&&&&&&&&&&&&&&&&&&&&&&&&&&&&&&&&&&&&",
"&&&&&&&&&&&&&&&&&&&&&&&&&&&&&&&&&&&&&&&&&&&&&&&&&&&&&&&&&&&&&&&&",
"&&&&&&&&&&&&&&&&&&&&&&&&&&&&&&&&&&&&&&&&&&&&&&&&&&&&&&&&&&&&&&&&",
"&&&&&&&&&&&&&&&&&&&&&&&&&&&&&&&&&&&&&&&&&&&&&&&&&&&&&&&&&&&&&&&&",
"&&&&&&&&&&&&&&&&&&&&&&&&&&&&&&&&&&&&&&&&&&&&&&&&&&&&&&&&&&&&&&&&",
"&&&&&&&&&&&&&&&&&&&&&&&&&&&&&&&&&&&&&&& &&&&&&&&&&&&&&&&&&&&&&&&",
"&&&&&&&&&&&&&&&&&&&&&&&&&&&&&&&&&&&&&&&$ && &&&&&&&&&&&&&&&&&&&&",
"&&&&&&&&&&&&&&&&&&&&&&&&&&&&&&&&&&&&&& @@ &$ &&&&&&&&&&&&&&&&&&&",
"&&&&&&&&&&&  &&&&&&&&&&&&&&&&&&&&&&&&  #@@ #  &&&&&&&&&&&&&&&&&&",
"&&&&&&&&&& $ &&&&&&&&&&&&&&&&&&&&&&&& X.X    .&&&&&&&&&&&&&&&&&&",
"&&&&&&&&&& O &&&&&&&&&&&&&&&&&&&&&&&  X.XX.O@@ &&&&&&&&&&&&&&&&&",
"&&&&&&&&& @ &&&&&&&&&&&&&&&&&&&&&&&  ...O $O $ &&&&&&&&&&&&&&&&&",
"&&&&&&&& X@ &&&&&&&&&&&&&&&&&&&&&&& ..XOO  @    &&&&&&&&&&&&&&&&",
"&&&&&&&&X@ &&&&&&&&&&&&&&&&&&&&&&&& .XOOOOO@OO$$#&&&&&&&&&&&&&&&",
"&&&&&&& X@ &&&&&&&&&&&&&&&&&&&&&&&& .XO@@@@O $$$$&&&&&&&&&&&&&&&",
"&&&&&&& @ &&&&&&&&&&&&&&&&&&&&&&&&& .XOO@O@OX $$O&&&&&&&&&&&&&&&",
"&&&&&&& X &&&&&&&&&&&&&&&&&&&&&&&&& ..XO@O@OOXXO&&&&&&&&&&&&&&&&",
"&&&&&&& X  &&&&&&&&&&&&&&&&&&&&&&&&& ..@OO@OO@ &&&&&&&&&&&&&&&&&",
"&&&&&&&& X@  &&&&&&&&&&&&&&&&&&&&&&&&XXOOOOO. &&&&&&&&&&&&&&&&&&",
"&&&&&&&&&  @  &&&&&&&    X@@&&&&&&&&&XO@O@O@@&&&&&&&&&&&&&&&&&&&",
"&&&&&&&&&& X@   &     XXXXX         X@O@@@O+ &&&&&&&&&&&&&&&&&&&",
"&&&&&&&&&&&  X@   @  .o@XXXXXXXXXooOoXOOO@@@oO&&&&&&&&&&&&&&&&&&",
"&&&&&&&&&&&&& @@XX ...OOOoOXXOO@O@OooOO@@@OOO.@&&&&&&&&&&&&&&&&&",
"&&&&&&&&&&&&&& .XOOOO@+o@@@@O@@@@@+OOO@O@@@OOO.&&&&&&&&&&&&&&&&&",
"&&&&&&&&&&&&&&&& OOXO@O O+@@@O@XO@@@@@@@OO@OO+ &&&&&&&&&&&&&&&&&",
"&&&&&&&&&&&&&&&&&& O@@  O++@@@@@@@OOO@OO @X+Oo &&&&&&&&&&&&&&&&&",
"&&&&&&&&&&&&&&&&&&& @+ +X+OO@O@O@@OO@@@X @@X@@ &&&&&&&&&&&&&&&&&",
"&&&&&&&&&&&&&&&&&&& X@ ooXXOOOOOOO@OO+ o X@@o+O &&&&&&&&&&&&&&&&",
"&&&&&&&&&&&&&&&&&&&& Oo o      O@XXXX OO Xo@.. o.&&&&&&&&&&&&&&&",
"&&&&&&&&&&&&&&&&&&&  @oo @X &&O       &&&.oo & Oo.&&&&&&&&&&&&&&",
"&&&&&&&&&&&&&&&&&&& O+o @X &&&&&&&&&&&&&& oo && Oo.&&&&&&&&&&&&&",
"&&&&&&&&&&&&&&&&&& Xoo @X &&&&&&&&&&&&&&&& oo.&& oo.&&&&&&&&&&&&",
"&&&&&&&&&&&&&&&&&  Oo XX &&&&&&&&&&&&&&&&&& oo.&& o% &&&&&&&&&&&",
"&&&&&&&&&&&&&&&& Ooo &X &&&&&&&&&&&&&&&&&&&& oo.&&   &&&&&&&&&&&",
"&&&&&&&&&&&&&&&& Oo &&X$ &&&&&&&&&&&&&&&&&&&& .% &&&&&&&&&&&&&&&",
"&&&&&&&&&&&&&&&& oo$ &&. &&&&&&&&&&&&&&&&&&&&    &&&&&&&&&&&&&&&",
"&&&&&&&&&&&&&&&&&    &&&&&&&&&&&&&&&&&&&&&&&&&&&&&&&&&&&&&&&&&&&",
"&&&&&&&&&&&&&&&&&&&&&&&&&&&&&&&&&&&&&&&&&&&&&&&&&&&&&&&&&&&&&&&&",
"&&&&&&&&&&&&&&&&&&&&&&&&&&&&&&&&&&&&&&&&&&&&&&&&&&&&&&&&&&&&&&&&",
"&&&&&&&&&&&&&&&&&&&&&&&&&&&&&&&&&&&&&&&&&&&&&&&&&&&&&&&&&&&&&&&&",
"&&&&&&&&&&&&&&&&&&&&&&&&&&&&&&&&&&&&&&&&&&&&&&&&&&&&&&&&&&&&&&&&"
};
