/* XPM */
static char *result[] = {
/* columns rows colors chars-per-pixel */
"64 64 10 1 ",
"  c black",
". c #211F1F",
"X c #2A2828",
"o c #2C2A2A",
"O c #3D3A3A",
"+ c #444040",
"@ c #524F4F",
"# c #FF6262",
"$ c #FFF6F6",
"% c None",
/* pixels */
"%%%%%%%%%%%%%%%%%%%%%%%%%%%%%%%%%%%%%%%%%%%%%%%%%%%%%%%%%%%%%%%%",
"%%%%%%%%%%%%%%%%%%%%%%%%%%%%%%%%%%%%%%%%%%%%%%%%%%%%%%%%%%%%%%%%",
"%%%%%%%%%%%%%%%%%%%%%%%%%%%%%%%%%%%%%%%%%%%%%%%%%%%%%%%%%%%%%%%%",
"%%%%%%%%%%%%%%%%%%%%%%%%%%%%%%%%%%%%%%%%%%%%%%%%%%%%%%%%%%%%%%%%",
"%%%%%%%%%%%%%%%%%%%%%%%%%%%%%%%%%%%%%%%%%%%%%%%%%%%%%%%%%%%%%%%%",
"%%%%%%%%%%%%%%%%%%%%%%%%%%%%%%%%%%%%%%%%%%%%%%%%%%%%%%%%%%%%%%%%",
"%%%%%%%%%%%%%%%%%%%%%%%%%%%%%%%%%%%%%%%%%%%%%%%%%%%%%%%%%%%%%%%%",
"%%%%%%%%%%%%%%%%%%%%%%%%%%%%%%%%%%%%%%%%%%%%%%%%%%%%%%%%%%%%%%%%",
"%%%%%%%%%%%%%%%%%%%%%%%%%%%%%%%%%%%%%%%%%%%%%%%%%%%%%%%%%%%%%%%%",
"%%%%%%%%%%%%%%%%%%%%%%%%%%%%%%%%%%%%%%%%%%%%%%%%%%%%%%%%%%%%%%%%",
"%%%%%%%%%%%%%%%%%%%%%%%%%%%%%%%%%%%%%%%%%%%%%%%%%%%%%%%%%%%%%%%%",
"%%%%%%%%%%%%%%%%%%%%%%%%%%%%%%%%%%%%%%%%%%%%%%%%%%%%%%%%%%%%%%%%",
"%%%%%%%%%%%%%%%%%%%%%%%%%%%%%%%%%%%%%%%%%%%%%%%%%%%%%%%%%%%%%%%%",
"%%%%%%%%%%%%%%%%%%%%%%%%%%%%%%%%%%%%%%%%%%%%%%%%%%%%%%%%%%%%%%%%",
"%%%%%%%%%%%%%%%%%%%%%%%%%%%%%%%%%%%%%%%%%%%%%%%%%%%%%%%%%%%%%%%%",
"%%%%%%%%%%%%%%%%%%%%%%%%%%%%%%%%%%%%%%%%%%%%%%%%%%%%%%%%%%%%%%%%",
"%%%%%%%%%%%%%%%%%%%%%%%%%%%%%%%%%%%%%%%%%%%%%%%%%%%%%%%%%%%%%%%%",
"%%%%%%%%%%%%%%%%%%%%%%%%%%%%%%%%%%%%%%%%%%%%%%%%%%%%%%%%%%%%%%%%",
"%%%%%%%%%%%%%%%%%%%%%%%%%%%%%%%%%%%%%%%%%%%%%%%%%%%%%%%%%%%%%%%%",
"%%%%%%%%%%%%%%%%%%%%%%%%%%%%%%%%%%%%%%%%%%%%%%%%%%%%%%%%%%%%%%%%",
"%%%%%%%%%%%%%%%%%%%%%%%%%%%%%%%%%%%%%%%%%%%%%%%%%%%%%%%%%%%%%%%%",
"%%%%%%%%%%%%%%%%%%%%%%%%%%%%%%%%%%%%%%%%%%%%%%%%%%%%%%%%%%%%%%%%",
"%%%%%%%%%%%%%%%%%%%%%%%%%%%%%%%%%%%%%%%%%%%%%%%%%%%%%%%%%%%%%%%%",
"%%%%%%%%%%%%%%%%%%%%%%%%%%%%%%%%%%%%%%%%%%%%%%%%%%%%%%%%%%%%%%%%",
"%%%%%%%%%%%%%%%%%%%%%%%%%%%%%%%%%%%%%%%%%%%%%%%%%%%%%%%%%%%%%%%%",
"%%%%%%%%%%%%%%%%%%%%%%%%%%%%%%%%%%%%%%%%%%%%%%%%%%%%%%%%%%%%%%%%",
"%%%%%%%%%%%%%%%%%%%%%%%%%%%%%%%%%%%%%%%%%%%%%%%%%%%%%%%%%%%%%%%%",
"%%%%%%%%%%%%%%%%%%%%%%%%%%%%%%%%%%%%%%%%%%%%%%%%%%%%%%%%%%%%%%%%",
"%%%%%%%%%%%%%%%%%%%%%%%%%%%%%%%%%%%%%%%%%%%%%%%%%%%%%%%%%%%%%%%%",
"%%%%%%%%%%%%%%%%%%%%%%%%%%%%%%%%%%%%%%%%%%%%%%%%%%%%%%%%%%%%%%%%",
"%%%%%%%%%%%%%%%%%%%%%%%%%%%%%%%%%%%%%%%%%%%%%%%%%%%%%%%%%%%%%%%%",
"%%%%%%%%%%%%%%%%%%%%%%%%%%%%%%%%%%%%%%%%%%%% %%%%%%%%%%%%%%%%%%%",
"%%%%%%%%%%%%%%%%%%%%%%%%%%%%%%%%%%%%%%%%%%%%$ %% %%%%%%%%%%%%%%%",
"%%%%%%%%%%%%%%%%%%%%%%%%%%%%%%%%%%%%%%%%%%% @@ %$ %%%%%%%%%%%%%%",
"%%%%%%%%%%%%%%%%%%%%%%%%%%%%%%%%%%%%%%%%%%  #@@ #  %%%%%%%%%%%%%",
"%%%%%%%%%%%%%%%%%%%%%%%%%%%%%%%%%%%%%%%%%% X.X    .%%%%%%%%%%%%%",
"%%%%%%%%%%%%%%%   %%%%%%%%%%%%%%%%%%%%%%%  X.XX.@@@ %%%%%%%%%%%%",
"%%%%%%%%%%%%%% OO@ %%%%%%%%%%%%%%%%%%%%%  ...O $O $ %%%%%%%%%%%%",
"%%%%%%%%%%%%% OO @X%%%%%%%%%%%%%%%%%%%%% ..X@O  @    %%%%%%%%%%%",
"%%%%%%%%%%%%% $ %O@ %%%%%%%%%%%%%%%%%%%% .XO@@@@@OO$$#%%%%%%%%%%",
"%%%%%%%%%%%%%   % O %%%%%%%%%%%%%%%%%%%% .XO@@O@O $$$$%%%%%%%%%%",
"%%%%%%%%%%%%%%%%% O  %%%%%%%%%%%%%%%%%%% .XXO@@@OX $$O%%%%%%%%%%",
"%%%%%%%%%%%%%%%%%%O@ %%%%%%%%%%%%%%%%%%% ..O@OO@OOXXO%%%%%%%%%%%",
"%%%%%%%%%%%%%%%%%% O  %%%%%%%%%%%%%%%%%%% ..@@O@@O@ %%%%%%%%%%%%",
"%%%%%%%%%%%%%%%%%%% @ %%%%%%%%%%      %%% XX@@@@O. %%%%%%%%%%%%%",
"%%%%%%%%%%%%%%%%%%% XX %%%%      XXXX    XX@@O@@..%%%%%%%%%%%%%%",
"%%%%%%%%%%%%%%%%%%%% X  %   .oo  XXOOOO X@@O@@@X+X%%%%%%%%%%%%%%",
"%%%%%%%%%%%%%%%%%%%% XX   ...o@ooOOOXXOOO@OO@OO++oX%%%%%%%%%%%%%",
"%%%%%%%%%%%%%%%%%%%%% XXX..OOOOOOoOOOOO@@@@@OO+ooO %%%%%%%%%%%%%",
"%%%%%%%%%%%%%%%%%%%%%% XXOOO@@O@O@@O@@@@@@@O+X+OOO %%%%%%%%%%%%%",
"%%%%%%%%%%%%%%%%%%%%%%%XOO@O@@@@@@@@@O@@@O+o+ @@o  %%%%%%%%%%%%%",
"%%%%%%%%%%%%%%%%%%%%%%%  oO@ O@O@O@@@@@XX ++@ XX  %%%%%%%%%%%%%%",
"%%%%%%%%%%%%%%%%%%%%%%%%.oO@@ oo@@XOOOO+  +@ @@+ %%%%%%%%%%%%%%%",
"%%%%%%%%%%%%%%%%%%%%%%%% ooO@  ooX@@XX@  X+X @@  %%%%%%%%%%%%%%%",
"%%%%%%%%%%%%%%%%%%%%%%%%% .oOo    O..   XXo     %%%%%%%%%%%%%%%%",
"%%%%%%%%%%%%%%%%%%%%%%%%%%  +@o %%   %% X@     %%%%%%%%%%%%%%%%%",
"%%%%%%%%%%%%%%%%%%%%%%%%%%%  O@X%%%%%%% X@ % O %%%%%%%%%%%%%%%%%",
"%%%%%%%%%%%%%%%%%%%%%%%%%%%% XXX %%%%%  X  % O %%%%%%%%%%%%%%%%%",
"%%%%%%%%%%%%%%%%%%%%%%%%%%%%% XXX %%%% X@ % X$ %%%%%%%%%%%%%%%%%",
"%%%%%%%%%%%%%%%%%%%%%%%%%%%%%   X$ %% O@ %%   %%%%%%%%%%%%%%%%%%",
"%%%%%%%%%%%%%%%%%%%%%%%%%%%%%%%    %% O$ %%%%%%%%%%%%%%%%%%%%%%%",
"%%%%%%%%%%%%%%%%%%%%%%%%%%%%%%%%%%%%%%  %%%%%%%%%%%%%%%%%%%%%%%%",
"%%%%%%%%%%%%%%%%%%%%%%%%%%%%%%%%%%%%%%%%%%%%%%%%%%%%%%%%%%%%%%%%",
"%%%%%%%%%%%%%%%%%%%%%%%%%%%%%%%%%%%%%%%%%%%%%%%%%%%%%%%%%%%%%%%%"
};
