/* XPM */
static char *result[] = {
/* columns rows colors chars-per-pixel */
"64 64 8 1 ",
"  c black",
". c #1F1D1B",
"X c #2A2824",
"o c #302D29",
"O c #393530",
"+ c #E2517B",
"@ c white",
"# c None",
/* pixels */
"################################################################",
"################################################################",
"################################################################",
"################################################################",
"################################################################",
"################################################################",
"################################################################",
"################################################################",
"################################################################",
"################################################################",
"################################################################",
"################################################################",
"################################################################",
"################################################################",
"################################################################",
"################################################################",
"################################################################",
"################################################################",
"################################################################",
"################################################################",
"################################################################",
"################################################################",
"################################################################",
"################################################################",
"################################################################",
"################################################################",
"################################################################",
"################################################################",
"################################################################",
"################################################################",
"################################################################",
"################################################################",
"############################o  #################################",
"###########################.o@  ################################",
"########################## oo  #################################",
"######################### .o ###################################",
"#########################.o ####################################",
"#########################.o ####################################",
"#########################.oo  ##################################",
"########################## oo ##################################",
"##########################  o.##################################",
"########################### o..#################################",
"############################ o #################################",
"############################ o .################################",
"###########################. o ..###############################",
"#########################... o  o..#############################",
"########################... XoX  o..############################",
"#######################..oO XooO oo. ###########################",
"####################### .OXXXoooXXX..###########################",
"####################### XXXoXoOoXoXX.###########################",
"####################### OXoXXoXoXXXX ###########################",
"####################### OXXXooooXXXO ###########################",
"#######################..OoXoOXoXXX .###########################",
"########################.Oo Xoooo O.############################",
"#########################OO XXooo O#############################",
"######################### o o.oXX X#############################",
"######################### o . o .  #############################",
"########################## +o X o+ #############################",
"########################## o +o+ o##############################",
"############################ o#o ###############################",
"################################################################",
"################################################################",
"################################################################",
"################################################################"
};
