/* XPM */
static char *result[] = {
/* columns rows colors chars-per-pixel */
"64 64 61 1 ",
"  c #202020",
". c #282828",
"X c gray19",
"o c gray22",
"O c gray25",
"+ c #484848",
"@ c #505050",
"# c #595252",
"$ c #585858",
"% c #615959",
"& c #606060",
"* c #696060",
"= c #686868",
"- c #6C6B6B",
"; c #716767",
": c #796E6E",
"> c gray44",
", c #747373",
"< c gray47",
"1 c #7C7B7B",
"2 c #817575",
"3 c #897D7D",
"4 c #808080",
"5 c #848383",
"6 c #888888",
"7 c #8C8B8B",
"8 c #908585",
"9 c #978D8D",
"0 c #909090",
"q c #949393",
"w c #9D9292",
"e c #989898",
"r c #9C9B9B",
"t c #A49A9A",
"y c #A59D9D",
"u c #A4A3A3",
"i c #ABA2A2",
"p c #ACA5A5",
"a c #ACABAB",
"s c #B2AAAA",
"d c #B4B3B3",
"f c #B9B2B2",
"g c #BCBBBB",
"h c #C0BABA",
"j c #FFB2B2",
"k c #85FFF7",
"l c #AFF8F4",
"z c #C4C3C3",
"x c #C7C2C2",
"c c #CECACA",
"v c #D5D2D2",
"b c #DCDADA",
"n c #FFD0D0",
"m c #FFDFDF",
"M c #C2E9E7",
"N c #E3E2E2",
"B c #EAFEFD",
"V c gray99",
"C c #FFFDFD",
"Z c white",
"A c None",
/* pixels */
"AAAAAAAAAAAAAAAAAAAAAAAX*1,-,,,%,%,,;5+AAAAAAAAAAAAAAAAAAAAAAAAA",
"AAAAAAAAAAAAAAAAAkAAAAAX*1,#%%,%%%%%;1.AAAAAkAAAAAAAAAAAAAAAAAAA",
"AAAAAAAAAAAAAAAAklAAAA$X9ax+@38gg<=h51,.AAAAMkAAAAAAAAAAAAAAAAAA",
"AAAAAAAAAAAAAAAAllAA=X@275t.Z,*2qZXt%t,.A+AAMkAAAAAAAAAAAAAAAAAA",
"AAAAAAAAAAAAAAAklkVAAXX*1*%..,*qq@X%%,,.XAAVMlkAAAAAAAAAAAAAAAAA",
"AAAAAAAAAAAAAAAklVVk.A@$8q*%ttnCvb8:%5+$A0kBMlBAAAAAAAAAAAAAAAAA",
"AAAAAAAAAAAAAAABlBklA.X;;5iZZZmjZZsf,15o+VlBMlBAAAAAAAAAAAAAAAAA",
"AAAAAAAAAAAAAAAVlMkVlAXo;5ZOZZo ZZoZt1ookBlBlMVAAAAAAAAAAAAAAAAA",
"AAAAAAAAAAAAAAAAllMVlA@X3cZZ&@Zx&$ZZ,1XokBlllBAAAAAAAAAAAAAAAAAA",
"AAAAAAAAAAAAAAAABlMBlkVO:8rZZZZZZZaggdkBVlkBMVAAAAAAAAAAAAAAAAAA",
"AAAAAAAAAAAAAAAAVlMMlVVAXo*57ZZZZ77qXXkVlkkBkkAAAAAAAAAAAAAAAAAA",
"AAAAAAAAAAAAAAAAAklMlBklkAeXdaraad>Xklke6kkBlAAAAAAAAAAAAAAAAAAA",
"AAAAAAAAAAAAAAAAAkBMlBlVlkAX++ Xo+XkkVkeZ<kBlAAAAAAAAAAAAAAAAAAA",
"AAAAAAAAAAAAAAAAAVllMklBlkk+8aqura=kkVkk<Z>kAAAAAAAAAAAAAAAAAAAA",
"AAAAAAAAAAAAAAAAAAkBMkkBllX89cif7ud>kkBkk=r=AAAAAAAAAAAAAAAAAAAA",
"AAAAAAAAAAAAAAAAAAAkVVkVkX:%;sii,157XlBkkXrAAAAAAAAAAAAAAAAAAAAA",
"AAAAAAAAAAAAAAAAAAAAkVkkA=pgavurqxad&lVkk6XAAAAAAAAAAAAAAAAAAAAA",
"AAAAAAAAAAAAAAAAAAAAAAAAO+8bhf1--wt,XoAAA@a<AAAAAAAAAAAAAAAAAAAA",
"AAAAAAAAAAAAAAAAAAAAAAAX7O:ht,,w--t,.,.A.1q+AAAAAAAAAAAAAAAAAAAA",
"AAAAAAAAAAAAAAAAAAAAAAA0d+7ht,tw--tt.,..,1qOAAAAAAAAAAAAAAAAAAAA",
"AAAAAAAAAAAAAAAAAAAAAAA67t15sfsttw.tt1.555<AAAAAAAAAAAAAAAAAAAAA",
"AAAAAAAAAAAAAAAAAAAAAAA&7tXo5Ost.-..s:oq5oAAAAAAAAAAAAAAAAAAAAAA",
"AAAAAAAAAAAAAAAAAAAAAAAO:tXo5O5,O7$=by>z=AAAAAAAAAAAAAAAAAAAAAAA",
"AAAAAAAAAAAAAAAAAAAAAAAO23N>z4gu&u&bby><AAAAAAAAAAAAAAAAAAAAAAAA",
"AAAAAAAAAAAAAAAAAAAAAAAAX*ZoZO51oZoZ7:AAAAAAAAAAAAAAAAAAAAAAAAAA",
"AAAAAAAAAAAAAAAAAAAAAAAAXXOoOOoXoooOXXAAAAAAAAAAAAAAAAAAAAAAAAAA",
"AAAAAAAAAAAAAAAAAAAAAAAAAAAAAAAAAAAAAAAAAAAAAAAAAAAAAAAAAAAAAAAA",
"AAAAAAAAAAAAAAAAAAAAAAAAAAAAAAAAAAAAAAAAAAAAAAAAAAAAAAAAAAAAAAAA",
"AAAAAAAAAAAAAAAAAAAAAAAAAAAAAAAAAAAAAAAAAAAAAAAAAAAAAAAAAAAAAAAA",
"AAAAAAAAAAAAAAAAAAAAAAAAAAAAAAAAAAAAAAAAAAAAAAAAAAAAAAAAAAAAAAAA",
"AAAAAAAAAAAAAAAAAAAAAAAAAAAAAAAAAAAAAAAAAAAAAAAAAAAAAAAAAAAAAAAA",
"AAAAAAAAAAAAAAAAAAAAAAAAAAAAAAAAAAAAAAAAAAAAAAAAAAAAAAAAAAAAAAAA",
"AAAAAAAAAAAAAAAAAAAAAAAAAAAAAAAAAAAAAAAAAAAAAAAAAAAAAAAAAAAAAAAA",
"AAAAAAAAAAAAAAAAAAAAAAAAAAAAAAAAAAAAAAAAAAAAAAAAAAAAAAAAAAAAAAAA",
"AAAAAAAAAAAAAAAAAAAAAAAAAAAAAAAAAAAAAAAAAAAAAAAAAAAAAAAAAAAAAAAA",
"AAAAAAAAAAAAAAAAAAAAAAAAAAAAAAAAAAAAAAAAAAAAAAAAAAAAAAAAAAAAAAAA",
"AAAAAAAAAAAAAAAAAAAAAAAAAAAAAAAAAAAAAAAAAAAAAAAAAAAAAAAAAAAAAAAA",
"AAAAAAAAAAAAAAAAAAAAAAAAAAAAAAAAAAAAAAAAAAAAAAAAAAAAAAAAAAAAAAAA",
"AAAAAAAAAAAAAAAAAAAAAAAAAAAAAAAAAAAAAAAAAAAAAAAAAAAAAAAAAAAAAAAA",
"AAAAAAAAAAAAAAAAAAAAAAAAAAAAAAAAAAAAAAAAAAAAAAAAAAAAAAAAAAAAAAAA",
"AAAAAAAAAAAAAAAAAAAAAAAAAAAAAAAAAAAAAAAAAAAAAAAAAAAAAAAAAAAAAAAA",
"AAAAAAAAAAAAAAAAAAAAAAAAAAAAAAAAAAAAAAAAAAAAAAAAAAAAAAAAAAAAAAAA",
"AAAAAAAAAAAAAAAAAAAAAAAAAAAAAAAAAAAAAAAAAAAAAAAAAAAAAAAAAAAAAAAA",
"AAAAAAAAAAAAAAAAAAAAAAAAAAAAAAAAAAAAAAAAAAAAAAAAAAAAAAAAAAAAAAAA",
"AAAAAAAAAAAAAAAAAAAAAAAAAAAAAAAAAAAAAAAAAAAAAAAAAAAAAAAAAAAAAAAA",
"AAAAAAAAAAAAAAAAAAAAAAAAAAAAAAAAAAAAAAAAAAAAAAAAAAAAAAAAAAAAAAAA",
"AAAAAAAAAAAAAAAAAAAAAAAAAAAAAAAAAAAAAAAAAAAAAAAAAAAAAAAAAAAAAAAA",
"AAAAAAAAAAAAAAAAAAAAAAAAAAAAAAAAAAAAAAAAAAAAAAAAAAAAAAAAAAAAAAAA",
"AAAAAAAAAAAAAAAAAAAAAAAAAAAAAAAAAAAAAAAAAAAAAAAAAAAAAAAAAAAAAAAA",
"AAAAAAAAAAAAAAAAAAAAAAAAAAAAAAAAAAAAAAAAAAAAAAAAAAAAAAAAAAAAAAAA",
"AAAAAAAAAAAAAAAAAAAAAAAAAAAAAAAAAAAAAAAAAAAAAAAAAAAAAAAAAAAAAAAA",
"AAAAAAAAAAAAAAAAAAAAAAAAAAAAAAAAAAAAAAAAAAAAAAAAAAAAAAAAAAAAAAAA",
"AAAAAAAAAAAAAAAAAAAAAAAAAAAAAAAAAAAAAAAAAAAAAAAAAAAAAAAAAAAAAAAA",
"AAAAAAAAAAAAAAAAAAAAAAAAAAAAAAAAAAAAAAAAAAAAAAAAAAAAAAAAAAAAAAAA",
"AAAAAAAAAAAAAAAAAAAAAAAAAAAAAAAAAAAAAAAAAAAAAAAAAAAAAAAAAAAAAAAA",
"AAAAAAAAAAAAAAAAAAAAAAAAAAAAAAAAAAAAAAAAAAAAAAAAAAAAAAAAAAAAAAAA",
"AAAAAAAAAAAAAAAAAAAAAAAAAAAAAAAAAAAAAAAAAAAAAAAAAAAAAAAAAAAAAAAA",
"AAAAAAAAAAAAAAAAAAAAAAAAAAAAAAAAAAAAAAAAAAAAAAAAAAAAAAAAAAAAAAAA",
"AAAAAAAAAAAAAAAAAAAAAAAAAAAAAAAAAAAAAAAAAAAAAAAAAAAAAAAAAAAAAAAA",
"AAAAAAAAAAAAAAAAAAAAAAAAAAAAAAAAAAAAAAAAAAAAAAAAAAAAAAAAAAAAAAAA",
"AAAAAAAAAAAAAAAAAAAAAAAAAAAAAAAAAAAAAAAAAAAAAAAAAAAAAAAAAAAAAAAA",
"AAAAAAAAAAAAAAAAAAAAAAAAAAAAAAAAAAAAAAAAAAAAAAAAAAAAAAAAAAAAAAAA",
"AAAAAAAAAAAAAAAAAAAAAAAAAAAAAAAAAAAAAAAAAAAAAAAAAAAAAAAAAAAAAAAA",
"AAAAAAAAAAAAAAAAAAAAAAAAAAAAAAAAAAAAAAAAAAAAAAAAAAAAAAAAAAAAAAAA"
};
