/* XPM */
static char *result[] = {
/* columns rows colors chars-per-pixel */
"64 64 8 1 ",
"  c black",
". c #1F1D1B",
"X c #2A2824",
"o c #302D29",
"O c #393530",
"+ c #E2517B",
"@ c white",
"# c None",
/* pixels */
"################################################################",
"################################################################",
"################################################################",
"################################################################",
"################################################################",
"################################################################",
"################################################################",
"################################################################",
"################################################################",
"################################################################",
"################################################################",
"################################################################",
"################################################################",
"################################################################",
"################################################################",
"################################################################",
"################################################################",
"################################################################",
"################################################################",
"################################################################",
"################################################################",
"################################################################",
"################################################################",
"################################################################",
"################################################################",
"################################################################",
"################################################################",
"################################################################",
"################################################################",
"################################################################",
"################################################################",
"################################################################",
"################################################################",
"################################################################",
"################################################################",
"###############################   . .###########################",
"#############################  ooooO@.##########################",
"############################  ..... .###########################",
"###########################  ..#################################",
"########################### o.##################################",
"###########################.o.##################################",
"########################### o..#################################",
"###########################. o. ################################",
"############################ o  ################################",
"###########################. o  .###############################",
"#########################  . oo o .#############################",
"######################## ..o oX Xo .############################",
"#######################..oOX oo Xoo o###########################",
"#######################..OX Xooo XX..###########################",
"#######################.XXXoXoooXoXX.###########################",
"#######################.OXoXXoXoXXXX ###########################",
"#######################. XXXooooXXXO.###########################",
"#######################..OoXooXoXXXX ###########################",
"########################. oXXooooOO.############################",
"######################### o. Xoo OX#############################",
"######################### oo .oX oX#############################",
"#########################Xo .. .. oo############################",
"########################.o # o oo# o.###########################",
"#######################X +X# +#+ #X+  ##########################",
"####################### ++X#  #o #X++ ##########################",
"######################## X######### X###########################",
"################################################################",
"################################################################",
"################################################################"
};
