/* XPM */
static char *result[] = {
/* columns rows colors chars-per-pixel */
"64 64 8 1 ",
"  c gray3",
". c #1F1E1E",
"X c #464141",
"o c #800000",
"O c #B10000",
"+ c #D70000",
"@ c #827B7B",
"# c None",
/* pixels */
"################################################################",
"################################################################",
"################################################################",
"################################################################",
"################################################################",
"################################################################",
"################################################################",
"################################################################",
"################################################################",
"################################################################",
"################################################################",
"################################################################",
"################################################################",
"################################################################",
"################################################################",
"################################################################",
"################################################################",
"################################################################",
"################################################################",
"################################################################",
"################################################################",
"################################################################",
"################################################################",
"################################################################",
"################################################################",
"################################################################",
"################################################################",
"################################################################",
"################################################################",
"################################################################",
"################################################################",
"################################################################",
"################################################################",
"################################################################",
"################################################################",
"################################################################",
"################################################################",
"################################################################",
"################################################################",
"################################################################",
"################################################################",
"################################################################",
"################################################################",
"################################################################",
"################################################################",
"################################################################",
"################################################################",
"################################################################",
"###############################..###############################",
"######################oooo###..o..oooo##########################",
"###################ooooooOooOO.....X..ooo#######################",
"#################ooooooO  OO.  .@O..X.OOoo######################",
"###############ooooOOO  @...OOX.XX..OXoOo++oooooooo#############",
"##############..XOOO+..X@X.@XX..XO. .X+o..O+oooooOOO############",
"############oo...X++ .@@X@XX....X.OOX...@..OOO+OOooO############",
"############ooXX.XXO..O..XOO++....O.XX.@.@. OO+OOooO############",
"############oOO+OOOo.oo  O+OOOoo++O..O... .  OOOOOOO############",
"############ooOOoOOOOOXXooOOOO++OOo...OO...OOOOOOOoo############",
"############ooOOOooooXX..ooooOOO+oooooooooooOooooo##############",
"############oooooooooooo. ooooooooooooooooooOoooo###############",
"##########################oooooo################################",
"################################################################",
"################################################################",
"################################################################"
};
