/* XPM */
static char *result[] = {
/* columns rows colors chars-per-pixel */
"64 64 15 1 ",
"  c #0C3B0D",
". c #533017",
"X c #5D391F",
"o c #683A19",
"O c #713E19",
"+ c #0E410F",
"@ c #1C531C",
"# c #0F6110",
"$ c #754019",
"% c #84481C",
"& c #8A4C1F",
"* c #865028",
"= c #9D5521",
"- c #71F6FF",
"; c #BDFEFF",
/* pixels */
"++++++++++++++++++++++++++++++++++++++++++++++++++++++++++++++ +",
";+@-----#+;+@-----#+;+@-----#+;+@-----#+;+@-----#+;+@-----#+;+ +",
"-;+@---#+--;+@---#+--;+@---#+--;+@---#+--;+@---#+--;+@---#+--; +",
"--;+@-#+----;+@-#+----;+@-#+----;+@-#+----;+@-#+----;+@-#+---- +",
"---;+@+------;+@+------;;@+------;+@+------;+@+------;+@+----- +",
"----;+--------;+---------+--------;+--------;+--------;+------++",
"----+@+-------+@+-------+@+-------+@+-------+@+-------+@+----- +",
"---+@;#+-----+@;#+-----+@;#+-----+@;#+-----+@;#+-----+@;#+---- +",
"--+@--;#+---+@--;#+---+@--;#+---+@--;#+---+@--;#+---+@--;#+--- +",
"-+@----;#+-+@----;#+-+@----;#+-+@----;#+-+@----;#+-+@----;#+-+ +",
"+@------;#+@------;#+@------;#+@------;#+@------;#+@------;#+@ +",
";+@-----#+;+@-----#+;+@-----#+;+@-----#+;+@-----#+;+@-----#+;+ +",
"-;+@---#+--;+@---#+--;+@---#+--;+@---#+--;+@---#+--;+@---#+--; +",
"--;+@-#+----;+@-#+----;+@-#+----;+@-#+----;+@-#+----;+@-#+---- +",
"---;+@+------;+@+------;+@+------;+@+------;+@+------;+@+----- +",
"----;+--------;+--------;+--------;+--------;+--------;+------ +",
"----+@+-------+@+-------+@+-------+@+-------+@+-------+@+----- +",
"---+@;#+-----+@;#+-----+@;#+-----+@;#+-----+@;#+-----+@;#+---- +",
"--+@--;#+---+@--;#+---+@--;#+---+@--;#+---+@--;#+---+@--;#+--- +",
"-+@----;#+-+@----;#+-+@----;#+-+@----;#+-+@----;#+-+@----;#+-+ +",
"+@------;#+@------;#+@------;#+@------;#+@------;#+@------;#+@ +",
"+@------;#+@------;#+@------;#+@------;#+@------;#+@------;#+@ +",
";+@-----#+;+@-----#+;+@-----#+;+@-----#+;+@-----#+;+@-----#+;+ +",
"-;+@---#+--;+@---#+--;+@---#+--;+@---#+--;+@---#+--;+@---#+--; +",
"--;+@-#+----;+@-#+----;+@-#+----;+@-#+----;+@-#+----;+@-#+---- +",
"---;+@+------;+@+------;+@+------;+@+------;+@+------;+@+----- +",
"----;+--------;+--------;+--------;+--------;+--------;+------ +",
"----+@+-------+@+-------+@+-------+@+-------+@+-------+@+----- +",
"---+@;#+-----+@;#+-----+@;#+-----+@;#+-----+@;#+-----+@;#+---- +",
"--+@--;#+---+@--;#+---+@--;#+---+@--;#+---+@--;#+---+@--;#+--- +",
"-+@----;#+-+@----;#+-+@----;#+-+@----;#+-+@----;#+-+@----;#+-+ +",
"+@------;#+@------;#+@------;#+@------;#+@------;#+@------;#+@ +",
";+@-----#+;+@-----#+;+@-----#+;+@-----#+;+@-----#+;+@-----#+;+ +",
"-;+@---#+--;+@---#+--;+@---#+--;+@---#+--;+@---#+--;+@---#+--; +",
"--;+@-#+----;+@-#+----;+@-#+----;+@-#+----;+@-#+----;+@-#+---- +",
"---;+@+------;+@+------;+@+------;+@+------;+@+------;+@+----- +",
"----;+--------;+--------;+--------;+--------;+--------;+------ +",
"----+@+-------+@+-------+@+-------+@+-------+@+-------+@+----- +",
"---+@;#+-----+@;#+-----+@;#+-----+@;#+-----+@;#+-----+@;#+---- +",
"--+@--;#+---+@--;#+---+@--;#+---+@--;#+---+@--;#+---+@--;#+--- +",
"-+@----;#+-+@----;#+-+@----;#+-+@----;#+-+@----;#+-+@----;#+-+ +",
"+@------;#+@------;#+@------;#+@------;#+@------;#+@------;#+@ +",
"+@------;#+@------;#+@------;#+@------;#+@------;#+@------;#+@ +",
";+@-----#+;+@-----#+;+@-----#+;+@-----#+;+@-----#+;+@-----#+;+ +",
"-;+@---#+--;+@---#+--;+@---#+--;+@---#+--;+@---#+--;+@---#+--; +",
"--;+@-#+----;+@-#+----;+@-#+----;+@-#+----;+@-#+----;+@-#+---- +",
"---;+@+------;+@+------;+@+------;+@+------;+@+------;+@+----- +",
"----;+--------;+--------;+--------;+--------;+--------;+------ +",
"----+@+-------+@+-------+@+-------+@+-------+@+-------+@+----- +",
"---+@;#+-----+@;#+-----+@;#+-----+@;#+-----+@;#+-----+@;#+---- +",
"--+@--;#+---+@--;#+---+@--;#+---+@--;#+---+@--;#+---+@--;#+--- +",
"-+@----;#+-+@----;#+-+@----;#+-+@----;#+-+@----;#+-+@----;#+-+ +",
"+@------;#+@------;#+@------;#+@------;#+@------;#+@------;#+@ +",
";+@-----#+;+@-----#+;+@-----#+;+@-----#+;+@-----#+;+@-----#+;+ +",
"-;+@---#+--;+@---#+--;+@---#+--;+@---#+--;+@---#+--;+@---#+--; +",
"--;+@-#+----;+@-#+----;+@-#+----;+@-#+----;+@-#+----;+@-#+---- +",
"---;+@+------;+@+------;+@+------;+@+------;+@+------;+@+----- +",
"----;+--------;+--------;+--------;+--------;+--------;+------ +",
"----+@+-------+@+-------+@+-------+@+-------+@+-------+@+----- +",
"++++++++++++++++++++++++++++++++++++++++++++++++++++++++++++++ +",
".XX.XX.X.XX..XX..XX.X.XX.XX.XX.X.X.XX.XX..XX.X.XX.X.X.X.XX.X..XX",
"o*=Xo&**=.o=Xo*=.o**=Xo=Xo*=.o&*==.o=Xo*=Xo*==Xo=Xo**==oo=.o**=.",
"O**.O&**=.O*X%*=XO&&=.O*.%&=XO&**=XO*.O*=.O&&=.O*XO&**=.O*XO&*=.",
"OO..OOO.$..$.O$$.O.&&.O$XOO&.O.O&$.O&.OO..OO$&..&.OOO...O&X.OO.X"
};
