/* XPM */
static char *a62073fc5f37422cfa4fc0f2c33be79aSNx5fL9BeY9FPCIf[] = {
/* columns rows colors chars-per-pixel */
"64 64 23 1 ",
"  c #072207",
". c #092809",
"X c #143C14",
"o c #3B2210",
"O c #462B17",
"+ c #4F2C13",
"@ c #533017",
"# c #583013",
"$ c #5C3214",
"% c #5D391F",
"& c #6B3A17",
"* c #713E19",
"= c #0E410F",
"- c #0B460C",
"; c #1C531C",
": c #754019",
"> c #6E4221",
", c #84471C",
"< c #9D5521",
"1 c #52F4FF",
"2 c #71F6FF",
"3 c #9EFEFF",
"4 c #BDFEFF",
/* pixels */
"2222222222222222222222222222222222222222222222222222222222222222",
"2222222222222222222222222222222222222222222222222222222222222222",
"2222222222222222222222222222222222222222222222222222222222222222",
"2222222222222222222222222222222222222222222222222222222222222222",
"2222222222222222222222222222222222222222222222222222222222222222",
"2222222222222222222222222222222222222222222222222222222222222222",
"2222222222222222222222222222222222222222222222222222222222222222",
"2222222222222222222222222222222222222222222222222222222222222222",
"2222222222222222222222222222222222222222222222222222222222222222",
"................................................................",
"................................................................",
"3.X11111-.3.X11111-.3.X11111-.3.X11111-.3.X11111-.3.X11111-.3. .",
"23.X111-.113.X111-.113.X111-.113.X111-.113.X111-.113.X111-.113 .",
"113.X1-.11113.X1-.11113.X1-.11113.X1-.11113.X1-.11113.X1-.1111 .",
"1113.X.1111113.X.1111113.X.1111113.X.1111113.X.1111113.X.11111 .",
"11113.111111113.111111113.111111113.111111113.111111113.111111 .",
"1111.X.1111111.X.1111111.X.1111111.X.1111111.X.1111111.X.11111 .",
"111.X3-.11111.X3-.11111.X3-.11111.X3-.11111.X3-.11111.X3-.1111 .",
"11.X113-.111.X113-.111.X113-.111.X113-.111.X113-.111.X113-.111 .",
"1.X11113-.1.X11113-.1.X11113-.1.X11113-.1.X11113-.1.X11113-.1. .",
".X1111113-.X1111113-.X1111113-.X1111113-.X1111113-.X1111113-.X .",
".X1111113-.X1111113-.X1111113-.X1111113-.X1111113-.X1111113-.X .",
"3.X11111-.3.X11111-.3.X11111-.3.X11111-.3.X11111-.3.X11111-.3. .",
"13.X111-.113.X111-.113.X111-.113.X111-.113.X111-.113.X111-.113 .",
"113.X1-.11113.X1-.11113.X1-.11113.X1-.11113.X1-.11113.X1-.1111 .",
"1113.X.1111113.X.1111113.X.1111113.X.1111113.X.1111113.X.11111 .",
"11113.111111113.111111113.111111113.111111113.111111113.111111 .",
"1111.X.1111111.X.1111111.X.1111111.X.1111111.X.1111111.X.11111 .",
"111.X3-.11111.X3-.11111.X3-.11111.X3-.11111.X3-.11111.X3-.1111 .",
"11.X113-.111.X113-.111.X113-.111.X113-.111.X113-.111.X113-.111 .",
"1.X21113-.1.X11113-.1.X11113-.1.X11113-.1.X11113-.1.X11113-.1. .",
".X1111113-.X1111113-.X1111113-.X1111113-.X1111113-.X1111113-.X .",
"3.X11111-.3.X11111-.3.X11111-.3.X11111-.3.X11111-.3.X11111-.3. .",
"13.X111-.113.X111-.113.X111-.113.X111-.113.X111-.113.X111-.113 .",
"113.X1-.11113.X1-.11113.X1-.11113.X1-.11113.X1-.11113.X1-.1111 .",
"1113.X.1111113.X.1111113.X.1111113.X.1111113.X.1111113.X.11111 .",
"11113.111111113.111111113.111111113.111111113.111111113.111111 .",
"1111.X.1111111.X.1111111.X.1111111.X.1111111.X.1111111.X.11111 .",
"111.X3-.11111.X3-.11111.X3-.11111.X3-.11111.X3-.11111.X3-.1111 .",
"11.X113-.111.X113-.111.X113-.111.X113-.111.X113-.111.X113-.111 .",
"1.X11113-.1.X11113-.1.X11113-.1.X11113-.1.X11113-.1.X11113-.1. .",
".X1111113-.X1111113-.X1111113-.X1111113-.X1111113-.X1111113-.X .",
".X1111113-.X1111113-.X1111113-.X1111113-.X1111113-.X1111113-.X .",
"3.X11111-.3.X11111-.3.X11111-.3.X11111-.3.X11111-.3.X11111-.3. .",
"13.X111-.113.X111-.113.X111-.113.X111-.113.X111-.113.X111-.113 .",
"113.X1-.11113.X1-.11113.X1-.11113.X1-.11113.X1-.11113.X1-.1111 .",
"1113.X.1111113.X.1111113.X.1111113.X.1111113.X.1111113.X.11111 .",
"11113.111111113.111111113.111111113.111111113.111111113.111111 .",
"1111.X.1111111.X.1111111.X.1111111.X.1111111.X.1111111.X.11111 .",
"111.X3-.11111.X3-.11111.X3-.11111.X3-.11111.X3-.11111.X3-.1111 .",
"11.X113-.111.X113-.111.X113-.111.X113-.111.X113-.111.X113-.111 .",
"1.X11113-.1.X11113-.1.X11113-.1.X11113-.1.X11113-.1.X11113-.1. .",
".X2221113-.X1111113-.X1111113-.X1111113-.X1111113-.X1111113-.X .",
"3=;21111-.3.X11111-.3.X11111-.3.X11111-.3.X11111-.3.X11111-.3. .",
"24=X111-.113.X111-.113.X111-.113.X111-.113.X111-.113.X111-.113 .",
"223.X1-.11113.X1-.11113.X1-.11113.X1-.11113.X1-.11113.X1-.1111 .",
"2113.X.1111113.X.1111113.X.1111113.X.1111113.X.1111113.X.11111 .",
"11113.111111113.111111113.111111113.111111113.111111113.111111 .",
"1111.X.1111111.X.1111111.X.1111111.X.1111111.X.1111111.X.11111 .",
".............................................................. .",
"oOOoOOoOoOOooOOooOOoOoOOoOOoOOoOoOoOOoOOooOOoOoOOoOoOoOoOOoOooOO",
"+>,O+*>>,o+,O+>,o+>>,O+,O+>,o+*>,,o+,O+>,O+>,,O+,O+>>,,++,o+>>,o",
"#>>o#*>>,o#>O&>,O#**,o#>o&*,O#*>>,O#>o#>,o#**,o#>O#*>><o#>O#*>,o",
"*#oo###o$oo:o#$$o#o**o#$O##*o#o#*$o#*o##oo##$*oo*o##*@@@#*Oo##@%"
};
