/* XPM */
static char *e529ef2778e84791d21d7baadb6dde95vVc2neGjt4k847ip[] = {
/* columns rows colors chars-per-pixel */
"64 64 11 1 ",
"  c #71F6FF",
". c #80F7FF",
"X c #8FF8FF",
"o c #9EF9FF",
"O c #ADFAFF",
"+ c #BCFBFF",
"@ c #CBFCFF",
"# c #DAFDFF",
"$ c #E9FEFF",
"% c #F8FFFF",
"& c white",
/* pixels */
"XXXXXXXX.                      .X..       X.  X..   .          X",
".XXX XXoooooO+oX.......  .....    .        .o  .             .Xo",
"X... .. .X     XoOOo   +o.           ....X.     ...        ..X. ",
"           oOOXoOO          +OoXoXX  .....    .   XoOoo     @# o",
"XoXX      XOoXo..   ..X..XOOXXXXXooX                .. Xo# +X  .",
"... X    ..    .X             OXXooXX    oo        XXX .X o.+   ",
"        X    ..               X   .X..             oX O+X       ",
"  X   ..   ..                 .X.X...ooooX..     .oO @o.        ",
"  . X.   .X    @.+X.XX   ....XOOXXoXX.          XX.   . .       ",
"  oo.....   .X+X&&O+X$@Xo..XX.OX.            X+ X   .      ...O ",
"   X .....o+X%$&&#%&%+@ o+X.XXXXXXoXXoXO#@##    O +@         . .",
"  ..o     XO&&&&&&&&&&&Oo#+$OOoX ..XX..o+OXX o@  o    X    XXOOX",
"..  oXX$+@&&&&&&&&&&&&&&&&&O  .XXooX.oXX.... ..             XXXX",
"..XoX+o+oX&&&&&&&&&&&&&&&&&&@ooo . ..X X.....  ...oo.           ",
"  . .O@&&%&&&&&&&&&&&&&&&&&&@OX ..XX X.       X .. ..X      XXoX",
" .   .o&&&&&&&&&&&&&&&&&&&&@%.oXX  .XX        .o... ...X...     ",
"X     XO&&O&&&&&&&&&&&&&&&%$&O. .oXXXX     .ooXX....  .X.. .....",
"      . .&&#&&&&&&&&&&#&&&$%&#...OXXo.ooOOOX    X...XXXX        ",
"   X..o..%$O@&&&&&&&&@%&$&&&&@.  o.OoOOXooO+oXXX+O+oo. .     ..X",
"    . X o$%%#%$+&&&&&@O%&&@%&X..XX.. O#oXXooXoooXXo+o    ooooX. ",
"     X. +&&&&&&&$%&&@.#&&&X+@o  o  ... ..       Xo  X ooXXXXXX. ",
"      X.@&@&&&&&&&&&%@&&&oXO+O  ..XX     ..   .o..X.           .",
"      . +&@+&&+&&&&&&%O&&&&OoX.. oX........oOX.    X       .... ",
"      X X$&@&&X+&&+%&&#Oo&&X..XX++.....X@@ooooX    . ...X..   ..",
"      .   @### #  %%$&%.o     X.X.  ... O#O@+++@O+OOX.XXOXXoXo.X",
"      .       &  O&&#&$Oo@@@#+oO+oOoXXXXOXXooXo@@#@OOOoX   .... ",
"      .   .oo @      ##$@++O#+XX....     XX  ..o  XOoXX o+  X...",
"      .   X o    XX   ..    .O.X            .   .X.X      oXXXXX",
".     . ..  X.         .X.Xo. .                       .X    .Xoo",
" X    Xo..X ... .     XoXX+..Xo     oXX    .X..   .    .o...X.  ",
" OXooXOXXo.         XOOX. ..Xoo X        . XXX. .o....XXX.. ....",
"X...XXX  .          O.O XXXXOOo     oo  o.oX   X .   .  .       ",
"    . ..o... ..  XO&%@+@+O +Oo    X XX o       . X   o   .     .",
"XXXoXXoo....    +#+X.O+oO@     .    . .        ..   ..   X  ... ",
"Ooo+OooXXoX.X  X.  ..XXooX.                  .$&OXoo X   ... ...",
"XX ...XooO+X       O.X#XoXXX   .. .      ..@@$&&#@&&O ..XX X.  .",
"   ..XX.X.oo.X     XO   Xo.        XXXXXX+#$@$&&o&&&@O@XX+oOXoOX",
"o .      o    o           OXo....  ...o+o&&+&&&&O&&&&$OoOO.o.   ",
"           o . X ..X     . XXoooOX.   #&&&&&&&&%$&&&&&&#o ..    ",
"      .....+   X oOX  .. o...  ..o+OX +&&&&&&&&&&&&&&&&&&&o     ",
"     +O++    .Xo .   X.   XoooX... X....+&&&&&&&&&&&&&&&&$..X   ",
"X       ..   oX.X ...      .XXoOOoo+@$$O$&&%#&&&&&&&&&&&%&@ X   ",
"   XoXo@Oo+++ # @         O OOXX.X$$%&&$&&&&&&&&&&%&&&@$&&&+@+..",
"     X@%#$$@+o X Xoo   O  X  o.XX @@@#o+#&%O&&%&&&&+$$o&&&&#$@..",
"...X+. X o.    O.           X   .oo&&X++%&$++@$&&&%.O+o&&&&&$#  ",
" ..  ..     o  .      o    .    ..o&&%&&&&&&&%&&&@O..O#&&&$@@o.X",
"   .XXXXo.            .     X... ..Xo&&&&&&&&&&&&&#$%&&&&&X   X ",
"    X.         .        XXoo.X...   .+@+&&&$&&$&&&&&&&&o$$  ..  ",
"    OooX..   .XXOXXX++OoXXXXoXXXXXo... +&#OOOOo%&&+@$&&+@OX.    ",
"  . ..XXXX+oXXOOOO@@oXXoXXX..    ..X..o&&OooXoo#@o+XO#+OOo      ",
"      .   X .OOOoXX.   ......XXXX ..X  #$+OOOo%&#+&#o@O X.      ",
" XX XXoXX.  X+ooOoO.XX.      ..X.oXXXXX.X..X..$&@o$@XOo X....X. ",
" .XX     o o++@ooOoX..OoOXXXooXXo..XXXXXXo.    ...              ",
"     XX.  +%%#@+oO+O+OooXOooXXXXooo       oXo..             .X .",
"   ...  XO+@O+OO@OoooOoOoXOo+@+OXXXooooo oXX .             XoX  ",
"  o..OoX  .O.  .oXXXXoO#Oo+X .o++@@##         OOoO+O+o....o.    ",
"   oX. .XXXX....X .O$@@++O+#@Oo+O+O@o .     o oO++OooXXO+OXX    ",
"  .. X  o+XoXXo+O+@o....OO++XXXXXXXX Oo    o  X  .   XooooX.    ",
"..OoXX..  .ooXXX.X        OXX   Xooo X        .X..ooX.        X.",
"   .XXoooXX..X.X             ...           .  X...X   .XXX X   o",
".....XoX.XXXXXOXXXX           ooooOo           XooX  ..      OX ",
"   ..  .      X......   X..         ....                 .  .   ",
"  X....X..X..X          X.X...X.        . ....X..     ... .X    ",
"        .   X                X....X.....           ...    X     "
};
