/* XPM */
static char *_962b282176f49a0f7dc66afc0310451USDaL98QmHZT1AAX[] = {
/* columns rows colors chars-per-pixel */
"64 64 4 1 ",
"  c #71F6FF",
". c #BDFBFF",
"X c #DDFAFC",
"o c #EBFDFE",
/* pixels */
"                                                                ",
" ..           .. .oo          ..o..           .. ..           ..",
".oo.        ...o.oo.        ...o.oo.        ...o.oo.        ...o",
"ooXo.       .XooooXo.       .XoooXXo.       .XoooXXo.       .Xoo",
" oX.         XX.o X.         XX.  X.         XX. oo.         XX.",
"               .               .               .               .",
"                                                                ",
"      ...             ...             ...             ...       ",
"     .Xo..           .Xo..           .Xo..           .Xo..      ",
"    .XooX..         .XooX..         .XooX..         .XooX..     ",
"     .XX...          .XX...          .XX...          .XX...     ",
"      ...             ...             ...             ...       ",
"                                                                ",
"                                              ..              ..",
"                                             .X.X.           .X.",
"                                             .ooo.           .Xo",
"                                              ooo               ",
" ..           .. ..           .. ..           ..oo.           ..",
".oo.        ...o.oo.        ...o.oo.        ...o.oo.        ...o",
" XXo.       .Xoo XXo.       .Xoo XXo.       .Xoo XXo.       .Xoo",
"  X.         XX.  X.         XX.  X.         XX.  X.         XX.",
"               .               .               .               .",
"                                                                ",
"      ...             ...             ...             ...       ",
"     .Xo..           .Xo..           .Xo..           .Xo..      ",
"    .XooX..         .XooX..         .XooX..         .XooX..     ",
"     .XX...          .XX...          .XX...          .XX...     ",
"      ...             ...             ...             ...       ",
"                                                                ",
"o                                                               ",
"o.                                                              ",
"o.                                                              ",
"oo                              X                               ",
"o..           .. ..           ..X..           ..X..          ...",
".oo.        ...o.oo.        ...oXoo.        ...o.oo.        ...o",
" XXo.       .Xoo.XXo.       .XooXXXo.       .XooX.Xo.       .Xoo",
"  X.         XX..XX.         XX..XX.         XX.. X.         XX.",
"               .               .               .               .",
"                                                                ",
"      ...             ...             ...             ...       ",
"     .Xo..           .Xo..           .Xo..           .Xo..      ",
"    .XooX..         .XooX..         .XooX..         .XooX..     ",
"     .XX...          .XX...          .XX...          .XX...     ",
"      ...             ...             ...             ...       ",
"                                                                ",
"              ..                              ..              ..",
"X.           .X.X.                           .X.X.           .X.",
"o.           .Xoo.                           .Xoo.           .Xo",
"oo            XX                              oXoo            oo",
"o..           .XX..           .. ..           ..X..           o.",
".oo.        ...o.oo.        ...o.oo.        ...o.oo.        ...o",
"oXXo.       .Xoo XXo.       .XoooXXo.       .XooXXXo.       .Xoo",
"  X.         XX.  X.         XX.  X.         XX.o X.         XX.",
"               .               .               .               .",
"                                                                ",
"      ...             ...             ...             ...       ",
"     .Xo..           .Xo..           .Xo..           .Xo..      ",
"    .XooX..         .XooX..         .XooX..         .XooX..     ",
"     .XX...          .XX...          .XX...          .XX...     ",
"      ...             ...             ...             ...       ",
"                                                                ",
"              ..              ..              ..              ..",
"X.           .X.X.           .X.X.           .X.X.           .X.",
"o.           .Xoo.           .Xoo.           .Xoo.           .Xo"
};
