/* XPM */
static char *b1c1b648b8fb4da9dd9933e9ce5e713b4MzonxXtwA4Az8qv[] = {
/* columns rows colors chars-per-pixel */
"64 64 2 1 ",
"  c None",
". c red",
/* pixels */
"                                                                ",
"                                                                ",
"                                                                ",
"                                                                ",
"                                                                ",
"                                                                ",
"                                                                ",
"                                                                ",
"                                                                ",
"                                                                ",
"                                                                ",
"                                                                ",
"                                                                ",
"                                                                ",
"                                                                ",
"                                                                ",
"                                                                ",
"                                                                ",
"                                                                ",
"                                                                ",
"                                                                ",
"                                                                ",
"                                                                ",
"                                                                ",
"                                                                ",
"                                                                ",
"                                                                ",
"         ..  ..  ....  ..  ..   ....   ..  .... ....            ",
"         ..  .. ...... ..  ..   .....  .. ..... .....           ",
"         ..  .. ..  .. ..  ..   .. ... .. ..    .. ...          ",
"         ..  .. ..  .. ..  ..   ..  .. .. ..    ..  ..          ",
"         ...... ..  .. ..  ..   ..  .. .. ....  ..  ..          ",
"          ....  ..  .. ..  ..   ..  .. .. ....  ..  ..          ",
"           ..   ..  .. ..  ..   ..  .. .. ..    ..  ..          ",
"           ..   ..  .. ..  ..   .. ... .. ..    .. ...          ",
"           ..   ...... ......   .....  .. ..... .....           ",
"           ..    ....   ....    ....   ..  .... ....            ",
"                                                                ",
"                                                                ",
"                                                                ",
"                                                                ",
"                                                                ",
"                                                                ",
"                                                                ",
"                                                                ",
"                                                                ",
"                                                                ",
"                                                                ",
"                                                                ",
"                                                                ",
"                                                                ",
"                                                                ",
"                                                                ",
"                                                                ",
"                                                                ",
"                                                                ",
"                                                                ",
"                                                                ",
"                                                                ",
"                                                                ",
"                                                                ",
"                                                                ",
"                                                                ",
"                                                                "
};
