/* XPM */
static char *result[] = {
/* columns rows colors chars-per-pixel */
"64 64 12 1 ",
"  c #5D3E0F",
". c #623F0B",
"X c #734808",
"o c #734F19",
"O c #6E6D6D",
"+ c #8E5D15",
"@ c #8F662A",
"# c #C89852",
"$ c #71F6FF",
"% c gray77",
"& c #D2F8FA",
"* c white",
/* pixels */
"$$$$$$$$$$$$$$$$$$$$$$$$$$$$$$$$$$$$$$$$$$$$$$$$$$$$$$$$$$$$$$$$",
"$$$$$$$$$$$$$$$$$$$$$$$$$$$$$$$$$$$$$$$$$$$$$$$$$$$$$$$$$$$$$$$$",
"$$$$$$$$$$$$$$$$$$$$$$$$$$$$$$$$$$$$$$$$$$$$$$$$$$$$$$$$$$$$$$$$",
"$$$$$$$$$$$$$$$$$$$$$$$$$$$$$$$$$$$$$$$$$$$$$$$$$$$$$$$$$$$$$$$$",
"$$$$$$$$$$$$$$$$$$$$$$$$$$$$$$$$$$$$$$$$$$$$$$$$$$$$$$$$$$$$$$$$",
"$$$##$$$$$$##$$$$$$##$$$$$$##$$$$$$##$$$$$$##$$$$$$##$$$$$$##$$$",
"$$#+o#$$$$#+o#$$$$#+o#$$$$#+o#$$$$#+o#$$$$#+o#$$$$#+o#$$$$#+o#$$",
"$$#+o#$$$$#+o#$$$$#+o#$$$$#+o#$$$$#+o#$$$$#+o#$$$$#+o#$$$$#+o#$$",
"$#++oo#$$#++oo#$$#++oo#$$#++oo#$$#++oo#$$#++oo#$$#++oo#$$#++oo#$",
"#@++oo ##@++oo ##@++oo ##@++oo ##@++oo ##@++oo ##@++oo ##@++oo #",
"@@++oo  @@++oo  @@++oo  @@++oo  @@++oo  @@++oo  @@++oo  @@++oo  ",
"@@++oo  @@++oo  @@++oo  @@++oo  @@++oo  @@++oo  @@++oo  @@++oo  ",
"@@++oo  @@++oo  @@++oo  @@++oo  @@++oo  @@++oo  @@++oo  @@++oo  ",
"@@++oo  @@++oo  @@++oo  @@++oo  @@++oo  @@++oo  @@++oo  @@++oo  ",
"@@++oo  @@++oo  @@++oo  @@++oo  @@++oo  @@++oo  @@++oo  @@++oo  ",
"@@++oo  @@++oo  @@++oo  @@++oo  @@++oo  @@++oo  @@++oo  @@++oo  ",
"@@++oo  @@++oo  @@++oo  @@++oo  @@++oo  @@++oo  @@++oo  @@++oo  ",
"@@++oo  @@++oo  @@++oo  @@++oo  @@++oo  @@++oo  @@++oo  @@++oo  ",
"@@++oo  @@++oo  @@++oo  @@++oo  @@++oo  @@++oo  @@++oo  @@++oo  ",
"@@++oo  @@++oo  @@++oo  @@++oo  @@++oo  @@++oo  @@++oo  @@++oo  ",
"@@++oo  @@++oo  @@++oo  @@++oo  @@++oo  @@++oo  @@++oo  @@++oo  ",
"@@+X.o  @@+X.o  @@+X.o  @@+X.o  @@+X.o  @@+X.o  @@+X.o  @@+X.o  ",
"@@+.Xo  @@+.Xo  @@+.Xo  @@+.Xo  @@+.Xo  @@+.Xo  @@+.Xo  @@+.Xo  ",
"@@++oo  @@++oo  @@++oo  @@++oo  @@++oo  @@++oo  @@++oo  @@++oo  ",
"@@++oo  @@++oo  @@++oo  @@++oo  @@++oo  @@++oo  @@++oo  @@++oo  ",
"@@++oo  @@++oo  @@++oo  @@++oo  @@++oo  @@++oo  @@++oo  @@++oo  ",
"@@++oo  @@++oo  @@++oo  @@++oo  @@++oo  @@++oo  @@++oo  @@++oo  ",
"@@++oo  @@++oo  @@++oo  @@++oo  @@++oo  @@++oo  @@++oo  @@++oo  ",
"@@++oo  @@++oo  @@++oo  @@++oo  @@++oo  @@++oo  @@++oo  @@++oo  ",
"@@++oo  @@++oo  @@++oo  @@++oo  @@++oo  @@++oo  @@++oo  @@++oo  ",
"@@++oo  @@++oo  @@++oo  @@++oo  @@++oo  @@++oo  @@++oo  @@++oo  ",
"@@++oo  @@++oo  @@++oo  @@++oo  @@++oo  @@++oo  @@++oo  @@++oo  ",
"@@++oo  @@++oo  @@++oo  @@++oo  @@++oo  @@++oo  @@++oo  @@++oo  ",
"@@++oo  @@++oo  @@++oo  @@++oo  @@++oo  @@++oo  @@++oo  @@++oo  ",
"@@++oo  @@++oo  @@++oo  @@++oo  @@++oo  @@++oo  @@++oo  @@++oo  ",
"@@++oo  @@++oo  @@++oo  @@++oo  @@++oo  @@++oo  @@++oo  @@++oo  ",
"@@++oo  @@++oo  @@++oo  @@++oo  @@++oo  @@++oo  @@++oo  @@++oo  ",
"@@+X.o  @@+X.o  @@+X.o  @@+X.o  @@+X.o  @@+X.o  @@+X.o  @@+X.o  ",
"@@+.Xo  @@+.Xo  @@+.Xo  @@+.Xo  @@+.Xo  @@+.Xo  @@+.Xo  @@+.Xo  ",
"@@++oo  @@++oo  @@++oo  @@++oo  @@++oo  @@++oo  @@++oo  @@++oo  ",
"@@++oo  @@++oo  @@++oo  @@++oo  @@++oo  @@++oo  @@++oo  @@++oo  ",
"@@++oo  @@++oo  @@++oo  @@++oo  @@++oo  @@++oo  @@++oo  @@++oo  ",
"@@++oo  @@++oo  @@++oo  @@++oo  @@++oo  @@++oo  @@++oo  @@++oo  ",
"@@++oo  @@++oo  @@++oo  @@++oo%%%%++oo  @@++oo  @@++oo  @@++oo  ",
"@@++oo  @@++oo  @@++oo  @@++%%%%%%%%oo  @@++oo  @@++oo  @@++oo  ",
"@@++oo  @@++oo  @@++oo  @@%%%%%%%%%%%%  @@++oo  @@++oo  @@++oo  ",
"@@++oo  @@++oo  @@++oo  @%%%%%%%%%%%%%% @@++oo  @@++oo  @@++oo  ",
"@@++oo  @@++oo  @@++oo  %%%%%%%%%%%%%%%%@@++oo  @@++oo  @@++oo  ",
"@@++oo  @@++oo  @@++oo  %%OOOOOOOOOOOO%%@@++oo  @@++oo  @@++oo  ",
"@@++oo  @@++oo  @@++oo  %%O&&&&&&&&&&O%%@@++oo  @@++oo  @@++oo  ",
"@@++oo  @@++oo  @@++oo  %%O&&&*&&&&&&O%%@@++oo  @@++oo  @@++oo  ",
"@@++oo  @@++oo  @@++oo  %%O&&*&&&*&&&O%%@@++oo  @@++oo  @@++oo  ",
"@@++oo  @@++oo  @@++oo  %%O&*&&&*&&&&O%%@@++oo  @@++oo  @@++oo  ",
"@@++oo  @@++oo  @@++oo  %%O&&&&*&&&*&O%%@@++oo  @@++oo  @@++oo  ",
"@@++oo  @@++oo  @@++oo  %%O&&&*&&&*&&O%%@@++oo  @@++oo  @@++oo  ",
"@@+X.o  @@+X.o  @@+X.o  %%O&&*&&&*&&&O%%@@+X.o  @@+X.o  @@+X.o  ",
"@@+.Xo  @@+.Xo  @@+.Xo  %%O&*&&&*&&&&O%%@@+.Xo  @@+.Xo  @@+.Xo  ",
"@@++oo  @@++oo  @@++oo  %%O&&&&*&&&*&O%%@@++oo  @@++oo  @@++oo  ",
"@@++oo  @@++oo  @@++oo  %%O&&&&&&&*&&O%%@@++oo  @@++oo  @@++oo  ",
"@@++oo  @@++oo  @@++oo  %%OOO&&&&&&OOO%%@@++oo  @@++oo  @@++oo  ",
"@@++oo  @@++oo  @@++oo  @%%%OOOOOOOO%%% @@++oo  @@++oo  @@++oo  ",
"@@++oo  @@++oo  @@++oo  @@%%%%%%%%%%%%  @@++oo  @@++oo  @@++oo  ",
"@@++oo  @@++oo  @@++oo  @@++%%%%%%%%oo  @@++oo  @@++oo  @@++oo  ",
"@@++oo  @@++oo  @@++oo  @@++oo  @@++oo  @@++oo  @@++oo  @@++oo  "
};
