/* XPM */
static char *_f7c238d443443e3954d1e62b30d0c0ezIkjOLMP9oPbBFc5[] = {
/* columns rows colors chars-per-pixel */
"64 64 13 1 ",
"  c None",
". c black",
"X c gray9",
"o c #1D1D1D",
"O c gray13",
"+ c #232323",
"@ c #282828",
"# c #610000",
"$ c #5B5B5B",
"% c #686868",
"& c #737272",
"* c #D30000",
"= c #888888",
/* pixels */
"                                                                ",
"                                                                ",
"                                                                ",
"                                                                ",
"                                                                ",
"                                                                ",
"                                                                ",
"                                                                ",
"                                                                ",
"                                                                ",
"                                                                ",
"                                                                ",
"                                                                ",
"                                                                ",
"                                                                ",
"                                                                ",
"                                                                ",
"                                                                ",
"                             ......                             ",
"                 .......    ..++++..    .......                 ",
"            ......XXXXX... ..+@++@+.. ...XXXXX......            ",
"          ...XXXX@@++@@XX...+*#@@#*+...XX@@++@@XXXX...          ",
"      .....XXXX+++X+@......+@#*++*#@+......@+X+++XXXX.....      ",
"    ..XXXXXX++@@XXX...%%%%&.+@@..@@+.&%%%%...XXX@@++XXXXXX..    ",
"   .XXXXX@++@XX+@...%%%=%==.+@....@+.==%=%%%...@+XX@++@XXXXX.   ",
"   .XXX+@+X@XX@...%%%==%=&&.++.##.++.&&=%==%%%...@XX@X+@+XXX.   ",
"   .XXX++XXXX+..+%===%=%==%&.+.##.+.&%==%=%===%+..+XXXX++XXX.   ",
"  .+XXX+XX@X+.XX..%%..X..X%&+..**..+&%X..X..%%..XX.+X@XX+XXX+.  ",
"  .++X@XX@XX@X.+X.+o.X.X..=&@+.**.+@&=..X.X.o+.X+.X@XX@XX@X++.  ",
"  .++X+X@@X@..X..Xo+o...X.&=&@@..@@&=&.X...o+oX..X..@X@@X+X++.  ",
"  .+XXXX@@X.+X..X.o.oo+..X=%=@+@@+@=%=X..+oo.o.X..X+.X@@XXXX+.  ",
"   .X@X@@+X.X.XX   ...+o..&=&&@++@&&=&..o+...   XX.X.X+@@X@X.   ",
"   .X@X@X+X..X    X   .+o+%&=%+@@+%=&%+o+.   X    X..X+X@X@X.   ",
"   .@@X@XX@...    X    ...==&=&@@&=&==...    X    ...@XX@X@@.   ",
"   .X@XX@XX@. X   X   X  .&%&&%&&%&&%&.  X   X   X .@XX@XX@X.   ",
"   .X@XX@+X@.  X  X  X   ..&=&=&&=&=&..   X  X  X  .@X+@XX@X.   ",
"    .@XX@+X@.   X X X     ..=&=%%=&=..     X X X   .@X+@XX@.    ",
"    .@XXX+XX.    XXX       .=&&==&&=.       XXX    .XX+XXX@.    ",
"    .@X@X++X.    .X..X     .&==&&==&.     X..X.    .X++X@X@.    ",
"    .XX@X@+X.     X  .XX  X...%==%...X  XX.  X     .X+@X@XX.    ",
"    ..XX@@XX.     .   ..X X@@..$$..@@X X..   .     .XX@@XX..    ",
"     .XX@@X+.          X.XX@.@....@.@XX.X          .+X@@XX.     ",
"     .+XX@X@.           .X..X@X@@X@X..X.           .@X@XX+.     ",
"     ..XX@X@.              X.@@XX@@.X              .@X@XX..     ",
"      .+X+XX.              .@XX@@XX@.              .XX+X+.      ",
"      ..XX+X.              .@X+@@+X@.              .X+XX..      ",
"       ..XXX.             .@@X+@@+X@@.             .XXX..       ",
"        ..X+..            .@XX@@@@XX@.            ..+X..        ",
"         .@X@.           ..@X+@XX@+X@..           .@X@.         ",
"          .XX..          .@XX@@XX@@XX@.          ..XX.          ",
"           ..@.         ..XX+@XXXX@+XX..         .@..           ",
"            ....       ..@X@@@X++X@@@X@..       ....            ",
"             ....       ....@X@++@X@....       ....             ",
"              ...          ..........          ...              ",
"                                                                ",
"                                                                ",
"                                                                ",
"                                                                ",
"                                                                ",
"                                                                ",
"                                                                ",
"                                                                ",
"                                                                ",
"                                                                "
};
