/* XPM */
static char *_45ca39b81e6419ada329afcc9bd0411zyLT1lSdI0UJqh3n[] = {
/* columns rows colors chars-per-pixel */
"64 64 11 1 ",
"  c None",
". c black",
"X c #1C211D",
"o c #262E27",
"O c #411111",
"+ c #7F0808",
"@ c #6C1919",
"# c #424642",
"$ c #B30000",
"% c #937B0E",
"& c #DEB914",
/* pixels */
"                                                                ",
"                                                                ",
"                                                                ",
"                                                                ",
"                                                                ",
"                                                                ",
"                                                                ",
"                                                                ",
"                                                                ",
"                                                                ",
"                                                                ",
"                                                                ",
"                                                                ",
"                                                                ",
"                                                                ",
"                                                                ",
"                                                                ",
"                                                                ",
"                                                                ",
"       ........                                  ........       ",
"      ..&&&&&&&..                              ..&&&&&&&..      ",
"     ..&&&&&&&&&&.                            .&&&&&&&&&&..     ",
"     .&&&&&&&&&&&..                          ..&&&&&&&&&&&.     ",
"    ..&&&&&&&&&&&&..                        ..&&&&&&&&&&&&..    ",
"    .&&&&&&&&&&&&&&..              @+      ..&&&&&&&&&&&&&&.    ",
"   ..&&&&&&&%&&&&&&&..            +@@     ..&&&&&&&%&&&&&&&..   ",
"   .&&&&&&&&%%&&&&&&&.           +@$@     .&&&&&&&%%&&&&&&&&.   ",
"  ..&&&&&&&&&%&&&&&&&&.          +@+@    .&&&&&&&&%&&&&&&&&&..  ",
"  .&&&&&&&&&&%&&&&&&&&..         $++    ..&&&&&&&&%&&&&&&&&&&.  ",
"  .&&&&&&&&&&%&&&&&&&&&..        ++    ..&&&&&&&&&%&&&&&&+&&&.  ",
"  .&&&&&%&&&&&%&&&&&&&&&.XXXXoXoo$oooXX.&&&&&&&&&%&&&&&%+@+&&.  ",
"  .&&&&&%&&&&&%&&&&&&&&&XXoXoXoXXoXooXXX&&&&&&&&&%&&&&&%@$+&&.  ",
"  .&&&&&%&&&&&%%&&&&&&XXXXXoo#####o#oXXXXX&&&&&&%%&&&&&%@$$&&.  ",
"  .&&&&&%&&&&&&%&&&&&XOO@OXXoo####ooXXO@OOX&&&&&%&&&&&&%&$$&&.  ",
"  .&&&&&%%&&&&&%%&&&XOO@O@OXXo###ooXXO@O@OOX&&&%%&&&&&%%&&&&&.  ",
"  .&&&&&&%&&++&&%&&XOO@@+@+OXXo##XXXO+@+@@OOX&&%&&&&&&%&&&&&&.  ",
"  .&&&&&&%&&+$@&%%&XO@@+@+@+OXXXoXXO+@+@+@@OX&%%&&&&&&%&&&&&&.  ",
"  .&&&&&&%%&+++&&%XXOO+@+@+O@OXXXXO@O+@+@+OOXX%&&&&&&%%&&&&&&.  ",
"  .&&&&&&&%&&$@&&&XO@+@+@+@+OOXXXoOO+@+@+@+@OX&&&&&&&%&&&&&&&.  ",
"  .&&&&&&&%%&&@&&&XOO@+@+@@O@OXo#XO@O@@+@+@OOX&&++&&%%&&&&&&&.  ",
"  .&&&&&&&&%%&&&&&XO@+@+@+@OOoooXXoOO@+@+@+@OX&&+@+%%&&&&&&&&.  ",
"   .&&&&&&&&%&&&&&XOO@+@+OO@OXoX#$XO@OO+@+@OOX&&+++%&&&&&&&&.   ",
"   .&&&&&&&&&%&&&&XO@+@+O@OXXX#@$$XooO@O+@+@OX&&+$+&&&&&&&&&.   ",
"   ..&&&&&&&&%%&&&XOO@+@@OOX#X#@@#XXXOO@@+@OOX&&&$++&&&&&&&..   ",
"    .&&&&&&&&&%%&&XO@@O@OOoXoX$@@@#XXoOO@O@@OX&&%$$+&&&&&&&.    ",
"    ..&&&&&&&&&%%&&XOOOOOoXXo++@@+#XXooOOOOOX&&%%@+$&&&&&&..    ",
"     ..&&&&&&&&&%&&&XXooo#XoX+@@@X###X#ooXoX&&&%&&@$&&&&&..     ",
"      ..&&&&&&&&XXX+++Xo#XX##X@@@++X##X#oXooXXXX&&@$&&&&..      ",
"       ..&&&&&&XX#+@@+Xo##X#o#@@##XX####XXoo###XX&&$$&&..       ",
"        ..&&&&XXX##$$+XXXo#X##XXX#o#o#XXooooX##XXX&$$&..        ",
"         .&&&&X#XXXX$@ooXXX#o###o#oX#X@+oooXXXXX#X&&&&.         ",
"         ..&&&XoXXo$$@ooooXXX####o#XXX@@ooXXooXXoX&&&..         ",
"          ..&XXXXXX+$+XXXoooXX#oXXXXoo+@@X##oXXXXXX&..          ",
"           ..XX#Xoo++$XooX#ooX##XoXoo#$$$XXXXooX#XX..           ",
"             XX#Xooo#XXXXXXooXX#XXoooXX$$+X#oooX#XX             ",
"              X#XXXXXXX#XXX#oXXooXoo#XX$+XXXXXXX#X              ",
"              X#oX#XoXX#Xoo#ooXo+Xoo#oo$$XXoX#Xo#X              ",
"              X#oX##XXoXXXo#ooX+$+oo#oXX+oXX##Xo#X              ",
"              XooXX#oXXXoXX#ooX$$@+o#XXoXXXo#XXooX              ",
"              XXX#oXXo#+$$XXooX$@++oXXooo#oXXo#XXX              ",
"                Xo##XXX+$+XX#oo$$$o#XXXXXXXX##oX                ",
"                XXXo#o#o$+###ooX+$o####oo#o#oXXX                ",
"                  XXoo#+$oXXXXXX$$XXXXo#o#ooXX                  ",
"                   XXXX+@XX    X$$   XXXXXXXX                   "
};
