/* XPM */
static char *_ca577ee6f3b40f2e6e42c560aadc136GHKCvk3bMz3e73f1[] = {
/* columns rows colors chars-per-pixel */
"64 64 9 1 ",
"  c None",
". c #1D1C1A",
"X c #37342F",
"o c #623F0B",
"O c #734808",
"+ c #88570F",
"@ c #A2650B",
"# c #C08125",
"$ c #FFB242",
/* pixels */
"                                                                ",
"                                                                ",
"                                                                ",
"                                                                ",
"                                                                ",
"   $$                                                      $$   ",
"  $@+$                                                    $@+$  ",
"  $@+$                                                    $@+$  ",
" $@@++$                                                  $@@++$ ",
"$#@@++O$                                                $#@@++O$",
"##@@++OO           @.                      .@           ##@@++OO",
"##@@++OO          @@.                      .@@          ##@@++OO",
"##@@++OO         +@@.                      .@@+         ##@@++OO",
"##@@++OO        ++@@.                      .@@++        ##@@++OO",
"##@@++OO       O++@@.                      .@@++O       ##@@++OO",
"##@@++OO      OO++@@.                      .@@++OO      ##@@++OO",
"##@@++OO     +OO++@@.                      .@@++OO+     ##@@++OO",
"##@@++OO     +OO++@@.                      .@@++OO+     ##@@++OO",
"##@@++OO    ++OO++@@.                      .@@++OO++    ##@@++OO",
"##@@++OO    ++OO++@@.                      .@@++OO++    ##@@++OO",
"##@@++OO   @++OO++@@.                      .@@++OO++@   ##@@++OO",
"##@Oo+OO   @++OO++@@.                      .@@++OO++@   ##@Oo+OO",
"##@oO+OO   @++OO++@@.                      .@@++OO++@   ##@oO+OO",
"##@@++OO   @++OO++@@.                      .@@++OO++@   ##@@++OO",
"##@@++OO   @++OO++@@.                      .@@++OO++@   ##@@++OO",
"##@@++OO  @@++OO++@@.                      .@@++OO++@@  ##@@++OO",
"##@@++OO  @@++OO++@@.                      .@@++OO++@@  ##@@++OO",
"##@@++OO @@@++OO++@@.                      .@@++OO++@@@ ##@@++OO",
"##@@++OO @@@++OO++@@.                      .@@++OO++@@@ ##@@++OO",
"##@@++OO @@@++OO++@@.                      .@@++OO++@@@ ##@@++OO",
"##@@++OO @@@++OO++@@.                      .@@++OO++@@@ ##@@++OO",
"##@@++OO.@@@++OO++@@.                      .@@++OO++@@@.##@@++OO",
"##@@++OO.@@@++OO++@@.                      .@@++OO++@@@.##@@++OO",
"##@@++OO.@@@++OO++@@.                      .@@++OO++@@@.##@@++OO",
"##@@++OOXX@@++OO++@@.                      .@@++OO++@@XX##@@++OO",
"##@@++OOXX@@++OO++@@.                      .@@++OO++@@XX##@@++OO",
"##@@++OOXX@@++OO++@@.                      .@@++OO++@@XX##@@++OO",
"##@Oo+OOXX@@++OO++@@.                      .@@++OO++@@XX##@Oo+OO",
"##@oO+OOXX@@++OO++@@.                      .@@++OO++@@XX##@oO+OO",
"##@@++OOXX@@++O.+.@@.                      .@@.+.O++@@XX##@@++OO",
"##@@++OO.@@@++OO.+.@.                      .@.+.OO++@@@.##@@++OO",
"##@@++OO.@@@++OO++@@.                      .@@++OO++@@@.##@@++OO",
"##@@++OO.@@@++OO++@@.                      .@@++OO++@@@.##@@++OO",
"##@@++OO.@@@++OO++@@.                      .@@++OO++@@@.##@@++OO",
"##@@++OO.@@@++OO++@@.                      .@@++OO++@@@.##@@++OO",
"##@@++OO.@@@++OO++@@.                      .@@++OO++@@@.##@@++OO",
"##@@++OO.@@@++OO++@@.                      .@@++OO++@@@.##@@++OO",
"##@@++OO.@@@++OO++@@.                      .@@++OO++@@@.##@@++OO",
"##@@++OO.@@@++OO++@@.                      .@@++OO++@@@.##@@++OO",
"##@@++OO.@@@++OO++@@.                      .@@++OO++@@@.##@@++OO",
"##@@++OO.@@@++OO++@@.                      .@@++OO++@@@.##@@++OO",
"##@@++OO.@@@++OO++@@.                      .@@++OO++@@@.##@@++OO",
"##@@++OO.@@@++OO++@@.                      .@@++OO++@@@.##@@++OO",
"##@@++OO.@@@++OO++@@.                      .@@++OO++@@@.##@@++OO",
"##@@++OO.@@@++OO++@@.                      .@@++OO++@@@.##@@++OO",
"##@Oo+OOXX@@++OO++@@.                      .@@++OO++@@XX##@Oo+OO",
"##@oO+OOXX@@++OO++@@.                      .@@++OO++@@XX##@oO+OO",
"##@@++OOXX@@++OO++@@.                      .@@++OO++@@XX##@@++OO",
"##@@++OOXX@@++OO++@@.                      .@@++OO++@@XX##@@++OO",
"##@@++OOXX@@++OO++@@.                      .@@++OO++@@XX##@@++OO",
"##@@++OOXX@@++OO++@@.                      .@@++OO++@@XX##@@++OO",
"##@@++OO.@@@++OO++@@.                      .@@++OO++@@@.##@@++OO",
"##@@++OO.@@@++OO++@@.                      .@@++OO++@@@.##@@++OO",
"##@@++OO.@@@++OO++@@.                      .@@++OO++@@@.##@@++OO"
};
