/* XPM */
static char *_1dfb56eecbb420ffcfbab316e2fce41N9kAXVcNiRR21sL9[] = {
/* columns rows colors chars-per-pixel */
"64 64 11 1 ",
"  c None",
". c black",
"X c #1D1C1A",
"o c #37342F",
"O c #623F0B",
"+ c #734808",
"@ c #484540",
"# c #88570F",
"$ c #A2650B",
"% c #C08125",
"& c #FFB242",
/* pixels */
"                                                                ",
"                                                                ",
"                                                                ",
"                                                                ",
"                                                                ",
"   &&                                                      &&   ",
"  &$#&                                                    &$#&  ",
"  &$#&                                                    &$#&  ",
" &$$##&                                                  &$$##& ",
"&%$$##+&                                                &%$$##+&",
"%%$$##++                   +##XXXX##+                   %%$$##++",
"%%$$##++                ##++##X@oX##++##                %%$$##++",
"%%$$##++              $$##++##X@oX##++##$$              %%$$##++",
"%%$$##++            %%$$##++##X@oX##++##$$%%            %%$$##++",
"%%$$##++           $%%$$##++##X@oX##++##$$%%$           %%$$##++",
"%%$$##++         ##$%%$$##++##X@oX##++##$$%%$##         %%$$##++",
"%%$$##++        ##$$%%$$##++##X@oX##++##$$%%$$##        %%$$##++",
"%%$$##++       +##$$%%$$##++##X@oX##++##$$%%$$##+       %%$$##++",
"%%$$##++      ++##$$%%$$##++##X@oX##++##$$%%$$##++      %%$$##++",
"%%$$##++      ++##$$%%$$##++##X@oX##++##$$%%$$##++      %%$$##++",
"%%$$##++     #++##$$%%$$##++##X@oX##++##$$%%$$##++#     %%$$##++",
"%%$+O#++    ##++##$$%%$$##++##X@oX##++##$$%%$$##++##    %%$+O#++",
"%%$O+#++    ##++##$$%%$$##++##X@oX##++##$$%%$$##++##    %%$O+#++",
"%%$$##++   $##++##$$%%$$##++##X@oX##++##$$%%$$##++##$   %%$$##++",
"%%$$##++   $##++##$$%%$$##++##X@oX##++##$$%%$$##++##$   %%$$##++",
"%%$$##++  $$##++##$$%%$$##++##X@oX##++##$$%%$$##++##$$  %%$$##++",
"%%$$##++  $$##++##$$%%$$##++##X@oX##++##$$%%$$##++##$$  %%$$##++",
"%%$$##++ $$$##++##$$%%$$##++##X@oX##++##$$%%$$##++##$$$ %%$$##++",
"%%$$##++ $$$##++##$$%%$$##++##X@oX##++##$$%%$$##++##$$$ %%$$##++",
"%%$$##++ $$$##++##$$%%$$##++##X@oX##++##$$%%$$##++##$$$ %%$$##++",
"%%$$##++ $$$##++##$$%%$$##++##X@oX##++##$$%%$$##++##$$$ %%$$##++",
"%%$$##++X$$$##++##$$%%$$##++##X@oX##++##$$%%$$##++##$$$X%%$$##++",
"%%$$##++X$$$##++##$$%%$$##++##X@oX##++##$$%%$$##++##$$$X%%$$##++",
"%%$$##++X$$$##++##$$%%$$##++##X@oX##++##$$%%$$##++##$$$X%%$$##++",
"%%$$##++oo$$##++##$$%%$$##++##X@oX##++##$$%%$$##++##$$oo%%$$##++",
"%%$$##++oo$$##++##$$%%$$##++##X@oX##++##$$%%$$##++##$$oo%%$$##++",
"%%$$##++oo$$##++##$$%%$$##++##X@oX##++##$$%%$$##++##$$oo%%$$##++",
"%%$+O#++oo$$##++##$$%%$$##++##X@oX##++##$$%%$$##++##$$oo%%$+O#++",
"%%$O+#++oo$$##++##$$%%$$##++##X@oX##++##$$%%$$##++##$$oo%%$O+#++",
"%%$$##++oo$$##++##$$%%$..#++##X@oX##++#..$%%$$##++##$$oo%%$$##++",
"%%$$##++X$$$##++##$$%%.$#.++.#X@oX#.++.#$.%%$$##++##$$$X%%$$##++",
"%%$$##++X$$$##++##$$%%$$##..##X@oX##..##$$%%$$##++##$$$X%%$$##++",
"%%$$##++X$$$##++##$$%%$$##++##X@oX##++##$$%%$$##++##$$$X%%$$##++",
"%%$$##++X$$$##++##$$%%$$##++##X@oX##++##$$%%$$##++##$$$X%%$$##++",
"%%$$##++X$$$##++##$$%%$$##++##X@oX##++##$$%%$$##++##$$$X%%$$##++",
"%%$$##++X$$$##++##$$%%$$##++##X@oX##++##$$%%$$##++##$$$X%%$$##++",
"%%$$##++X$$$##++##$$%%$$##++##X@oX##++##$$%%$$##++##$$$X%%$$##++",
"%%$$##++X$$$##++##$$%%$$##++##X@oX##++##$$%%$$##++##$$$X%%$$##++",
"%%$$##++X$$$##++##$$%%$$##++##X@oX##++##$$%%$$##++##$$$X%%$$##++",
"%%$$##++X$$$##++##$$%%$$##++##X@oX##++##$$%%$$##++##$$$X%%$$##++",
"%%$$##++X$$$##++##$$%%$$##++##X@oX##++##$$%%$$##++##$$$X%%$$##++",
"%%$$##++X$$$##++##$$%%$$##++##X@oX##++##$$%%$$##++##$$$X%%$$##++",
"%%$$##++X$$$##++##$$%%$$##++##X@oX##++##$$%%$$##++##$$$X%%$$##++",
"%%$$##++X$$$##++##$$%%$$##++##X@oX##++##$$%%$$##++##$$$X%%$$##++",
"%%$$##++X$$$##++##$$%%$$##++##X@oX##++##$$%%$$##++##$$$X%%$$##++",
"%%$+O#++oo$$##++##$$%%$$##++##X@oX##++##$$%%$$##++##$$oo%%$+O#++",
"%%$O+#++oo$$##++##$$%%$$##++##X@oX##++##$$%%$$##++##$$oo%%$O+#++",
"%%$$##++oo$$##++##$$%%$$##++##X@oX##++##$$%%$$##++##$$oo%%$$##++",
"%%$$##++oo$$##++##$$%%$$##++##X@oX##++##$$%%$$##++##$$oo%%$$##++",
"%%$$##++oo$$##++##$$%%$$##++##X@oX##++##$$%%$$##++##$$oo%%$$##++",
"%%$$##++oo$$##++##$$%%$$##++##X@oX##++##$$%%$$##++##$$oo%%$$##++",
"%%$$##++X$$$##++##$$%%$$##++##X@oX##++##$$%%$$##++##$$$X%%$$##++",
"%%$$##++X$$$##++##$$%%$$##++##X@oX##++##$$%%$$##++##$$$X%%$$##++",
"%%$$##++X$$$##++##$$%%$$##++##X@oX##++##$$%%$$##++##$$$X%%$$##++"
};
