/* XPM */
static char *_10c5218d97b48c38706f4e598fe6cc4BsBxJoMtwUwvIFru[] = {
/* columns rows colors chars-per-pixel */
"64 64 10 1 ",
"  c None",
". c black",
"X c #211F1F",
"o c #2A2828",
"O c #2C2A2A",
"+ c #3D3A3A",
"@ c #444040",
"# c #524F4F",
"$ c #FF6262",
"% c #FFF6F6",
/* pixels */
"                                                                ",
"                                                                ",
"                                                                ",
"                                                                ",
"                                                                ",
"                                                                ",
"                                                                ",
"                                                                ",
"                                                                ",
"                                                                ",
"                                                                ",
"                                                                ",
"                                                                ",
"                                                                ",
"                                                                ",
"                                                                ",
"                                                                ",
"                                                                ",
"                                                                ",
"                                                                ",
"                                                                ",
"                                                                ",
"                                                                ",
"                                                                ",
"                                                                ",
"                                                                ",
"                                                                ",
"                                                                ",
"                                                                ",
"                                                                ",
"                                                                ",
"                   .                                            ",
"               .  .%                                            ",
"              .% .##.                                           ",
"             ..$.##$..                                          ",
"             X....oXo.                                          ",
"            .###XooXo..                       ...               ",
"            .%.+%.+XXX..                     .#++.              ",
"           ....#..+#oXX.                     o#.++.             ",
"          $%%++#####+oX.                    .#+ .%.             ",
"          %%%%.+#+##+oX.                    .+. ...             ",
"          +%%.o+###+ooX.                   ..+.                 ",
"           +oo++#++#+XX.                   .#+                  ",
"            .#+##+##XX.                   ..+.                  ",
"             .X+####oo.   ......          .#.                   ",
"              XX##+##oo....oooo......    .oo.                   ",
"              o@o###+##o.++++oo..OOX... ..o.                    ",
"             oO@@++#++#+++oo+++OO#OXXX...oo.                    ",
"             .+OO@++#####+++++O++++++XXooo.                     ",
"             .+++@o@+#######+##+#+##+++oo.                      ",
"             ..O##.@O@+###+#########+#++o                       ",
"              ..oo.#@@.oo#####+#+#+.#+O..                       ",
"               .@##.#@..@++++o##OO.##+OX                        ",
"               ..##.o@o..#oo##oOO..#+OO.                        ",
"                .....Ooo...XX+....O+OX.                         ",
"                 .....#o.  ...  .O#@..                          ",
"                 .+. .#o.       o#+..                           ",
"                 .+. ..o..     .ooo.                            ",
"                 .%o. .#o.    .ooo.                             ",
"                  ...  .#+.  .%o...                             ",
"                       .%+.  ....                               ",
"                        ..                                      ",
"                                                                ",
"                                                                "
};
