/* XPM */
static char *_319e8af8f1a44a2ff3443f7f649fa73wIVtQLvsoDSROBTZ[] = {
/* columns rows colors chars-per-pixel */
"64 64 11 1 ",
"  c None",
". c black",
"X c #211F1F",
"o c #2A2828",
"O c #2C2A2A",
"+ c #3D3A3A",
"@ c #444040",
"# c #524F4F",
"$ c #FF6262",
"% c #FFF6F6",
"& c white",
/* pixels */
"                                                                ",
"                                                                ",
"                                                                ",
"                                                                ",
"                                                                ",
"                                                                ",
"                                                                ",
"                                                                ",
"                                                                ",
"                                                                ",
"                                                                ",
"                                                                ",
"                                                                ",
"                                                                ",
"                                                                ",
"                                                                ",
"                                                                ",
"                                                                ",
"                                                                ",
"                                                                ",
"                                                                ",
"                                                                ",
"                                                                ",
"                                                                ",
"                                                                ",
"                                                                ",
"                                                                ",
"                                                                ",
"                        .                                       ",
"                    .  .%                                       ",
"                   .% .##.                                      ",
"                  ..$.##$..                        ..           ",
"                  X....oXo.                        .%.          ",
"                 .##+XooXo..                       .+.          ",
"                 .%.+%.+XXX..                       .#.         ",
"                ....#..++oXX.                       .#o.        ",
"               $%%++#+++++oX.                        .#o        ",
"               %%%%.+####+oX.                        .#o.       ",
"               +%%.o+#+#++oX.                         .#.       ",
"                +oo++#+#+oXX.                         .o.       ",
"                 .#++#++#XX.                         ..o.       ",
"                  .X+++++oo                        ..#o.        ",
"                   ##+#+#+o         ##o....       ..#..         ",
"                   .@+###+#o.........ooooo..... ...#o.          ",
"                  +O###+++oO+OOooooooooo#OX..#...#o..           ",
"                 #X+++###++OO+#+#++oo+O+++XXX.oo##.             ",
"                 X+++###+#+++@#####+####O@#++++oX.              ",
"                 .@++#++#######+o#+###@+.+#+o++.                ",
"                 .O+@o#.++#+++#######@@+..##+.                  ",
"                 .##o##.o###++##+#+#++@o@.@#.                   ",
"                .+@O##o.O.@++#+++++++ooOO.#o.                   ",
"               XO.XX#Oo.++.oooo#+......O.O+.                    ",
"              XO+. .OOX   .......+  .o#.OO#..                   ",
"             XO+.  .OO.              .o#.O@+.                   ",
"            XOO.  XOO.                .o#.OOo.                  ",
"           .&O.  XOO.                  .oo.O+..                 ",
"           ...  XOO.                    .o .OO+.                ",
"               .&X.                    .%o  .O+.                ",
"               ....                    .X  .%OO.                ",
"                                           ....                 ",
"                                                                ",
"                                                                ",
"                                                                ",
"                                                                "
};
