/* XPM */
static char *result[] = {
/* columns rows colors chars-per-pixel */
"64 64 65 1 ",
"  c #202020",
". c #282828",
"X c gray19",
"o c gray22",
"O c gray25",
"+ c #484848",
"@ c #505050",
"# c #595252",
"$ c #585858",
"% c #615959",
"& c #606060",
"* c #696060",
"= c #686868",
"- c #6C6B6B",
"; c #716767",
": c #796E6E",
"> c gray44",
", c #747373",
"< c gray47",
"1 c #7C7B7B",
"2 c #817575",
"3 c #897D7D",
"4 c #E6C603",
"5 c #FFDB00",
"6 c #FFE43E",
"7 c #808080",
"8 c #848383",
"9 c #888888",
"0 c #8C8B8B",
"q c #908585",
"w c #978D8D",
"e c #909090",
"r c #949393",
"t c #9D9292",
"y c #989898",
"u c #9C9B9B",
"i c #A49A9A",
"p c #A59D9D",
"a c #A4A3A3",
"s c #ABA2A2",
"d c #ACA5A5",
"f c #ACABAB",
"g c #B2AAAA",
"h c #B4B3B3",
"j c #B9B2B2",
"k c #BCBBBB",
"l c #C0BABA",
"z c #FFB2B2",
"x c #85FFF7",
"c c #AFF8F4",
"v c #C4C3C3",
"b c #C7C2C2",
"n c #CECACA",
"m c #D5D2D2",
"M c #DCDADA",
"N c #FFC1C1",
"B c #FFD0D0",
"V c #FFDFDF",
"C c #C2E9E7",
"Z c #E3E2E2",
"A c #EAFEFD",
"S c gray99",
"D c #FFFDFD",
"F c white",
"G c None",
/* pixels */
"GGGGGGGGGGGGGGGGGGGGGGGGGGGGGGGGGGGGGGGGGGGGGGGGGGGGGGGGGGGGGGGG",
"GGGGGGGGGGGGGGGGGGGGGGGGGGGGGGGGGGGGGGGGGGGGGGGGGGGGGGGGGGGGGGGG",
"GGGGGGGGGGGGGGGGGGGGGGGGGGGGGGGGGGGGGGGGGGGGGGGGGGGGGGGGGGGGGGGG",
"GGGGGGGGGGGGGGGGGGGGGGGGGGGGGGGGGGGGGGGGGGGGGGGGGGGGGGGGGGGGGGGG",
"GGGGGGGGGGGGGGGGGGGGGGGGGGGGGGGGGGGGGGGGGGGGGGGGGGGGGGGGGGGGGGGG",
"GGGGGGGGGGGGGGGGGGGGGGGGGGGGGGGGGGGGGGGGGGGGGGGGGGGGGGGGGGGGGGGG",
"GGGGGGGGGGGGGGGGGGGGGGGGGGGGGGGGGGGGGGGGGGGGGGGGGGGGGGGGGGGGGGGG",
"GGGGGGGGGGGGGGGGGGGGGGGGGGGGGGGGGGGGGGGGGGGGGGGGGGGGGGGGGGGGGGGG",
"GGGGGGGGGGGGGGGGGGGGGGGGGGGGGGGGGGGGGGGGGGGGGGGGGGGGGGGGGGGGGGGG",
"GGGGGGGGGGGGGGGGGGGGGGGGGGGGGGGGGGGGGGGGGGGGGGGGGGGGGGGGGGGGGGGG",
"GGGGGGGGGGGGGGGGGGGGGGGGGGGGGGGGGGGGGGGGGGGGGGGGGGGGGGGGGGGGGGGG",
"GGGGGGGGGGGGGGGGGGGGGGGGGGGGGGGGGGGGGGGGGGGGGGGGGGGGGGGGGGGGGGGG",
"GGGGGGGGGGGGGGGGGGGGGGGGGGGGGGGGGGGGGGGGGGGGGGGGGGGGGGGGGGGGGGGG",
"GGGGGGGGGGGGGGGGGGGGGGGGGGGGGGGGGGGGGGGGGGGGGGGGGGGGGGGGGGGGGGGG",
"GGGGGGGGGGGGGGGGGGGGGGGGGGGGGGGGGGGGGGGGGGGGGGGGGGGGGGGGGGGGGGGG",
"GGGGGGGGGGGGGGGGGGGGGGGGGGGGGGGGGGGGGGGGGGGGGGGGGGGGGGGGGGGGGGGG",
"GGGGGGGGGGGGGGGGGGGGGGGGGGGGGGGGGGGGGGGGGGGGGGGGGGGGGGGGGGGGGGGG",
"GGGGGGGGGGGGGGGGGGGGGGGGGGGGGGGGGGGGGGGGGGGGGGGGGGGGGGGGGGGGGGGG",
"GGGGGGGGGGGGGGGGGGGGGGGGG466644666464GGGGGGGGGGGGGGGGGGGGGGGGGGG",
"GGGGGGGGGGGGGGGGGGGGGG466GGGGGGGGGGGG664GGGGGGGGGGGGGGGGGGGGGGGG",
"GGGGGGGGGGGGGGGGGGGGG4GGGGoGGGGGGGG.GGGG4GGGGGGGGGGGGGGGGGGGGGGG",
"GGGGGGGGGGGGGGGGGGGGGG666oFoGGGGGG.FO666GGGGGGGGGGGGGGGGGGGGGGGG",
"GGGGGGGGGGGGGGGGGGGGGGGGO445555555544>GGGGGGGGGGGGGGGGGGGGGGGGGG",
"GGGGGGGGGGGGGGGGGGGGGGGGXN8;3q3q3u33F<GGGGGGGGGGGGGGGGGGGGGGGGGG",
"GGGGGGGGGGGGGGGGGGGGGGGX*1,-,,,%,%,,;8+GGGGGGGGGGGGGGGGGGGGGGGGG",
"GGGGGGGGGGGGGGGGGxGGGGGX*1,#%%,%%%%%;1.GGGGGxGGGGGGGGGGGGGGGGGGG",
"GGGGGGGGGGGGGGGGxcGGGG$Xwfb+@3qkk<=l81,.GGGGCxGGGGGGGGGGGGGGGGGG",
"GGGGGGGGGGGGGGGGccGG=X@208i.F,*2rFXi%i,.G+GGCxGGGGGGGGGGGGGGGGGG",
"GGGGGGGGGGGGGGGxcxSGGXX*1*%..,*rr@X%%,,.XGGSCcxGGGGGGGGGGGGGGGGG",
"GGGGGGGGGGGGGGGxcSSx.G@$qr*%iiBDmMq:%8+$GexACcAGGGGGGGGGGGGGGGGG",
"GGGGGGGGGGGGGGGAcAxcG.X;;8sFFFVzFFgj,18o+ScACcAGGGGGGGGGGGGGGGGG",
"GGGGGGGGGGGGGGGScCxScGXo;8FOFFo FFoFi1ooxAcAcCSGGGGGGGGGGGGGGGGG",
"GGGGGGGGGGGGGGGGccCScG@X3nFF&@Fb&$FF,1XoxAcccAGGGGGGGGGGGGGGGGGG",
"GGGGGGGGGGGGGGGGAcCAcxSO:quFFFFFFFfkkhxAScxACSGGGGGGGGGGGGGGGGGG",
"GGGGGGGGGGGGGGGGScCCcSSGXo*80FFFF00rXXxScxxAxxGGGGGGGGGGGGGGGGGG",
"GGGGGGGGGGGGGGGGGxcCcAxcxGyXhfuffh>Xxcxy9xxAcGGGGGGGGGGGGGGGGGGG",
"GGGGGGGGGGGGGGGGGxACcAcScxGX++ Xo+XxxSxyF<xAcGGGGGGGGGGGGGGGGGGG",
"GGGGGGGGGGGGGGGGGSccCxcAcxx+qfrauf=xxSxx<F>xGGGGGGGGGGGGGGGGGGGG",
"GGGGGGGGGGGGGGGGGGxACxxAccXqwnsj0ah>xxAxx=u=GGGGGGGGGGGGGGGGGGGG",
"GGGGGGGGGGGGGGGGGGGxSSxSxX:%;gss,180XcAxxXuGGGGGGGGGGGGGGGGGGGGG",
"GGGGGGGGGGGGGGGGGGGGxSxxG=dkfmaurbfh&cSxx9XGGGGGGGGGGGGGGGGGGGGG",
"GGGGGGGGGGGGGGGGGGGGGGGGO+qMlj1--ti,XoGGG@f<GGGGGGGGGGGGGGGGGGGG",
"GGGGGGGGGGGGGGGGGGGGGGGX0O:li,,t--i,.,.G.1r+GGGGGGGGGGGGGGGGGGGG",
"GGGGGGGGGGGGGGGGGGGGGGGeh+0li,it--ii.,..,1rOGGGGGGGGGGGGGGGGGGGG",
"GGGGGGGGGGGGGGGGGGGGGGG90i18gjgiit.ii1.888<GGGGGGGGGGGGGGGGGGGGG",
"GGGGGGGGGGGGGGGGGGGGGGG&0iXo8Ogi.-..g:or8oGGGGGGGGGGGGGGGGGGGGGG",
"GGGGGGGGGGGGGGGGGGGGGGGO:iXo8O8,O0$=Mp>v=GGGGGGGGGGGGGGGGGGGGGGG",
"GGGGGGGGGGGGGGGGGGGGGGGO23Z>v7ka&a&MMp><GGGGGGGGGGGGGGGGGGGGGGGG",
"GGGGGGGGGGGGGGGGGGGGGGGGX*FoFO81oFoF0:GGGGGGGGGGGGGGGGGGGGGGGGGG",
"GGGGGGGGGGGGGGGGGGGGGGGGXXOoOOoXoooOXXGGGGGGGGGGGGGGGGGGGGGGGGGG",
"GGGGGGGGGGGGGGGGGGGGGGGGGGGGGGGGGGGGGGGGGGGGGGGGGGGGGGGGGGGGGGGG",
"GGGGGGGGGGGGGGGGGGGGGGGGGGGGGGGGGGGGGGGGGGGGGGGGGGGGGGGGGGGGGGGG",
"GGGGGGGGGGGGGGGGGGGGGGGGGGGGGGGGGGGGGGGGGGGGGGGGGGGGGGGGGGGGGGGG",
"GGGGGGGGGGGGGGGGGGGGGGGGGGGGGGGGGGGGGGGGGGGGGGGGGGGGGGGGGGGGGGGG",
"GGGGGGGGGGGGGGGGGGGGGGGGGGGGGGGGGGGGGGGGGGGGGGGGGGGGGGGGGGGGGGGG",
"GGGGGGGGGGGGGGGGGGGGGGGGGGGGGGGGGGGGGGGGGGGGGGGGGGGGGGGGGGGGGGGG",
"GGGGGGGGGGGGGGGGGGGGGGGGGGGGGGGGGGGGGGGGGGGGGGGGGGGGGGGGGGGGGGGG",
"GGGGGGGGGGGGGGGGGGGGGGGGGGGGGGGGGGGGGGGGGGGGGGGGGGGGGGGGGGGGGGGG",
"GGGGGGGGGGGGGGGGGGGGGGGGGGGGGGGGGGGGGGGGGGGGGGGGGGGGGGGGGGGGGGGG",
"GGGGGGGGGGGGGGGGGGGGGGGGGGGGGGGGGGGGGGGGGGGGGGGGGGGGGGGGGGGGGGGG",
"GGGGGGGGGGGGGGGGGGGGGGGGGGGGGGGGGGGGGGGGGGGGGGGGGGGGGGGGGGGGGGGG",
"GGGGGGGGGGGGGGGGGGGGGGGGGGGGGGGGGGGGGGGGGGGGGGGGGGGGGGGGGGGGGGGG",
"GGGGGGGGGGGGGGGGGGGGGGGGGGGGGGGGGGGGGGGGGGGGGGGGGGGGGGGGGGGGGGGG",
"GGGGGGGGGGGGGGGGGGGGGGGGGGGGGGGGGGGGGGGGGGGGGGGGGGGGGGGGGGGGGGGG"
};
