/* XPM */
static char *ab6fbcc798304adfb3b56d9e65c8a4e62ch2ySwGyGdpbGs6[] = {
/* columns rows colors chars-per-pixel */
"64 64 7 1 ",
"  c None",
". c black",
"X c #393636",
"o c #4C4B4B",
"O c #807373",
"+ c #FF7676",
"@ c white",
/* pixels */
"                                                                ",
"                                                                ",
"                                                                ",
"                                                                ",
"                                                                ",
"                                                                ",
"                                                                ",
"                           X        X                           ",
"                          X@X      X@X                          ",
"                         X+ooXXoXXXXo+X                         ",
"                         X+oXXOXoooXX+X                         ",
"                        XXooooooXoOooXoX                        ",
"                        XOooXXoOXXXXoXoX                        ",
"                       XXXoO..XXoo..OoooX                       ",
"                     . XXooO.@oXXo@.OXOoX .                     ",
"                      .XOoXX..oOOo..XXooO.                      ",
"                     . ..XoXXOO++OOXXXo.. .                     ",
"                      .OXXOO@@@++@@OOoooX.                      ",
"                       ..XO@.@@..@@.@Oo..                       ",
"                       XXXO@@..@O..@@OOoX                       ",
"                        XXXO@@@@@@@OOooX                        ",
"                         XOXOO@@@@OOoXO                         ",
"                           XXOOOOOOXX                           ",
"                             XoXXoX                             ",
"                                                                ",
"                                                                ",
"                                                                ",
"                                                                ",
"                                                                ",
"                                                                ",
"                                                                ",
"                                                                ",
"                                                                ",
"                                                                ",
"                                                                ",
"                                                                ",
"                                                                ",
"                                                                ",
"                                                                ",
"                                                                ",
"                                                                ",
"                                                                ",
"                                                                ",
"                                                                ",
"                                                                ",
"                                                                ",
"                                                                ",
"                                                                ",
"                                                                ",
"                                                                ",
"                                                                ",
"                                                                ",
"                                                                ",
"                                                                ",
"                                                                ",
"                                                                ",
"                                                                ",
"                                                                ",
"                                                                ",
"                                                                ",
"                                                                ",
"                                                                ",
"                                                                ",
"                                                                "
};
