/* XPM */
static char *result[] = {
/* columns rows colors chars-per-pixel */
"64 64 10 1 ",
"  c black",
". c #1D1C1A",
"X c #1D1C1B",
"o c #23211E",
"O c #2E2C2A",
"+ c #393530",
"@ c #9B0303",
"# c #CB0404",
"$ c #A2A09D",
"% c None",
/* pixels */
"%%%%%%%%%%%%%%%%%%%%%%%%%%%%%%%%%%%%%%%%%%%%%%%%%%%%%%%%%%%%%%%%",
"%%%%%%%%%%%%%%%%%%%%%%%%%%%%%%%%%%%%%%%%%%%%%%%%%%%%%%%%%%%%%%%%",
"%%%%%%%%%%%%%%%%%%%%%%%%%%%%%%%%%%%%%%%%%%%%%%%%%%%%%%%%%%%%%%%%",
"%%%%%%%%%%%%%%%%%%%%%%%%%%%%%%%%%%%%%%%%%%%%%%%%%%%%%%%%%%%%%%%%",
"%%%%%%%%%%%%%%%%%%%%%%%%%%%%%%%%%%%%%%%%%%%%%%%%%%%%%%%%%%%%%%%%",
"%%%%%%%%%%%%%%%%%%%%%%%%%%%%%%%%%%%%%%%%%%%%%%%%%%%%%%%%%%%%%%%%",
"%%%%%%%%%%%%%%%%%%%%%%%%%%%%%%%%%%%%%%%%%%%%%%%%%%%%%%%%%%%%%%%%",
"%%%%%%%%%%%%%%%%%%%%%%%%%%%%%%%%%%%%%%%%%%%%%%%%%%%%%%%%%%%%%%%%",
"%%%%%%%%%%%%%%%%%%%%%%%%%%%%%%%%%%%%%%%%%%%%%%%%%%%%%%%%%%%%%%%%",
"%%%%%%%%%%%%%%%%%%%%%%%%%%%%%%%%%%%%%%%%%%%%%%%%%%%%%%%%%%%%%%%%",
"%%%%%%%%%%%%%%%%%%%%%%%%%%%%%%%%%%%%%%%%%%%%%%%%%%%%%%%%%%%%%%%%",
"%%%%%%%%%%%%%%%%%%%%%%%%%%%%%%%%%%%%%%%%%%%%%%%%%%%%%%%%%%%%%%%%",
"%%%%%%%%%%%%%%%%%%%%%%%%%%%%%%%%%%%%%%%%%%%%%%%%%%%%%%%%%%%%%%%%",
"%%%%%%%%%%%%%%%%%%%%%%%%%%%%%%%%%%%%%%%%%%%%%%%%%%%%%%%%%%%%%%%%",
"%%%%%%%%%%%%%%%%%%%%%%%%%%%%%%%%%%%%%%%%%%%%%%%%%%%%%%%%%%%%%%%%",
"%%%%%%%%%%%%%%%%%%%%%%%%%%%%%%%%%%%%%%%%%%%%%%%%%%%%%%%%%%%%%%%%",
"%%%%%%%%%%%%%%%%%%%%%%%%%%%%%%%%%%%%%%%%%%%%%%%%%%%%%%%%%%%%%%%%",
"%%%%%%%%%%%%%%%%%%%%%%%%%%%%%%%%%%%%%%%%%%%%%%%%%%%%%%%%%%%%%%%%",
"%%%%%%%%%%%%%%%%%%%%%%%%%%%%%%%%%%%%%%%%%%%%%%%%%%%%%%%%%%%%%%%%",
"%%%%%%%%%%%%%%%%%%%%%%%%%%%%%%%%%%%%%%%%%%%%%%%%%%%%%%%%%%%%%%%%",
"%%%%%%%%%%%%%%%%%%%%%%%%%%%%%%%%%%%%%%%%%%%%%%%%%%%%%%%%%%%%%%%%",
"%%%%%%%%%%%%%%%%%%%%%%%%%%%%%%%%%%%%%%%%%%%%%%%%%%%%%%%%%%%%%%%%",
"%%%%%%%%%%%%%%%%%%%%%%%%%%%%%%%%%%%%%%%%%%%%%%%%%%%%%%%%%%%%%%%%",
"%%%%%%%%%%%%%%%%%%%%%%%%%%%%%%%%%%%%%%%%%%%%%%%%%%%%%%%%%%%%%%%%",
"%%%%%%%%%%%%%%%%%%%%%%%%%%%%%%%%%%%%%%%%%%%%%%%%%%%%%%%%%%%%%%%%",
"%%%%%%%%%%%%%%%%%%%%%%%%%%%%%%%%%%%%%%%%%%%%%%%%%%%%%%%%%%%%%%%%",
"%%%%%%%%%%%%%%%%%%%%%%%%%%%%%%%%%%%%%%%%%%%%%%%%%%%%%%%%%%%%%%%%",
"%%%%%%%%%%%%%%%%%%%%%%%%%%%%%%%%%%%%%%%%%%%%%$#%%%%%%%%%%%%%%%%%",
"%%%%%%%%%%%%%%%%%%%%%%%%%%%%%%%%%%%%%%%%%%%%%#$#%%%%%$%%%%%%%%%%",
"%%%%%%%%%%%%%%%%%%%%%%%%%%%%%%%%%%%%%%%$#%%%% ##%%%%##$%%%%%%%%%",
"%%%%%%%%%%%%%%%%%%%%%%%%%%%%%%%%%%%%%%%#$%    #.%%%% O#%%%%%%%%%",
"%%%%%%%%%%%%%%%%%%%%%%%%%%%%%%%%%%%%%%%O#$  o+#.#  % #.%%%%%%%%%",
"%%%%%%%%%%%%%%%%%%%%%%%%%%%%%%%%%%%%%%% @.   ++@# O  +.#%%%%%%%%",
"%%%%%%%%%%%%%%%%%%%%%%%%%%%%%%%%%%%%%%%X@.#    @#  OO+#@%%%%%%%%",
"%%%%%%%%%%%%%%%%%%%%%%%%%%%%%%%%%%%%%%%+X@# o +@##o   #@%%%%%%%%",
"%%%%%%%%%%%%%%%%%%%%%%%%%%%%%%%%%%%#$% +X@# O +#@# O  #@%%%%%%%%",
"%%%%%%%%%%%%%%%%%%%%%%%%%%%%%%%%%%%#O$  +@#   ++@# OoO@@#%%%%%%%",
"%%%%%%%%%%%%%%%%%%%%%%%%%%%%%%%%%%% #@  ++#O o +@# Oo @ # %%%%%%",
"%%%%%%%%%%%%%%%%%%%%%%%%%%%%%%%%%%%X#@   +@    #@# Oo @## %%%%%%",
"%%%%%%%%%%%%%%%%%%%%%%%%%%%%%%%%%%%+.@@ o++ O O @#oO  @@# %%%%%%",
"%%%%%%%%%%%%%%%%%%%%%%%%%%%%%%%%%%%+.#@    @ooo @ o X @@   %%%%%",
"%%%%%%%%%%%%%%%%%%%%%%%%%%%%%%%%%%.++ @@ o @X o  o X  @ Oo %%%%%",
"%%%%%%%%%%%%%%%#$%%%%%%%%%%%%%%%%% . O#@   @ X    X @ @  o %%%%%",
"%%%%%%%%$%%%%%#$#%%%%%%%%%%%%%%%%%  O  @      @.. X@@ @ X  %%%%%",
"%%%%%%%$##%%%%## %%%%#$%%%%%%%%%%%% Oo @@ . X@@.o  @@   Oo %%%%%",
"%%%%%%%#O %%%%.#    %$#%%%%%%%%%%%%% OOO  .. X@..o  #X     %%%%%",
"%%%%%%%.# %  #.#+o  $#O%%%%%%%%%%%%% O oO  .  X#..  # XoO  %%%%%",
"%%%%%%#.+  O #@++   .@ %%%%%%%%%%%%%% oO #@.. X# oO #  o  %%%%%%",
"%%%%%%@#+OO  #@    #.@X%%%%%%%%%%%%%%    #@ .  X oOO  O o %%%%%%",
"%%%%%%@#   o##@+ o #@X+%%%%%%%%%%%%%%  o ##@..   .  oo@   %%%%%%",
"%%%%%%@#  O #@#+ O #@X+ %$#%%%%%%%%%@      #@. OOO  O @  o%%%%%%",
"%%%%%#@@OoO #@++   #@+  $O#%%%%%%%%%$@# oo  @@.  Oo O @ .. %%%%%",
"%%%% # @ oO #@+ o O#++  @# %%%%%%%%%%@.# oX  @.  OOO @@    %%%%%",
"%%%% ##@ oO #@#    @+   @#X%%%%%%%%%%%@.##XX @ . .OO #@  o %%%%%",
"%%%% #@@  Oo#@ O O ++o @@.+%%%%%%%%%%%%@.. Xo @. o   #  o  %%%%%",
"%%%   @@ X o @ ooo@    @#.+%%%%%%%%%%%%%%%  oo .  o  #XXo.  %%%%",
"%%% oO @  X o  o X@ o @@ ++.%%%%%%%%%%%%%%% ..   ooo # X. X %%%%",
"%%% o  @ @ X    X @   @#O . %%%%%%%%%%%%%%%% ooo X o   Oo.  %%%%",
"%%%  X @ @@X ..@      @  O  %%%%%%%%%%%%%%%% . o OoX @  o..X %%%",
"%%% oO   @@  o.@@X . @@ oO %%%%%%%%%%%%%%%%% . oo     o o .  %%%",
"%%%     X#  o..@X ..  OOO %%%%%%%%%%%%%%%%%%% . o .oo  O o..  %%",
"%%%  OoX #  ..#X  .  Oo O %%%%%%%%%%%%%%%%%%%  . o O o O o .X %%",
"%%%%  o  # Oo #X ..@# Oo %%%%%%%%%%%%%%%%%%%%%  .  O    Xo  .  %",
"%%%% o O  OOo X  . @#    %%%%%%%%%%%%%%%%%%%%%  ..o O .OX o ..  "
};
