/* XPM */
static char *result[] = {
/* columns rows colors chars-per-pixel */
"64 64 12 1 ",
"  c black",
". c #161514",
"X c #1D1C1A",
"o c #1D1C1B",
"O c #1F1D1B",
"+ c #23211E",
"@ c #2A2824",
"# c #2E2C2A",
"$ c #302D29",
"% c #6A6866",
"& c #A2A09D",
"* c None",
/* pixels */
"****************************************************************",
"****************************************************************",
"****************************************************************",
"****************************************************************",
"****************************************************************",
"****************************************************************",
"****************************************************************",
"****************************************************************",
"****************************************************************",
"****************************************************************",
"****************************************************************",
"****************************************************************",
"****************************************************************",
"****************************************************************",
"****************************************************************",
"****************************************************************",
"****************************************************************",
"****************************************************************",
"****************************************************************",
"****************************************************************",
"****************************************************************",
"****************************************************************",
"****************************************************************",
"****************************************************************",
"****************************************************************",
"****************************************************************",
"****************************************************************",
"****************************************************************",
"****************************************************************",
"****************************************************************",
"****************************************************************",
"****************************************************************",
"****************************************************************",
"****************************************************************",
"****************************************************************",
"****************************************************************",
"****************************************************************",
"****************************************************************",
"****************************************************************",
"****************************************************************",
"****************************************************************",
"****************************************************************",
"****************************************************************",
"****************************************************************",
"****************************************************************",
"****************************************************************",
"****************************************************************",
"*****************&**&*******************************************",
"*****************%**%*&*****************************************",
"**************&**.** *%*****************************************",
"**************%* # o.*.*****************************************",
"**************+* #  X  *****************************************",
"*************.. O#@  + *******************&**&******************",
"************* .XO@#@X@@ ****************&*%**%******************",
"************. OO@.+ $XX *&**************%* **.**&***************",
"************. O$ @+ X X %+**************.*.o # *%***************",
"************+ +$$O@@.O$@  **************  X  # *+***************",
"************.+ O$ .X@@X++*************** +  @#O ..**************",
"************. +@$$..O@.. ************** @@X@#@OX. **************",
"*************  +@++++ .+*************&* XX$ +.@OO .*************",
"************** +++ .++. *************+% X X +@ $O .*************",
"**************  +.+.+ .**************  @$O.@@O$$+ +*************",
"**************  +..++ .***************++X@@X. $O +.*************",
"***************  ++... *************** ..@O..$$@+ .*************"
};
