/* XPM */
static char *_eba9e46a410418882c0fdc1bcb0950fW0BCC6BWp2VLTgnO[] = {
/* columns rows colors chars-per-pixel */
"64 64 4 1 ",
"  c None",
". c black",
"X c #DE0D0D",
"o c #AA7D50",
/* pixels */
"                                                                ",
"                                                                ",
"                                                                ",
"                                                                ",
"                                                                ",
"                                                                ",
"                                                                ",
"                                                                ",
"                                                                ",
"                                                                ",
"                                                                ",
"                                                                ",
"                                                                ",
"                                                                ",
"                               ..                               ",
"                             ......                             ",
"                           ... .. ...                           ",
"                         ...   X.   ...                         ",
"          ...         ....     .X     ....         ...          ",
"          .o.      ....       ....       ....      .o.          ",
"         ..oo.. ....        .. .. ..        .... ..oo..         ",
"         .oooo....         .....X....         ....oooo.         ",
"        ..ooo...X..     .....oo.Xoo.....     ..X...ooo..        ",
"        .oo...oo...  ......ooo.XX.ooo......  ...oo...oo.        ",
"       ..o....ooo......oooooo......oooooo......ooo....o..       ",
"      ..oo..  ..o..X..oooooo..o..o..oooooo..X..o..  ..oo..      ",
"      .oo...   ...o..ooooo...oo..oo...ooooo..o...   ...oo.      ",
"     .oo...     ......ooo..oooo.Xoooo..ooo......     ...oo.     ",
"    ..oo..     ....o.X....ooooo.Xooooo....X.o....     ..oo..    ",
"    .....      . .oo...ooooooo..X.ooooooo...oo. .      .....    ",
"    .o.oo..   .. .oo.o..oooo........oooo..o.oo. ..   ..oo.o.    ",
"    ..oooo.....  .o..o...o...oo..oo...o...o..o.  .....oooo..    ",
"   ..o...ooo...  ...ooo.X..oooo..oooo..X.ooo...  ...ooo...o..   ",
"  ..oo.  ....o.....oooo.XX............XX.oooo.....o....  .oo..  ",
" ..oo..  ....ooo...ooo...XXooo..X.oooXX...ooo...ooo....  ..oo.. ",
"...oo.  ..  .....o..o..o................o..o..o.....  ..  .oo...",
"........      ..ooo...o..o...oo..oo...o..o...ooo..      ........",
"..X..XX.... .....ooo.oo.XoX..oo..oo..XoX.oo.ooo..... ....XX..X..",
"........X..X... .....o.XoXo...o..o...oXoX.o..... ...X..X........",
".... ...............o..oXoXo..o..o..oXoXo..o............... ....",
"....  ..   ..X.X.......XoXoXo......oXoXoX.......X.X..   ..  ....",
"....   .   ..........................................   .   ....",
" . ..  ......ooo.o.o........................o.o.ooo......  .. . ",
" . .......oo..o....oo.XoXoXo........oXoXoX.oo....o..oo....... . ",
" ....ooo.ooo...  ..oo.oXoXo..........oXoXo.oo..  ...ooo.ooo.... ",
" .....oo......   ..oo..oX..............Xo..oo..   ......oo..... ",
"  . .....ooo..   ..ooo........o..o........ooo..   ..ooo..... .  ",
"  . .   ..ooo.   ...oo.XX..oo......oo..XX.oo...   .ooo..   . .  ",
"  .  .  ...oo.. ..o...X.....oo....oo.....X...o.. ..oo...  .  .  ",
"  .. .  . ..o...o.o....oooo.ooo..ooo.oooo....o.o...o.. .  . ..  ",
"   . .  .  ...oo........ooo..oo..oo..ooo........oo...  .  . .   ",
"   . .  .  ..o......   ..oooo.o..o.oooo..   ......o..  .  . .   ",
"   ...  ...X.XXXX.....  ..ooo......ooo..  .....XXXX.X...  ...   ",
"   ..   ..XXXX...o.. ... .oooo....oooo. ... ..o...XXXX..   ..   ",
"  ...  ...........o.   ...oo...XX...oo...   .o...........  ...  ",
"  .. XX.o....   ......   ..o...XX...o..   ......   ....o.XX ..  ",
"  ..XX..........  .. ...  ....XXXX....  ... ..  ..........XX..  ",
"...X....oo..oooo.  ..  ..  ...X..X...  ..  ..  .oooo..oo....X...",
".....oooooo...ooo... .. ...  . .. .  ... .. ...ooo...oooooo.....",
" ...............oooo........ ...... ........oooo............... ",
"         .....o...ooooo...... .... ......ooooo...o.....         ",
"             ......ooooo... ...XX... ...ooooo......             ",
"                 ......o.... . XX . ....o......                 ",
"                   ......  .  ....  .  ......                   "
};
