/* XPM */
static char *_1f090fba5e94571e7182f35a5f3be2f8nTIuicCS24DdNzu[] = {
/* columns rows colors chars-per-pixel */
"64 64 2 1 ",
"  c None",
". c red",
/* pixels */
"                                                                ",
"                                                                ",
"                                                                ",
"                                                                ",
"                                                                ",
"                                                                ",
"                                                                ",
"                                                                ",
"                                                                ",
"                                                                ",
"                                                                ",
"                                                                ",
"                                                                ",
"                                                                ",
"                                                                ",
"                                                                ",
"                                                                ",
"                                                                ",
"                                                                ",
"                                                                ",
"                                                                ",
"                                                                ",
"                                                                ",
"                                                                ",
"                                                                ",
"                                                                ",
"                                                                ",
"         ..  ..  ....  ..  ..   ..     ....   .... .....        ",
"         ..  .. ...... ..  ..   ..    ...... ..... .....        ",
"         ..  .. ..  .. ..  ..   ..    ..  .. ..    ..           ",
"         ..  .. ..  .. ..  ..   ..    ..  .. ..    ..           ",
"         ...... ..  .. ..  ..   ..    ..  .. ....  ....         ",
"          ....  ..  .. ..  ..   ..    ..  ..  .... ....         ",
"           ..   ..  .. ..  ..   ..    ..  ..    .. ..           ",
"           ..   ..  .. ..  ..   ..    ..  ..    .. ..           ",
"           ..   ...... ......   ..... ...... ..... .....        ",
"           ..    ....   ....    .....  ....  ....  .....        ",
"                                                                ",
"                                                                ",
"                                                                ",
"                                                                ",
"                                                                ",
"                                                                ",
"                                                                ",
"                                                                ",
"                                                                ",
"                                                                ",
"                                                                ",
"                                                                ",
"                                                                ",
"                                                                ",
"                                                                ",
"                                                                ",
"                                                                ",
"                                                                ",
"                                                                ",
"                                                                ",
"                                                                ",
"                                                                ",
"                                                                ",
"                                                                ",
"                                                                ",
"                                                                ",
"                                                                "
};
